<svg width="75" height="86" viewBox="0 0 75 86" fill="none" xmlns="http://www.w3.org/2000/svg">
<path d="M24.84 43.888C26.2907 41.7547 27.784 39.5787 29.32 37.36C30.856 35.1413 32.136 33.008 33.16 30.96C34.2693 28.8267 34.824 26.9067 34.824 25.2V18.288C34.824 15.3013 33.8427 12.9547 31.88 11.248C29.9173 9.456 26.888 8.56 22.792 8.56C18.696 8.56 15.6667 9.456 13.704 11.248C11.7413 12.9547 10.76 15.3013 10.76 18.288V29.68H1.8V18.8C1.8 13.2533 3.42133 8.90133 6.664 5.744C9.992 2.50133 15.24 0.879997 22.408 0.879997C29.7467 0.879997 35.1227 2.50133 38.536 5.744C42.0347 8.90133 43.784 13.2533 43.784 18.8V25.2C43.784 28.272 42.76 31.6427 40.712 35.312C38.7493 38.9813 35.7627 43.632 31.752 49.264L11.4 78.32H43.656V86H0.52V78.32L24.84 43.888ZM62.57 86V71.92H74.09V86H62.57Z" fill="#262E3C"/>
</svg>
