<svg width="75" height="88" viewBox="0 0 75 88" fill="none" xmlns="http://www.w3.org/2000/svg">
<path d="M43.4 70C43.4 75.5467 41.6933 79.9413 38.28 83.184C34.8667 86.3413 29.3627 87.92 21.768 87.92C14.2587 87.92 8.75467 86.3413 5.256 83.184C1.84267 79.9413 0.136001 75.5467 0.136001 70V59.12H9.096V70.512C9.096 73.4133 10.12 75.76 12.168 77.552C14.3013 79.344 17.5013 80.24 21.768 80.24C26.0347 80.24 29.192 79.344 31.24 77.552C33.3733 75.76 34.44 73.4133 34.44 70.512V58.48C34.44 56.0053 33.4587 53.5733 31.496 51.184C29.6187 48.7947 26.8027 47.6 23.048 47.6H10.12V41.2H21.768C25.608 41.2 28.4667 40.048 30.344 37.744C32.2213 35.3547 33.16 32.88 33.16 30.32V18.288C33.16 15.3013 32.1787 12.9547 30.216 11.248C28.2533 9.456 25.224 8.56 21.128 8.56C17.032 8.56 14.0027 9.456 12.04 11.248C10.0773 12.9547 9.096 15.3013 9.096 18.288V29.68H0.136001V18.8C0.136001 13.2533 1.75733 8.90133 5 5.744C8.328 2.50133 13.576 0.879997 20.744 0.879997C28.0827 0.879997 33.4587 2.50133 36.872 5.744C40.3707 8.90133 42.12 13.2533 42.12 18.8V30.32C42.12 37.5733 39.0907 42.224 33.032 44.272C39.944 46.1493 43.4 50.8853 43.4 58.48V70ZM62.57 86V71.92H74.09V86H62.57Z" fill="#262E3C"/>
</svg>
