<svg width="332" height="333" viewBox="0 0 332 333" fill="none" xmlns="http://www.w3.org/2000/svg">
<path d="M153.049 44.7269C154.462 46.1392 155.66 47.7506 156.607 49.5097C165.97 66.9941 155.544 75.9527 147.187 83.1775C139.383 89.8948 134.782 94.4288 138.5 102.677C143.426 113.587 149.57 113.979 158.881 114.577C169.967 115.286 183.753 116.159 198.814 136.579C206.613 147.158 216.55 166.892 219.237 200.48C220.234 212.419 220.184 224.422 219.088 236.352L214.14 235.801C214.205 235.186 220.68 174.604 194.804 139.538C181.123 120.988 169.14 120.227 158.563 119.547C149.075 118.941 140.118 118.372 133.954 104.729C128.521 92.6721 136.701 85.6235 143.931 79.4068C152.386 72.1256 159.687 65.8383 152.209 51.8664C143.781 36.1313 108.693 39.3085 87.7782 41.1954C80.3023 41.8607 74.9902 42.4471 71.5759 42.0912L71.0516 37.3097C73.6403 37.0764 80.4434 36.8265 87.3394 36.2303C108.664 34.2879 139.877 31.4818 153.049 44.7269Z" fill="#212121"/>
<path d="M216.758 232.449C218.281 232.381 219.769 232.92 220.894 233.948C222.02 234.976 222.691 236.409 222.76 237.932L223.279 249.798L211.787 250.311L211.275 238.452C211.207 236.929 211.746 235.441 212.774 234.315C213.802 233.19 215.235 232.519 216.758 232.449Z" fill="#212121"/>
<path d="M213.976 297.779C213.846 297.811 213.713 297.834 213.58 297.848L212.477 297.987L208.431 298.442L208.579 298.294L209.495 307.411L210.038 313.147L210.305 316.252L210.463 317.83C210.499 318.323 210.682 318.794 210.99 319.182C211.245 319.514 211.579 319.777 211.961 319.949C212.343 320.12 212.761 320.194 213.179 320.164C213.585 320.132 213.978 320.005 214.326 319.792C214.673 319.579 214.964 319.286 215.176 318.939C215.373 318.608 215.486 318.235 215.505 317.851C215.516 317.442 215.495 317.033 215.445 316.627L215.225 314.194L214.52 305.756L214.076 300.006L213.939 298.45C213.918 298.255 213.912 298.059 213.919 297.863C213.964 298.03 213.992 298.201 214.003 298.373L214.14 299.929C214.292 301.343 214.505 303.274 214.746 305.63L215.607 314.167L215.848 316.635C215.904 317.074 215.933 317.516 215.936 317.958C215.91 318.581 215.69 319.18 215.308 319.672C214.926 320.164 214.399 320.525 213.803 320.705C213.206 320.884 212.568 320.874 211.977 320.674C211.387 320.474 210.873 320.095 210.508 319.59C210.149 319.123 209.93 318.563 209.876 317.977L209.725 316.406L209.464 313.308L208.957 307.565L208.197 298.449L208.184 298.293L208.332 298.286L212.484 297.98L213.559 297.926C213.691 297.86 213.831 297.81 213.976 297.779Z" fill="#E0E0E0"/>
<path d="M236.986 294.978C236.854 295.013 236.719 295.034 236.583 295.041C236.286 295.082 235.925 295.131 235.48 295.179L231.434 295.634L231.583 295.486L232.491 304.611L233.041 310.34L233.308 313.445L233.466 315.022C233.512 315.516 233.697 315.988 234 316.381C234.258 316.711 234.594 316.972 234.977 317.142C235.36 317.312 235.778 317.386 236.196 317.356C236.603 317.326 236.996 317.198 237.343 316.984C237.689 316.769 237.979 316.474 238.187 316.124C238.383 315.795 238.498 315.425 238.522 315.043C238.528 314.634 238.503 314.225 238.448 313.819L238.242 311.386L237.53 302.942L237.086 297.192L236.949 295.636C236.924 295.443 236.919 295.249 236.937 295.056C236.937 295.056 236.971 295.218 237.013 295.558L237.193 297.086L237.799 302.787L238.652 311.317L238.886 313.792C238.95 314.23 238.979 314.672 238.974 315.115C238.942 315.586 238.795 316.042 238.546 316.443C238.3 316.86 237.956 317.211 237.544 317.466C237.132 317.721 236.664 317.872 236.181 317.907C235.685 317.935 235.189 317.841 234.738 317.634C234.286 317.427 233.892 317.113 233.589 316.719C233.23 316.252 233.011 315.692 232.957 315.105C232.916 314.568 232.861 314.044 232.799 313.528L232.538 310.43L232.024 304.694L231.271 295.57L231.265 295.422L231.406 295.408C233.139 295.293 234.532 295.19 235.558 295.116L236.633 295.048C236.859 294.964 236.993 294.971 236.986 294.978Z" fill="#E0E0E0"/>
<path d="M200.971 262.196L200.349 262.251C199.031 262.369 197.804 262.972 196.904 263.942C196.005 264.912 195.497 266.181 195.478 267.504C195.459 268.827 195.932 270.11 196.804 271.105C197.676 272.1 198.885 272.737 200.199 272.892L202.737 301.622L242.118 298.209L238.888 269.435C240.163 269.159 241.293 268.426 242.066 267.374C242.838 266.323 243.2 265.026 243.083 263.726C242.955 262.337 242.288 261.053 241.226 260.148C240.163 259.244 238.789 258.792 237.397 258.888C236.852 254.915 234.78 251.311 231.62 248.841C228.461 246.372 224.464 245.231 220.477 245.661L214.691 246.281C210.816 246.709 207.246 248.588 204.701 251.54C202.155 254.493 200.823 258.3 200.971 262.196Z" fill="#212121"/>
<path d="M219.274 279.775L221.131 299.979L225.084 299.616L223.227 279.411L219.274 279.775Z" fill="#E0E0E0"/>
<path d="M200.171 272.921C200.667 272.796 201.174 272.717 201.685 272.685C202.668 272.567 204.097 272.416 205.851 272.237C209.373 271.893 214.239 271.482 219.615 271.072C224.99 270.663 229.785 270.323 233.399 270.057C235.096 269.948 236.475 269.818 237.572 269.771C238.084 269.717 238.599 269.704 239.113 269.733C238.613 269.847 238.104 269.923 237.592 269.962C236.609 270.08 235.187 270.238 233.426 270.41C229.904 270.754 225.038 271.165 219.663 271.575L205.885 272.583L201.706 272.876C201.196 272.93 200.683 272.945 200.171 272.921Z" fill="#5D5D5D"/>
</svg>
