<svg width="155" height="118" viewBox="0 0 155 118" fill="none" xmlns="http://www.w3.org/2000/svg">
<g clip-path="url(#clip0_13_463)">
<path d="M148.697 80.8211V117.642H7.30396V80.8211L78.0002 44L78.1476 44.0764L148.697 80.8211Z" fill="#F2F2F2"/>
<path opacity="0.1" d="M148.697 80.8209V117.642H78.1479V44.0762L148.697 80.8209Z" fill="black"/>
<path d="M71.9618 66.5351L66.6598 68.537V60.6438L71.9618 58.3198V66.5351Z" fill="#5D5D5D"/>
<path d="M13.7673 86.9052L12 87.5735V82.7813L13.7673 82V86.9052Z" fill="#5D5D5D"/>
<path d="M19.0621 86.5643L17 87.3372V82.1459L19.0621 81.2407V86.5643Z" fill="#5D5D5D"/>
<path d="M26.3038 83.9148L23.9473 84.8011V79.2017L26.3038 78.1646V83.9148Z" fill="#5D5D5D"/>
<path d="M34.5518 80.6729L31.6061 81.7848V75.9598L34.5518 74.6675V80.6729Z" fill="#5D5D5D"/>
<path d="M44.5669 76.8437L41.0322 78.1797V71.8361L44.5669 70.2856V76.8437Z" fill="#5D5D5D"/>
<path d="M56.6441 72.4255L52.5203 73.9792V66.8287L56.6441 65.021V72.4255Z" fill="#5D5D5D"/>
<path d="M13.7673 95.9773L12 96.4218V91.559L13.7673 91V95.9773Z" fill="#5D5D5D"/>
<path d="M19.0621 96.3631L17 96.8793V91.65L19.0621 91V96.3631Z" fill="#5D5D5D"/>
<path d="M26.3038 95.1073L23.9473 95.6994V90.0997L26.3038 89.3564V95.1073Z" fill="#5D5D5D"/>
<path d="M34.5518 93.0457L31.6061 93.7855V87.7434L34.5518 86.8164V93.0457Z" fill="#5D5D5D"/>
<path d="M44.5669 90.3947L41.0322 91.2868V84.7979L44.5669 83.686V90.3947Z" fill="#5D5D5D"/>
<path d="M56.6443 87.4493L52.2257 88.5606V81.2634L56.6443 79.873V87.4493Z" fill="#5D5D5D"/>
<path d="M71.9618 83.6196L66.6598 84.9524V76.8444L71.9618 75.1812V83.6196Z" fill="#5D5D5D"/>
<path d="M71.9618 100.41L66.6598 101.085V93.0458L71.9618 92.043V100.41Z" fill="#5D5D5D"/>
<path d="M13.7673 104.755L12 104.983V100.337L13.7673 100V104.755Z" fill="#5D5D5D"/>
<path d="M19.5286 107.185L17.4666 107.445V102.472L19.5286 102.085V107.185Z" fill="#5D5D5D"/>
<path d="M26.3038 106.301L23.9473 106.6V100.999L26.3038 100.55V106.301Z" fill="#5D5D5D"/>
<path d="M34.5518 105.123L31.6061 105.499V99.5257L34.5518 98.9639V105.123Z" fill="#5D5D5D"/>
<path d="M44.5669 103.945L41.0322 104.393V97.7591L44.5669 97.0859V103.945Z" fill="#5D5D5D"/>
<path d="M56.6443 102.471L52.2257 103.03V95.696L56.6443 94.8574V102.471Z" fill="#5D5D5D"/>
<path d="M142.953 88.6279L144.72 89.2962V84.504L142.953 83.7227V88.6279Z" fill="#5D5D5D"/>
<path d="M136.767 86.5643L138.829 87.3372V82.1459L136.767 81.2407V86.5643Z" fill="#5D5D5D"/>
<path d="M129.992 83.9148L132.348 84.8011V79.2017L129.992 78.1646V83.9148Z" fill="#5D5D5D"/>
<path d="M121.744 80.6729L124.69 81.7848V75.9598L121.744 74.6675V80.6729Z" fill="#5D5D5D"/>
<path d="M111.729 76.8437L115.263 78.1797V71.8361L111.729 70.2856V76.8437Z" fill="#5D5D5D"/>
<path d="M99.6509 72.4255L103.775 73.9792V66.8287L99.6509 65.021V72.4255Z" fill="#5D5D5D"/>
<path d="M142.953 98.3474L144.72 98.7919V93.9291L142.953 93.3701V98.3474Z" fill="#5D5D5D"/>
<path d="M136.767 96.8748L138.829 97.391V92.1617L136.767 91.5117V96.8748Z" fill="#5D5D5D"/>
<path d="M129.992 95.1073L132.348 95.6994V90.0997L129.992 89.3564V95.1073Z" fill="#5D5D5D"/>
<path d="M121.744 93.0457L124.69 93.7855V87.7434L121.744 86.8164V93.0457Z" fill="#5D5D5D"/>
<path d="M111.729 90.3947L115.263 91.2868V84.7979L111.729 83.686V90.3947Z" fill="#5D5D5D"/>
<path d="M99.6509 87.4493L104.07 88.5606V81.2634L99.6509 79.873V87.4493Z" fill="#5D5D5D"/>
<path d="M84.3335 83.6196L89.6358 84.9524V76.8444L84.3335 75.1812V83.6196Z" fill="#5D5D5D"/>
<path d="M84.3335 100.41L89.6358 101.085V93.0458L84.3335 92.043V100.41Z" fill="#5D5D5D"/>
<path d="M142.953 107.774L144.72 108.001V103.355L142.953 103.019V107.774Z" fill="#5D5D5D"/>
<path d="M136.767 107.185L138.829 107.445V102.472L136.767 102.085V107.185Z" fill="#5D5D5D"/>
<path d="M129.992 106.301L132.348 106.6V100.999L129.992 100.55V106.301Z" fill="#5D5D5D"/>
<path d="M121.744 105.123L124.69 105.499V99.5257L121.744 98.9639V105.123Z" fill="#5D5D5D"/>
<path d="M111.729 103.945L115.263 104.393V97.7591L111.729 97.0859V103.945Z" fill="#5D5D5D"/>
<path d="M99.6509 102.471L104.07 103.03V95.696L99.6509 94.8574V102.471Z" fill="#5D5D5D"/>
<path d="M89.3413 68.5965L84.0393 66.5969V58.2866L89.3413 60.6115V68.5965Z" fill="#5D5D5D"/>
<path d="M139.128 111.085H138.696V118H139.128V111.085Z" fill="#2F2E41"/>
<path d="M144.22 112.968H143.914V117.868H144.22V112.968Z" fill="#2F2E41"/>
<path d="M148.745 113.566H148.476V117.873H148.745V113.566Z" fill="#2F2E41"/>
<path d="M126.457 108.893V117.789L120.713 117.78L114.969 117.771V107.773L120.713 108.333L126.457 108.893Z" fill="#5D5D5D"/>
<path d="M29.8386 117.789L41.3266 117.771V107.773L29.8386 108.892V117.789Z" fill="#5D5D5D"/>
<path opacity="0.1" d="M126.457 108.893V117.789L120.713 117.78V108.333L126.457 108.893Z" fill="black"/>
<path d="M77.4115 109.688H76.8224V117.936H77.4115V109.688Z" fill="#2F2E41"/>
<path d="M80.5162 106.752C80.5162 109.642 78.9723 112.054 77.1164 112.137C75.3121 112.218 73.8857 110.055 73.8857 107.308C73.8857 104.562 77.411 97.022 77.411 97.022C77.411 97.022 80.5162 103.862 80.5162 106.752Z" fill="#A8CF4E"/>
<path d="M8.10287 112.332H7.75146V117.251H8.10287V112.332Z" fill="#2F2E41"/>
<path d="M9.95486 110.582C9.95486 112.305 9.03399 113.744 7.927 113.794C6.85077 113.842 6 112.552 6 110.913C6 109.275 8.1027 104.778 8.1027 104.778C8.1027 104.778 9.95486 108.858 9.95486 110.582Z" fill="#A8CF4E"/>
<path d="M141.289 111.358C141.289 112.998 140.256 114.279 138.912 114.216C137.485 114.149 136.262 112.61 136.262 110.782C136.262 108.954 138.912 104.387 138.912 104.387C138.912 104.387 141.289 109.719 141.289 111.358Z" fill="#A8CF4E"/>
<path d="M145.751 113.162C145.751 114.324 145.019 115.231 144.067 115.186C143.056 115.139 142.189 114.048 142.189 112.753C142.189 111.458 144.067 108.222 144.067 108.222C144.067 108.222 145.751 112 145.751 113.162Z" fill="#A8CF4E"/>
<path d="M150.091 113.736C150.091 114.757 149.447 115.555 148.61 115.516C147.722 115.474 146.96 114.515 146.96 113.377C146.96 112.239 148.61 109.395 148.61 109.395C148.61 109.395 150.091 112.715 150.091 113.736Z" fill="#A8CF4E"/>
<path d="M144.432 31.4395C143.57 31.4395 142.721 31.2284 141.96 30.8245C141.199 30.4205 140.549 29.8361 140.065 29.1225C139.582 28.4089 139.282 27.5876 139.189 26.7308C139.097 25.874 139.217 25.0077 139.537 24.2076L145.624 9H104V42.488C104 43.1804 104.136 43.8661 104.401 44.5058C104.666 45.1455 105.055 45.7267 105.544 46.2163C106.034 46.7059 106.615 47.0942 107.255 47.3592C107.895 47.6241 108.58 47.7605 109.273 47.7605H115.048C116.447 47.7605 117.788 48.3161 118.777 49.3049C119.765 50.2937 120.321 51.6347 120.321 53.0331V74.3886C120.321 75.5764 120.722 76.7294 121.459 77.6607C122.196 78.5921 123.226 79.2472 124.382 79.5201C125.538 79.793 126.752 79.6676 127.828 79.1642C128.904 78.6608 129.778 77.8089 130.309 76.7466L149.148 39.0701C149.55 38.2662 149.739 37.373 149.699 36.4752C149.659 35.5774 149.389 34.7048 148.917 33.9403C148.444 33.1757 147.784 32.5448 146.999 32.1071C146.214 31.6695 145.331 31.4396 144.432 31.4395Z" fill="#A8CF4E"/>
</g>
<defs>
<clipPath id="clip0_13_463">
<rect width="155" height="118" fill="white"/>
</clipPath>
</defs>
</svg>
