<svg width="155" height="118" viewBox="0 0 155 118" fill="none" xmlns="http://www.w3.org/2000/svg">
<path d="M48.0616 90.7736C48.0616 86.3413 44.466 75.8237 40.0308 75.8237C35.5955 75.8237 32 86.3413 32 90.7736C32 92.9035 32.8461 94.9461 34.3522 96.4522C35.8582 97.9583 37.9009 98.8044 40.0308 98.8044C42.1607 98.8044 44.2033 97.9583 45.7094 96.4522C47.2155 94.9461 48.0616 92.9035 48.0616 90.7736Z" fill="#A8CF4E"/>
<path d="M40.2836 108.739C40.217 108.739 40.1532 108.713 40.1061 108.666C40.059 108.619 40.0326 108.555 40.0326 108.489V86.1177C40.0326 86.0511 40.059 85.9873 40.1061 85.9402C40.1532 85.8931 40.217 85.8667 40.2836 85.8667C40.3501 85.8667 40.4139 85.8931 40.461 85.9402C40.5081 85.9873 40.5345 86.0511 40.5345 86.1177V108.489C40.5345 108.555 40.5081 108.619 40.461 108.666C40.4139 108.713 40.3501 108.739 40.2836 108.739Z" fill="#CCCCCC"/>
<path d="M40.2835 89.7737C40.2339 89.7737 40.1854 89.759 40.1441 89.7314C40.1028 89.7039 40.0707 89.6647 40.0517 89.6188C40.0327 89.573 40.0277 89.5225 40.0374 89.4738C40.0471 89.4252 40.071 89.3805 40.1061 89.3454L43.3881 86.0633C43.4351 86.0162 43.4989 85.9897 43.5655 85.9897C43.632 85.9897 43.6959 86.0162 43.7429 86.0633C43.79 86.1103 43.8164 86.1741 43.8164 86.2407C43.8164 86.3072 43.79 86.3711 43.7429 86.4181L40.4609 89.7002C40.4377 89.7236 40.41 89.7421 40.3796 89.7547C40.3491 89.7673 40.3165 89.7738 40.2835 89.7737Z" fill="#CCCCCC"/>
<path d="M66.8834 22.0325H62.868C62.5686 22.0322 62.2815 21.9131 62.0698 21.7014C61.8581 21.4897 61.739 21.2026 61.7386 20.9032V11.6176C61.739 11.3182 61.8581 11.0311 62.0698 10.8194C62.2815 10.6077 62.5686 10.4886 62.868 10.4883H66.8834C67.1828 10.4886 67.4698 10.6077 67.6815 10.8194C67.8933 11.0311 68.0124 11.3182 68.0127 11.6176V20.9032C68.0124 21.2026 67.8933 21.4897 67.6815 21.7014C67.4698 21.9131 67.1828 22.0322 66.8834 22.0325Z" fill="#E6E6E6"/>
<path d="M82.6908 108.621H62.1119C61.5464 108.62 61.0042 108.395 60.6043 107.995C60.2043 107.595 59.9794 107.053 59.9788 106.488V23.4193C59.9794 22.8537 60.2043 22.3115 60.6043 21.9116C61.0042 21.5117 61.5464 21.2868 62.1119 21.2861H82.6908C83.2563 21.2868 83.7986 21.5117 84.1985 21.9116C84.5984 22.3115 84.8233 22.8537 84.824 23.4193V106.488C84.8233 107.053 84.5984 107.595 84.1985 107.995C83.7986 108.395 83.2563 108.62 82.6908 108.621Z" fill="#CCCCCC"/>
<path d="M70.3998 108.621H49.8209C49.2554 108.62 48.7132 108.395 48.3132 107.995C47.9133 107.595 47.6884 107.053 47.6877 106.488V23.4193C47.6884 22.8537 47.9133 22.3115 48.3132 21.9116C48.7132 21.5117 49.2554 21.2868 49.8209 21.2861H70.3998C70.9653 21.2868 71.5075 21.5117 71.9074 21.9116C72.3074 22.3115 72.5323 22.8537 72.5329 23.4193V106.488C72.5323 107.053 72.3074 107.595 71.9074 107.995C71.5075 108.395 70.9653 108.62 70.3998 108.621Z" fill="#F2F2F2"/>
<path d="M63.1214 22.0325H59.106C58.8066 22.0322 58.5195 21.9131 58.3078 21.7014C58.0961 21.4897 57.977 21.2026 57.9767 20.9032V11.6176C57.977 11.3182 58.0961 11.0311 58.3078 10.8194C58.5195 10.6077 58.8066 10.4886 59.106 10.4883H63.1214C63.4208 10.4886 63.7079 10.6077 63.9196 10.8194C64.1313 11.0311 64.2504 11.3182 64.2507 11.6176V20.9032C64.2504 21.2026 64.1313 21.4897 63.9196 21.7014C63.7079 21.9131 63.4208 22.0322 63.1214 22.0325Z" fill="#F2F2F2"/>
<path d="M57.8505 40.1074H53.0822C52.9159 40.1072 52.7564 40.041 52.6388 39.9234C52.5212 39.8058 52.455 39.6463 52.4548 39.48V32.2021C52.455 32.0358 52.5212 31.8763 52.6388 31.7587C52.7564 31.6411 52.9159 31.5749 53.0822 31.5747H57.8505C58.0168 31.5749 58.1763 31.6411 58.2939 31.7587C58.4116 31.8763 58.4777 32.0358 58.4779 32.2021V39.48C58.4777 39.6463 58.4116 39.8058 58.2939 39.9234C58.1763 40.041 58.0168 40.1072 57.8505 40.1074Z" fill="#3F3D56"/>
<path d="M67.1343 40.1074H62.3661C62.1997 40.1072 62.0402 40.041 61.9226 39.9234C61.805 39.8058 61.7388 39.6463 61.7386 39.48V32.2021C61.7388 32.0358 61.805 31.8763 61.9226 31.7587C62.0402 31.6411 62.1997 31.5749 62.3661 31.5747H67.1343C67.3007 31.5749 67.4601 31.6411 67.5778 31.7587C67.6954 31.8763 67.7615 32.0358 67.7617 32.2021V39.48C67.7615 39.6463 67.6954 39.8058 67.5778 39.9234C67.4601 40.041 67.3007 40.1072 67.1343 40.1074Z" fill="#3F3D56"/>
<path d="M57.8505 53.4077H53.0822C52.9159 53.4075 52.7564 53.3413 52.6388 53.2237C52.5212 53.1061 52.455 52.9466 52.4548 52.7803V45.5024C52.455 45.3361 52.5212 45.1766 52.6388 45.059C52.7564 44.9414 52.9159 44.8752 53.0822 44.875H57.8505C58.0168 44.8752 58.1763 44.9414 58.2939 45.059C58.4116 45.1766 58.4777 45.3361 58.4779 45.5024V52.7803C58.4777 52.9466 58.4116 53.1061 58.2939 53.2237C58.1763 53.3413 58.0168 53.4075 57.8505 53.4077Z" fill="#3F3D56"/>
<path d="M67.1343 53.4077H62.3661C62.1997 53.4075 62.0402 53.3413 61.9226 53.2237C61.805 53.1061 61.7388 52.9466 61.7386 52.7803V45.5024C61.7388 45.3361 61.805 45.1766 61.9226 45.059C62.0402 44.9414 62.1997 44.8752 62.3661 44.875H67.1343C67.3007 44.8752 67.4601 44.9414 67.5778 45.059C67.6954 45.1766 67.7615 45.3361 67.7617 45.5024V52.7803C67.7615 52.9466 67.6954 53.1061 67.5778 53.2237C67.4601 53.3413 67.3007 53.4075 67.1343 53.4077Z" fill="#3F3D56"/>
<path d="M57.8505 66.6997H53.0822C52.9159 66.6995 52.7564 66.6333 52.6388 66.5157C52.5212 66.3981 52.455 66.2386 52.4548 66.0723V58.7944C52.455 58.6281 52.5212 58.4686 52.6388 58.351C52.7564 58.2333 52.9159 58.1672 53.0822 58.167H57.8505C58.0168 58.1672 58.1763 58.2333 58.2939 58.351C58.4116 58.4686 58.4777 58.6281 58.4779 58.7944V66.0723C58.4777 66.2386 58.4116 66.3981 58.2939 66.5157C58.1763 66.6333 58.0168 66.6995 57.8505 66.6997Z" fill="#3F3D56"/>
<path d="M67.1343 66.6997H62.3661C62.1997 66.6995 62.0402 66.6333 61.9226 66.5157C61.805 66.3981 61.7388 66.2386 61.7386 66.0723V58.7944C61.7388 58.6281 61.805 58.4686 61.9226 58.351C62.0402 58.2333 62.1997 58.1672 62.3661 58.167H67.1343C67.3007 58.1672 67.4601 58.2333 67.5778 58.351C67.6954 58.4686 67.7615 58.6281 67.7617 58.7944V66.0723C67.7615 66.2386 67.6954 66.3981 67.5778 66.5157C67.4601 66.6333 67.3007 66.6995 67.1343 66.6997Z" fill="#3F3D56"/>
<path d="M57.8505 80.0161H53.0822C52.9159 80.0159 52.7564 79.9497 52.6388 79.8321C52.5212 79.7145 52.455 79.555 52.4548 79.3887V72.1108C52.455 71.9445 52.5212 71.785 52.6388 71.6674C52.7564 71.5497 52.9159 71.4836 53.0822 71.4834H57.8505C58.0168 71.4836 58.1763 71.5497 58.2939 71.6674C58.4116 71.785 58.4777 71.9445 58.4779 72.1108V79.3887C58.4777 79.555 58.4116 79.7145 58.2939 79.8321C58.1763 79.9497 58.0168 80.0159 57.8505 80.0161Z" fill="#3F3D56"/>
<path d="M67.1343 80.0161H62.3661C62.1997 80.0159 62.0402 79.9497 61.9226 79.8321C61.805 79.7145 61.7388 79.555 61.7386 79.3887V72.1108C61.7388 71.9445 61.805 71.785 61.9226 71.6674C62.0402 71.5497 62.1997 71.4836 62.3661 71.4834H67.1343C67.3007 71.4836 67.4601 71.5497 67.5778 71.6674C67.6954 71.785 67.7615 71.9445 67.7617 72.1108V79.3887C67.7615 79.555 67.6954 79.7145 67.5778 79.8321C67.4601 79.9497 67.3007 80.0159 67.1343 80.0161Z" fill="#3F3D56"/>
<path d="M57.8505 93.3081H53.0822C52.9159 93.3079 52.7564 93.2417 52.6388 93.1241C52.5212 93.0065 52.455 92.847 52.4548 92.6807V85.4028C52.455 85.2365 52.5212 85.077 52.6388 84.9594C52.7564 84.8417 52.9159 84.7756 53.0822 84.7754H57.8505C58.0168 84.7756 58.1763 84.8417 58.2939 84.9594C58.4116 85.077 58.4777 85.2365 58.4779 85.4028V92.6807C58.4777 92.847 58.4116 93.0065 58.2939 93.1241C58.1763 93.2417 58.0168 93.3079 57.8505 93.3081Z" fill="#3F3D56"/>
<path d="M67.1343 93.3081H62.3661C62.1997 93.3079 62.0402 93.2417 61.9226 93.1241C61.805 93.0065 61.7388 92.847 61.7386 92.6807V85.4028C61.7388 85.2365 61.805 85.077 61.9226 84.9594C62.0402 84.8417 62.1997 84.7756 62.3661 84.7754H67.1343C67.3007 84.7756 67.4601 84.8417 67.5778 84.9594C67.6954 85.077 67.7615 85.2365 67.7617 85.4028V92.6807C67.7615 92.847 67.6954 93.0065 67.5778 93.1241C67.4601 93.2417 67.3007 93.3079 67.1343 93.3081Z" fill="#3F3D56"/>
<path d="M113.432 50.7682C112.57 50.7682 111.721 50.557 110.96 50.1531C110.199 49.7491 109.549 49.1647 109.065 48.4511C108.582 47.7375 108.282 46.9162 108.189 46.0594C108.097 45.2026 108.217 44.3363 108.537 43.5363L114.624 28.3286H73V61.8166C73 62.509 73.1364 63.1947 73.4014 63.8344C73.6663 64.4741 74.0547 65.0553 74.5443 65.5449C75.0339 66.0345 75.6152 66.4228 76.2549 66.6878C76.8946 66.9527 77.5801 67.0892 78.2726 67.0891H84.0484C85.4468 67.0891 86.7879 67.6447 87.7767 68.6335C88.7655 69.6223 89.321 70.9633 89.321 72.3617V93.7172C89.321 94.905 89.722 96.058 90.4591 96.9893C91.1962 97.9207 92.2262 98.5758 93.3821 98.8487C94.5381 99.1216 95.7524 98.9962 96.8282 98.4928C97.904 97.9894 98.7782 97.1376 99.3094 96.0752L118.148 58.3987C118.55 57.5949 118.739 56.7016 118.699 55.8038C118.659 54.906 118.389 54.0334 117.917 53.2689C117.444 52.5044 116.784 51.8734 115.999 51.4358C115.214 50.9981 114.331 50.7682 113.432 50.7682Z" fill="#A8CF4E"/>
</svg>
