<svg width="155" height="118" viewBox="0 0 155 118" fill="none" xmlns="http://www.w3.org/2000/svg">
<path d="M105 83H25V106H105V83Z" fill="#E6E6E6"/>
<path d="M70 87H61V106H70V87Z" fill="#A8CF4E"/>
<path d="M100 54H30V76H100V54Z" fill="white"/>
<path d="M108.284 55H22.7162C22.5733 55 22.4337 54.9581 22.3154 54.8796C22.197 54.8011 22.1052 54.6896 22.0518 54.5595C21.9985 54.4294 21.986 54.2866 22.0159 54.1495C22.0459 54.0124 22.1169 53.8872 22.2199 53.79L45.6056 31.7218V22.1094C45.6058 21.923 45.6813 21.7442 45.8156 21.6124C45.9499 21.4806 46.1319 21.4065 46.3218 21.4063H50.9373C51.1272 21.4065 51.3092 21.4806 51.4435 21.6124C51.5778 21.7442 51.6533 21.923 51.6535 22.1094V26.0147L53.4198 24.3478C56.3103 21.6202 60.1453 20.0676 64.154 20.0022C68.1627 19.9367 72.0481 21.3632 75.0294 23.9951L108.763 53.7739C108.87 53.8691 108.946 53.994 108.98 54.1323C109.014 54.2706 109.004 54.4158 108.953 54.5486C108.901 54.6814 108.809 54.7956 108.69 54.8762C108.57 54.9568 108.429 55 108.284 55Z" fill="#3F3D56"/>
<path d="M48.5 59C49.0909 59 49.6761 59.121 50.2221 59.3562C50.768 59.5913 51.2641 59.936 51.682 60.3705C52.0998 60.805 52.4313 61.3208 52.6575 61.8885C52.8836 62.4562 53 63.0646 53 63.6791V70H44V63.6791C44 63.0646 44.1164 62.4562 44.3425 61.8885C44.5687 61.3208 44.9002 60.805 45.318 60.3705C45.7359 59.936 46.232 59.5913 46.7779 59.3562C47.3239 59.121 47.9091 59 48.5 59Z" fill="#A8CF4E"/>
<path d="M65.5 59C66.6935 59 67.8381 59.493 68.682 60.3705C69.5259 61.248 70 62.4381 70 63.6791V70H61V63.6791C61 62.4381 61.4741 61.248 62.318 60.3705C63.1619 59.493 64.3065 59 65.5 59Z" fill="#A8CF4E"/>
<path d="M82.5 60C83.6935 60 84.8381 60.4482 85.682 61.2459C86.5259 62.0436 87 63.1256 87 64.2537V70H78V64.2537C78 63.1256 78.4741 62.0436 79.318 61.2459C80.1619 60.4482 81.3065 60 82.5 60Z" fill="#A8CF4E"/>
<path d="M88 87C89.3261 87 90.5979 87.493 91.5355 88.3705C92.4732 89.248 93 90.4381 93 91.6791V98H83V91.6791C83 90.4381 83.5268 89.248 84.4645 88.3705C85.4022 87.493 86.6739 87 88 87Z" fill="#A8CF4E"/>
<path d="M44 87C45.0609 87 46.0783 87.493 46.8284 88.3705C47.5786 89.248 48 90.4381 48 91.6791V98H40V91.6791C40 91.0646 40.1035 90.4562 40.3045 89.8885C40.5055 89.3208 40.8001 88.805 41.1716 88.3705C41.543 87.936 41.984 87.5913 42.4693 87.3562C42.9546 87.121 43.4747 87 44 87Z" fill="#A8CF4E"/>
<path d="M117.62 81.9173L102.488 75.0559C102.406 75.019 102.318 75 102.23 75H30.1096C30.0273 75 29.9458 75.0163 29.8695 75.0481L13.3975 81.9095C13.2605 81.9666 13.1472 82.0707 13.0768 82.204C13.0064 82.3373 12.9835 82.4915 13.0118 82.6402C13.0402 82.789 13.1182 82.923 13.2323 83.0193C13.3465 83.1156 13.4898 83.1683 13.6377 83.1683H17.9114V105.713H17.4331V108H113.567V105.713H112.77V83.1683H117.362C117.509 83.1683 117.65 83.1168 117.764 83.0224C117.877 82.9281 117.956 82.7966 117.986 82.65C118.016 82.5034 117.997 82.3506 117.93 82.2172C117.863 82.0838 117.754 81.9779 117.62 81.9173ZM111.494 105.713H19.1868V83.1683H111.494V105.713Z" fill="#3F3D56"/>
<path d="M54 69H42V72H54V69Z" fill="#CACACA"/>
<path d="M71 69H59V72H71V69Z" fill="#CACACA"/>
<path d="M88 69H77V72H88V69Z" fill="#CACACA"/>
<path d="M94 97H83V99H94V97Z" fill="#CACACA"/>
<path d="M49 97H38V99H49V97Z" fill="#CACACA"/>
<path d="M14.705 72.7539H13.7637V109.936H14.705V72.7539Z" fill="#3F3D56"/>
<path d="M23.3924 77.4995C24.2409 90.4737 14.3048 101.084 14.3048 101.084C14.3048 101.084 5.06022 90.586 5.00029 77.5842C4.94037 64.5824 14.0878 54 14.0878 54C13.196 57.564 22.7058 67.0018 23.3924 77.4995Z" fill="#A8CF4E"/>
<path d="M126.969 109.851H121.839C121.275 109.851 120.745 109.579 120.417 109.119L117.091 104.462H131.717L128.391 109.119C128.063 109.579 127.533 109.851 126.969 109.851Z" fill="#3F3D56"/>
<path d="M145.842 47.0465L145.662 47.3701C141.251 54.9818 138.802 63.6459 138.579 72.4296C138.53 74.3544 136.988 75.8582 135.063 75.8582H113.167C110.972 75.8582 109.132 74.2873 108.787 72.1198C107.684 65.1874 105.476 58.5083 102.224 52.2691L102.208 52.2381L102.187 52.2097L102.125 52.1218L102.104 52.0928L102.079 52.0671C97.6846 47.4606 95.2698 41.5295 95.2698 35.3659C95.2698 21.5588 107.274 10.2698 122.098 10.2698C136.922 10.2698 148.926 21.5588 148.926 35.3659C148.926 39.4249 147.861 43.4636 145.844 47.0439L145.842 47.0465ZM148.079 46.5935C149.795 43.0897 150.696 39.2384 150.696 35.3659C150.696 20.5219 137.837 8.5 122.098 8.5C106.359 8.5 93.5 20.5219 93.5 35.3659C93.5 41.9525 96.0635 48.28 100.712 53.1968C103.844 59.2357 105.973 65.6951 107.039 72.3979C107.521 75.4269 110.1 77.628 113.167 77.628H135.063C137.951 77.628 140.275 75.3621 140.348 72.4745C140.564 63.9755 142.937 55.5907 147.21 48.2286L147.211 48.2269L147.72 47.3428L148.151 46.5935H148.079Z" fill="white" stroke="#E6E6E6"/>
<path d="M138.088 75.2021H109.179C108.26 75.2021 107.54 75.9914 107.623 76.9068L107.893 79.8842C108.12 82.3759 108.906 84.7843 110.193 86.9297C110.409 87.2884 110.815 87.4849 111.23 87.4348C119.797 86.4023 128.178 86.3685 136.359 87.4199C136.806 87.4774 137.241 87.2487 137.442 86.8451L137.628 86.4746C138.554 84.6212 139.126 82.6109 139.314 80.5473L139.645 76.9068C139.728 75.9914 139.007 75.2021 138.088 75.2021Z" fill="#3F3D56"/>
<path d="M112.091 85.4077H135.763V100.815C135.763 103.57 133.525 105.808 130.77 105.808H117.084C114.328 105.808 112.091 103.57 112.091 100.815V85.4077Z" fill="#3F3D56"/>
<mask id="path-22-outside-1_1_2630" maskUnits="userSpaceOnUse" x="110.995" y="21.5723" width="24" height="36" fill="black">
<rect fill="white" x="110.995" y="21.5723" width="24" height="36"/>
<path d="M130.851 22.6009C127.084 23.3808 123.318 24.1607 119.552 24.9405C117.858 25.2912 115.961 25.4732 114.423 26.3149C112.931 27.1309 111.886 28.8431 112.42 30.5571C112.929 32.1939 114.433 33.2207 116.047 33.5857C117.837 33.9907 119.755 33.9879 121.58 34.1287C123.483 34.2756 125.386 34.4226 127.29 34.5695C128.196 34.6394 129.106 34.6877 130.01 34.7807C130.299 34.8105 130.614 34.8459 130.851 35.0293C130.848 35.0266 130.932 35.0791 130.885 35.0871C130.876 35.0887 130.875 35.0277 130.877 35.0236C130.913 34.9094 130.898 35.0175 130.869 35.0178C130.858 35.0179 130.586 35.1979 130.434 35.2264C130.023 35.3031 129.571 35.2473 129.155 35.2402C128.251 35.2248 127.347 35.2419 126.445 35.2911C124.629 35.3901 122.816 35.6159 121.03 35.958C119.274 36.2946 117.525 36.7427 115.838 37.3395C114.202 37.9182 112.489 39.0172 112.445 40.9562C112.403 42.7773 113.983 44.057 115.592 44.5145C116.419 44.7498 117.291 44.8351 118.14 44.9613C119.087 45.1022 120.034 45.2431 120.981 45.384C122.843 45.661 124.706 45.9381 126.568 46.2151C127.515 46.356 128.462 46.4969 129.409 46.6377C129.851 46.7034 130.295 46.7601 130.735 46.835C130.897 46.8626 131.05 46.9136 131.21 46.9465C131.103 46.9244 131.236 46.9246 131.214 46.9496C131.284 46.9926 131.284 46.9861 131.215 46.9302L131.167 46.8603C131.058 46.5552 131.062 46.515 131.26 46.1543C131.298 46.0854 131.375 46.1565 131.277 46.1456C131.172 46.1341 131.34 46.1325 131.228 46.1786C131.173 46.2016 131.112 46.2173 131.054 46.2333C130.616 46.3546 130.156 46.418 129.71 46.5056C128.782 46.6878 127.854 46.87 126.926 47.0522C125.102 47.4105 123.277 47.7687 121.452 48.1271C118.238 48.7584 114.824 49.6123 112.898 52.5126C112.479 53.1436 112.175 53.8706 112.023 54.6122C111.898 55.2226 112.2 55.8597 112.829 56.0326C113.4 56.1895 114.124 55.84 114.25 55.2262C114.86 52.2469 118.12 51.177 120.801 50.6087C122.578 50.232 124.366 49.9024 126.149 49.5524C127.945 49.1996 129.77 48.9124 131.552 48.4895C132.3 48.3117 133.113 47.8514 133.322 47.0529C133.551 46.1787 133.12 45.3348 132.327 44.9276C131.567 44.537 130.664 44.5062 129.834 44.3826C128.918 44.2465 128.003 44.1103 127.087 43.9741C125.225 43.697 123.363 43.42 121.5 43.1429C120.585 43.0068 119.669 42.8706 118.754 42.7344C117.905 42.6081 117.033 42.5229 116.205 42.2876C115.646 42.1284 115.073 41.8552 114.825 41.322C114.746 41.1501 114.725 41.025 114.779 40.8317C114.854 40.5663 115.062 40.3192 115.293 40.1363C115.827 39.7147 116.548 39.5266 117.182 39.3233C118.014 39.0564 118.855 38.8184 119.703 38.6096C121.386 38.1951 123.098 37.8918 124.824 37.7236C125.723 37.636 126.625 37.5803 127.529 37.5569C128.383 37.5347 129.239 37.5877 130.093 37.5613C131.003 37.5331 131.939 37.2898 132.564 36.5846C133.206 35.8588 133.363 34.8677 132.915 33.9976C132.031 32.2758 129.686 32.445 128.051 32.3188C126.179 32.1743 124.308 32.0299 122.436 31.8854C120.686 31.7503 118.887 31.7219 117.152 31.4525C116.509 31.3528 115.769 31.1692 115.284 30.7863C114.84 30.4353 114.552 29.9752 114.587 29.514C114.62 29.0851 115.058 28.6113 115.517 28.348C116.16 27.9786 116.919 27.8408 117.637 27.691C121.335 26.9201 125.035 26.1591 128.734 25.3932C129.644 25.2048 130.554 25.0163 131.465 24.8278C132.075 24.7013 132.429 23.9808 132.271 23.4074C132.097 22.7731 131.463 22.474 130.851 22.6009Z"/>
</mask>
<path d="M130.851 22.6009C127.084 23.3808 123.318 24.1607 119.552 24.9405C117.858 25.2912 115.961 25.4732 114.423 26.3149C112.931 27.1309 111.886 28.8431 112.42 30.5571C112.929 32.1939 114.433 33.2207 116.047 33.5857C117.837 33.9907 119.755 33.9879 121.58 34.1287C123.483 34.2756 125.386 34.4226 127.29 34.5695C128.196 34.6394 129.106 34.6877 130.01 34.7807C130.299 34.8105 130.614 34.8459 130.851 35.0293C130.848 35.0266 130.932 35.0791 130.885 35.0871C130.876 35.0887 130.875 35.0277 130.877 35.0236C130.913 34.9094 130.898 35.0175 130.869 35.0178C130.858 35.0179 130.586 35.1979 130.434 35.2264C130.023 35.3031 129.571 35.2473 129.155 35.2402C128.251 35.2248 127.347 35.2419 126.445 35.2911C124.629 35.3901 122.816 35.6159 121.03 35.958C119.274 36.2946 117.525 36.7427 115.838 37.3395C114.202 37.9182 112.489 39.0172 112.445 40.9562C112.403 42.7773 113.983 44.057 115.592 44.5145C116.419 44.7498 117.291 44.8351 118.14 44.9613C119.087 45.1022 120.034 45.2431 120.981 45.384C122.843 45.661 124.706 45.9381 126.568 46.2151C127.515 46.356 128.462 46.4969 129.409 46.6377C129.851 46.7034 130.295 46.7601 130.735 46.835C130.897 46.8626 131.05 46.9136 131.21 46.9465C131.103 46.9244 131.236 46.9246 131.214 46.9496C131.284 46.9926 131.284 46.9861 131.215 46.9302L131.167 46.8603C131.058 46.5552 131.062 46.515 131.26 46.1543C131.298 46.0854 131.375 46.1565 131.277 46.1456C131.172 46.1341 131.34 46.1325 131.228 46.1786C131.173 46.2016 131.112 46.2173 131.054 46.2333C130.616 46.3546 130.156 46.418 129.71 46.5056C128.782 46.6878 127.854 46.87 126.926 47.0522C125.102 47.4105 123.277 47.7687 121.452 48.1271C118.238 48.7584 114.824 49.6123 112.898 52.5126C112.479 53.1436 112.175 53.8706 112.023 54.6122C111.898 55.2226 112.2 55.8597 112.829 56.0326C113.4 56.1895 114.124 55.84 114.25 55.2262C114.86 52.2469 118.12 51.177 120.801 50.6087C122.578 50.232 124.366 49.9024 126.149 49.5524C127.945 49.1996 129.77 48.9124 131.552 48.4895C132.3 48.3117 133.113 47.8514 133.322 47.0529C133.551 46.1787 133.12 45.3348 132.327 44.9276C131.567 44.537 130.664 44.5062 129.834 44.3826C128.918 44.2465 128.003 44.1103 127.087 43.9741C125.225 43.697 123.363 43.42 121.5 43.1429C120.585 43.0068 119.669 42.8706 118.754 42.7344C117.905 42.6081 117.033 42.5229 116.205 42.2876C115.646 42.1284 115.073 41.8552 114.825 41.322C114.746 41.1501 114.725 41.025 114.779 40.8317C114.854 40.5663 115.062 40.3192 115.293 40.1363C115.827 39.7147 116.548 39.5266 117.182 39.3233C118.014 39.0564 118.855 38.8184 119.703 38.6096C121.386 38.1951 123.098 37.8918 124.824 37.7236C125.723 37.636 126.625 37.5803 127.529 37.5569C128.383 37.5347 129.239 37.5877 130.093 37.5613C131.003 37.5331 131.939 37.2898 132.564 36.5846C133.206 35.8588 133.363 34.8677 132.915 33.9976C132.031 32.2758 129.686 32.445 128.051 32.3188C126.179 32.1743 124.308 32.0299 122.436 31.8854C120.686 31.7503 118.887 31.7219 117.152 31.4525C116.509 31.3528 115.769 31.1692 115.284 30.7863C114.84 30.4353 114.552 29.9752 114.587 29.514C114.62 29.0851 115.058 28.6113 115.517 28.348C116.16 27.9786 116.919 27.8408 117.637 27.691C121.335 26.9201 125.035 26.1591 128.734 25.3932C129.644 25.2048 130.554 25.0163 131.465 24.8278C132.075 24.7013 132.429 23.9808 132.271 23.4074C132.097 22.7731 131.463 22.474 130.851 22.6009Z" fill="#A8CF4E"/>
<path d="M130.851 22.6009L130.648 21.6217V21.6217L130.851 22.6009ZM119.552 24.9405L119.754 25.9198L119.552 24.9405ZM114.423 26.3149L113.943 25.4376L113.943 25.4376L114.423 26.3149ZM112.42 30.5571L113.374 30.2598V30.2598L112.42 30.5571ZM116.047 33.5857L116.268 32.6104H116.268L116.047 33.5857ZM121.58 34.1287L121.657 33.1317H121.657L121.58 34.1287ZM127.29 34.5695L127.213 35.5665H127.213L127.29 34.5695ZM130.01 34.7807L129.907 35.7755L130.01 34.7807ZM130.851 35.0293L130.24 35.8206L131.463 34.2382L130.851 35.0293ZM130.885 35.0871L130.714 34.1019L130.714 34.1019L130.885 35.0871ZM130.877 35.0236L131.829 35.3296L131.829 35.3294L130.877 35.0236ZM130.869 35.0178L130.859 34.0178L130.859 34.0178L130.869 35.0178ZM130.434 35.2264L130.25 34.2434L130.25 34.2434L130.434 35.2264ZM129.155 35.2402L129.138 36.2401L129.155 35.2402ZM126.445 35.2911L126.391 34.2925H126.391L126.445 35.2911ZM121.03 35.958L121.218 36.9402H121.218L121.03 35.958ZM115.838 37.3395L115.505 36.3968L115.505 36.3968L115.838 37.3395ZM112.445 40.9562L111.445 40.9332L112.445 40.9562ZM115.592 44.5145L115.318 45.4764H115.318L115.592 44.5145ZM118.14 44.9613L118.287 43.9722L118.14 44.9613ZM120.981 45.384L120.834 46.3731H120.834L120.981 45.384ZM126.568 46.2151L126.715 45.226H126.715L126.568 46.2151ZM129.409 46.6377L129.556 45.6486H129.556L129.409 46.6377ZM130.735 46.835L130.903 45.8491L130.735 46.835ZM131.214 46.9496L130.463 46.289L129.678 47.1813L130.692 47.8023L131.214 46.9496ZM131.215 46.9302L130.388 47.4928L130.472 47.6167L130.589 47.7105L131.215 46.9302ZM131.167 46.8603L130.225 47.1959L130.268 47.3168L130.34 47.4229L131.167 46.8603ZM131.26 46.1543L132.137 46.636L132.137 46.636L131.26 46.1543ZM131.277 46.1456L131.387 45.1517L131.387 45.1517L131.277 46.1456ZM131.228 46.1786L131.61 47.1029L131.61 47.1029L131.228 46.1786ZM131.054 46.2333L130.787 45.2695L130.787 45.2695L131.054 46.2333ZM129.71 46.5056L129.903 47.4869L129.903 47.4869L129.71 46.5056ZM126.926 47.0522L127.119 48.0335L126.926 47.0522ZM121.452 48.1271L121.259 47.1458L121.259 47.1458L121.452 48.1271ZM112.898 52.5126L113.731 53.0659H113.731L112.898 52.5126ZM112.023 54.6122L113.002 54.8129H113.002L112.023 54.6122ZM112.829 56.0326L112.564 56.9969H112.564L112.829 56.0326ZM114.25 55.2262L115.229 55.4268L115.229 55.4268L114.25 55.2262ZM120.801 50.6087L121.008 51.587H121.008L120.801 50.6087ZM126.149 49.5524L125.956 48.5711V48.5711L126.149 49.5524ZM131.552 48.4895L131.321 47.5166L131.552 48.4895ZM133.322 47.0529L134.289 47.3065V47.3065L133.322 47.0529ZM132.327 44.9276L132.785 44.0382L132.785 44.0382L132.327 44.9276ZM129.834 44.3826L129.686 45.3718H129.687L129.834 44.3826ZM127.087 43.9741L127.234 42.985L127.087 43.9741ZM121.5 43.1429L121.353 44.1321H121.353L121.5 43.1429ZM118.754 42.7344L118.901 41.7453L118.901 41.7453L118.754 42.7344ZM116.205 42.2876L115.932 43.2494H115.932L116.205 42.2876ZM114.825 41.322L113.918 41.7429L113.918 41.7429L114.825 41.322ZM114.779 40.8317L115.742 41.1028L115.742 41.1028L114.779 40.8317ZM115.293 40.1363L114.673 39.3519L114.673 39.3519L115.293 40.1363ZM117.182 39.3233L117.488 40.2754L117.488 40.2754L117.182 39.3233ZM119.703 38.6096L119.942 39.5806H119.942L119.703 38.6096ZM124.824 37.7236L124.921 38.7189L124.824 37.7236ZM127.529 37.5569L127.503 36.5572H127.503L127.529 37.5569ZM130.093 37.5613L130.062 36.5617H130.062L130.093 37.5613ZM132.564 36.5846L131.815 35.9216L132.564 36.5846ZM132.915 33.9976L132.026 34.4548L132.026 34.4548L132.915 33.9976ZM128.051 32.3188L128.128 31.3218L128.051 32.3188ZM122.436 31.8854L122.359 32.8824H122.359L122.436 31.8854ZM117.152 31.4525L116.999 32.4407H116.999L117.152 31.4525ZM115.284 30.7863L114.664 31.5709L114.664 31.5709L115.284 30.7863ZM114.587 29.514L113.59 29.4377V29.4377L114.587 29.514ZM115.517 28.348L116.015 29.2152L116.015 29.2152L115.517 28.348ZM117.637 27.691L117.433 26.712L117.433 26.712L117.637 27.691ZM128.734 25.3932L128.531 24.414L128.531 24.414L128.734 25.3932ZM131.465 24.8278L131.667 25.8071L131.667 25.8071L131.465 24.8278ZM132.271 23.4074L131.307 23.6724V23.6724L132.271 23.4074ZM130.648 21.6217C128.765 22.0116 126.881 22.4016 124.998 22.7915C123.115 23.1814 121.232 23.5714 119.349 23.9613L119.754 25.9198C121.638 25.5298 123.521 25.1399 125.404 24.7499C127.287 24.36 129.17 23.9701 131.053 23.5801L130.648 21.6217ZM119.349 23.9613C118.941 24.0457 118.521 24.1201 118.074 24.2008C117.634 24.2804 117.173 24.3653 116.713 24.4673C115.796 24.6704 114.832 24.9511 113.943 25.4376L114.902 27.1922C115.552 26.837 116.306 26.6059 117.145 26.4199C117.563 26.3273 117.99 26.2484 118.43 26.1689C118.864 26.0905 119.315 26.0107 119.754 25.9198L119.349 23.9613ZM113.943 25.4376C112.174 26.4047 110.746 28.5476 111.465 30.8544L113.374 30.2598C113.025 29.1386 113.687 27.8571 114.902 27.1922L113.943 25.4376ZM111.465 30.8544C112.113 32.9375 113.988 34.1451 115.826 34.5611L116.268 32.6104C114.879 32.2963 113.745 31.4503 113.374 30.2598L111.465 30.8544ZM115.826 34.5611C117.711 34.9874 119.787 34.9933 121.503 35.1257L121.657 33.1317C119.722 32.9824 117.963 32.994 116.268 32.6104L115.826 34.5611ZM121.503 35.1257C122.454 35.1992 123.406 35.2727 124.358 35.3461C125.309 35.4196 126.261 35.493 127.213 35.5665L127.367 33.5724C126.415 33.499 125.463 33.4255 124.512 33.3521C123.56 33.2786 122.608 33.2051 121.657 33.1317L121.503 35.1257ZM127.213 35.5665C128.152 35.639 129.019 35.684 129.907 35.7755L130.112 33.786C129.193 33.6914 128.239 33.6398 127.367 33.5724L127.213 35.5665ZM129.907 35.7755C130.059 35.7911 130.144 35.8019 130.211 35.8186C130.272 35.8335 130.267 35.8417 130.24 35.8206L131.463 34.238C130.963 33.8518 130.348 33.8103 130.112 33.786L129.907 35.7755ZM131.463 34.2382C131.47 34.2439 131.485 34.2551 131.502 34.2701C131.509 34.2763 131.56 34.3189 131.614 34.3827C131.629 34.401 131.663 34.4451 131.681 34.4712C131.705 34.5091 131.758 34.6076 131.784 34.6689C131.817 34.768 131.851 35.0326 131.837 35.1951C131.776 35.4087 131.529 35.7646 131.357 35.8919C131.221 35.9583 130.983 36.0206 130.887 36.0286C130.825 36.0289 130.722 36.0208 130.68 36.0145C130.601 36.0007 130.541 35.98 130.519 35.9723C130.468 35.9543 130.43 35.936 130.419 35.9309C130.403 35.9231 130.39 35.9164 130.383 35.9126C130.368 35.9048 130.357 35.8983 130.351 35.8953C130.332 35.8844 130.318 35.8754 130.316 35.8735C130.304 35.8664 130.295 35.8599 130.287 35.8542C130.275 35.846 130.241 35.8221 130.2 35.7835C130.18 35.7645 130.139 35.7247 130.095 35.6665C130.062 35.6223 129.964 35.487 129.92 35.2806C129.896 35.1664 129.885 35.0118 129.928 34.838C129.973 34.6576 130.065 34.502 130.183 34.3817C130.396 34.1644 130.638 34.1151 130.714 34.1019L131.056 36.0724C131.144 36.0572 131.393 36.0044 131.61 35.7827C131.731 35.6602 131.824 35.5022 131.87 35.3191C131.913 35.1426 131.902 34.9852 131.877 34.868C131.833 34.6556 131.731 34.5136 131.692 34.4626C131.643 34.3975 131.596 34.3508 131.568 34.3248C131.513 34.2725 131.462 34.2354 131.437 34.218C131.422 34.2075 131.407 34.1974 131.392 34.1878C131.387 34.1848 131.372 34.175 131.352 34.1635C131.347 34.1604 131.335 34.1539 131.32 34.146C131.313 34.1421 131.3 34.1354 131.284 34.1276C131.273 34.1225 131.235 34.1042 131.184 34.0862C131.162 34.0784 131.102 34.0578 131.022 34.044C130.981 34.0376 130.877 34.0296 130.815 34.0299C130.72 34.0379 130.481 34.1001 130.346 34.1665C130.174 34.2939 129.926 34.6498 129.865 34.8633C129.851 35.0259 129.886 35.2904 129.918 35.3895C129.944 35.4509 129.997 35.5493 130.021 35.5873C130.04 35.6134 130.073 35.6575 130.088 35.6758C130.142 35.7396 130.193 35.7823 130.2 35.7884C130.218 35.8035 130.232 35.8148 130.24 35.8205L131.463 34.2382ZM130.714 34.1019C131.017 34.0492 131.284 34.1431 131.467 34.2743C131.625 34.3878 131.71 34.5189 131.747 34.5828C131.821 34.7096 131.847 34.8216 131.853 34.8466C131.87 34.9202 131.874 34.9763 131.874 34.9833C131.876 35.0015 131.876 35.017 131.876 35.031C131.876 35.0377 131.876 35.0516 131.875 35.07C131.875 35.0784 131.874 35.0969 131.872 35.1206C131.871 35.1323 131.869 35.153 131.864 35.1788C131.862 35.1957 131.852 35.2557 131.829 35.3296L129.925 34.7177C129.901 34.7918 129.891 34.8522 129.889 34.8696C129.884 34.8958 129.882 34.9171 129.881 34.9295C129.879 34.9546 129.878 34.9748 129.877 34.9852C129.876 35.0078 129.876 35.027 129.876 35.04C129.876 35.0666 129.877 35.098 129.88 35.1317C129.881 35.1543 129.887 35.2256 129.907 35.3103C129.914 35.3408 129.942 35.4573 130.017 35.5872C130.057 35.6555 130.386 36.1888 131.056 36.0724L130.714 34.1019ZM131.829 35.3294C131.84 35.2939 131.82 35.368 131.77 35.459C131.765 35.4669 131.704 35.5851 131.583 35.6988C131.545 35.735 131.329 35.9427 130.97 35.9686C130.754 35.9842 130.528 35.9297 130.335 35.7976C130.157 35.6763 130.058 35.526 130.007 35.4255C129.914 35.2434 129.903 35.081 129.9 35.0371C129.896 34.9702 129.899 34.9167 129.902 34.8876C129.907 34.8276 129.917 34.7811 129.922 34.7576C129.941 34.6743 129.973 34.5834 130.029 34.4903C130.057 34.4428 130.118 34.3502 130.223 34.2586C130.328 34.167 130.545 34.0207 130.859 34.0178L130.878 36.0177C131.199 36.0148 131.423 35.8651 131.535 35.7679C131.647 35.6708 131.713 35.5706 131.746 35.5147C131.812 35.4049 131.851 35.2941 131.873 35.1979C131.879 35.1712 131.889 35.122 131.894 35.0599C131.897 35.0297 131.9 34.9753 131.896 34.9076C131.893 34.863 131.882 34.7 131.789 34.5175C131.738 34.4169 131.639 34.2664 131.461 34.145C131.267 34.0128 131.041 33.9582 130.826 33.9738C130.466 33.9999 130.249 34.2078 130.211 34.2444C130.089 34.3591 130.026 34.4792 130.02 34.49C129.963 34.5929 129.931 34.6962 129.924 34.7179L131.829 35.3294ZM130.859 34.0178C130.776 34.0186 130.71 34.0296 130.672 34.0372C130.632 34.0453 130.599 34.0546 130.576 34.0614C130.533 34.0747 130.499 34.0882 130.482 34.0955C130.446 34.1102 130.419 34.124 130.409 34.1294C130.385 34.1416 130.365 34.1529 130.358 34.157C130.341 34.1666 130.32 34.1788 130.31 34.1851C130.281 34.202 130.253 34.2186 130.223 34.235C130.192 34.252 130.17 34.2625 130.159 34.2676C130.137 34.2775 130.174 34.2575 130.25 34.2434L130.617 36.2094C130.7 36.194 130.771 36.1723 130.823 36.154C130.878 36.135 130.928 36.1146 130.969 36.096C131.052 36.0593 131.128 36.0195 131.186 35.9879C131.244 35.9557 131.296 35.9255 131.326 35.9077C131.334 35.9029 131.339 35.8998 131.344 35.897C131.349 35.8941 131.35 35.8935 131.349 35.8942C131.348 35.8946 131.345 35.8961 131.341 35.8983C131.338 35.9003 131.33 35.9047 131.319 35.9102C131.311 35.9143 131.286 35.927 131.252 35.9411C131.236 35.948 131.203 35.9613 131.16 35.9744C131.138 35.9811 131.105 35.9903 131.064 35.9984C131.027 36.0059 130.961 36.017 130.878 36.0177L130.859 34.0178ZM130.25 34.2434C130.146 34.2627 130.012 34.2697 129.82 34.265C129.726 34.2627 129.63 34.2581 129.519 34.2529C129.413 34.2479 129.293 34.2424 129.172 34.2403L129.138 36.2401C129.225 36.2415 129.317 36.2456 129.425 36.2507C129.529 36.2556 129.65 36.2615 129.772 36.2644C130.013 36.2703 130.31 36.2667 130.617 36.2094L130.25 34.2434ZM129.172 34.2403C128.244 34.2246 127.317 34.2421 126.391 34.2925L126.5 36.2896C127.378 36.2417 128.258 36.2251 129.138 36.2401L129.172 34.2403ZM126.391 34.2925C124.529 34.3941 122.671 34.6256 120.842 34.9759L121.218 36.9402C122.962 36.6062 124.73 36.3861 126.5 36.2896L126.391 34.2925ZM120.842 34.9759C119.046 35.3201 117.247 35.7802 115.505 36.3968L116.172 38.2823C117.803 37.7051 119.502 37.2691 121.218 36.9402L120.842 34.9759ZM115.505 36.3968C113.822 36.9922 111.505 38.3059 111.445 40.9332L113.444 40.9791C113.473 39.7284 114.583 38.8443 116.172 38.2823L115.505 36.3968ZM111.445 40.9332C111.388 43.4213 113.515 44.9636 115.318 45.4764L115.865 43.5526C114.451 43.1504 113.418 42.1332 113.444 40.9791L111.445 40.9332ZM115.318 45.4764C116.228 45.7351 117.212 45.8343 117.993 45.9505L118.287 43.9722C117.37 43.8358 116.61 43.7644 115.865 43.5526L115.318 45.4764ZM117.993 45.9505C118.466 46.0209 118.94 46.0913 119.413 46.1618C119.887 46.2322 120.36 46.3026 120.834 46.3731L121.128 44.3948C120.655 44.3244 120.181 44.254 119.708 44.1835C119.234 44.1131 118.761 44.0427 118.287 43.9722L117.993 45.9505ZM120.834 46.3731C122.696 46.6501 124.559 46.9272 126.421 47.2042L126.715 45.226C124.853 44.949 122.99 44.6719 121.128 44.3948L120.834 46.3731ZM126.421 47.2042C126.894 47.2747 127.368 47.3451 127.841 47.4155C128.315 47.486 128.788 47.5564 129.262 47.6269L129.556 45.6486C129.083 45.5782 128.609 45.5078 128.136 45.4373C127.662 45.3669 127.189 45.2964 126.715 45.226L126.421 47.2042ZM129.262 47.6269C129.733 47.6969 130.139 47.7479 130.567 47.8208L130.903 45.8491C130.451 45.7722 129.969 45.71 129.556 45.6486L129.262 47.6269ZM130.567 47.8208C130.603 47.8269 130.646 47.837 130.723 47.8569C130.789 47.8739 130.898 47.9032 131.009 47.926L131.411 45.9669C131.363 45.9569 131.315 45.9442 131.224 45.9206C131.144 45.8999 131.029 45.8707 130.903 45.8491L130.567 47.8208ZM131.411 45.9669C131.413 45.9672 131.438 45.9723 131.475 45.9835C131.492 45.9889 131.529 46.0007 131.574 46.0205C131.599 46.0313 131.719 46.083 131.842 46.1949C131.904 46.2514 132.033 46.3819 132.109 46.5956C132.201 46.851 132.189 47.1506 132.044 47.4147C131.921 47.6372 131.75 47.7514 131.666 47.7995C131.573 47.8526 131.491 47.8793 131.446 47.8923C131.355 47.9184 131.282 47.9252 131.251 47.9276C131.212 47.9306 131.179 47.9307 131.156 47.9301C131.11 47.929 131.065 47.9244 131.023 47.9169C130.985 47.9103 130.912 47.8955 130.826 47.8597C130.782 47.8414 130.712 47.8089 130.635 47.7542C130.561 47.7021 130.44 47.601 130.345 47.4323C130.239 47.2443 130.187 47.0072 130.234 46.7593C130.277 46.5324 130.387 46.3757 130.463 46.289L131.965 47.6102C132.044 47.5204 132.156 47.3608 132.199 47.1311C132.247 46.8805 132.194 46.6409 132.087 46.4504C131.991 46.2794 131.867 46.1762 131.791 46.1221C131.711 46.0654 131.638 46.0311 131.59 46.0113C131.495 45.9723 131.414 45.955 131.366 45.9467C131.313 45.9375 131.259 45.932 131.204 45.9307C131.177 45.93 131.14 45.9302 131.098 45.9334C131.064 45.936 130.987 45.9433 130.894 45.9701C130.848 45.9834 130.765 46.0104 130.672 46.0639C130.587 46.1124 130.415 46.2271 130.292 46.45C130.146 46.7146 130.135 47.0148 130.227 47.2708C130.303 47.485 130.432 47.6162 130.495 47.6733C130.619 47.7866 130.743 47.8398 130.771 47.8524C130.82 47.8739 130.862 47.8875 130.886 47.895C130.936 47.9103 130.981 47.9202 131.009 47.926L131.411 45.9669ZM130.692 47.8023C130.713 47.8152 130.751 47.8383 130.793 47.8601C130.804 47.8659 130.866 47.8987 130.948 47.9259C130.966 47.932 131.11 47.9835 131.3 47.977C131.397 47.9737 131.633 47.9524 131.867 47.7774C132.15 47.5651 132.26 47.2568 132.267 47.001C132.272 46.7911 132.209 46.6351 132.182 46.5733C132.149 46.4988 132.114 46.4438 132.094 46.414C132.053 46.3545 132.015 46.3122 132 46.2954C131.965 46.2575 131.934 46.2292 131.921 46.2182C131.892 46.1916 131.861 46.167 131.84 46.1498L130.589 47.7105C130.603 47.7213 130.599 47.7184 130.586 47.7075C130.583 47.7043 130.558 47.6822 130.527 47.6491C130.514 47.6346 130.478 47.5943 130.438 47.5363C130.419 47.5074 130.384 47.453 130.351 47.3791C130.324 47.318 130.262 47.1625 130.267 46.9529C130.273 46.6976 130.384 46.3895 130.667 46.1774C130.9 46.0027 131.136 45.9815 131.232 45.9782C131.42 45.9717 131.563 46.0229 131.579 46.0283C131.657 46.054 131.712 46.0838 131.714 46.085C131.739 46.0977 131.751 46.1055 131.737 46.097L130.692 47.8023ZM132.041 46.3675L131.994 46.2976L130.34 47.4229L130.388 47.4928L132.041 46.3675ZM132.109 46.5247C132.096 46.489 132.089 46.4675 132.084 46.4526C132.08 46.438 132.081 46.4396 132.083 46.4513C132.086 46.4643 132.092 46.492 132.094 46.5302C132.097 46.5701 132.096 46.6132 132.09 46.6572C132.079 46.7435 132.054 46.7942 132.06 46.7826C132.062 46.7774 132.068 46.764 132.082 46.7377C132.095 46.7115 132.113 46.6792 132.137 46.636L130.384 45.6726C130.312 45.8029 130.148 46.0803 130.107 46.3991C130.059 46.7684 130.184 47.0803 130.225 47.1959L132.109 46.5247ZM132.137 46.636C131.914 47.0407 131.309 47.3227 130.765 46.9602C130.647 46.8815 130.398 46.6739 130.337 46.2919C130.261 45.8143 130.532 45.4691 130.759 45.3146C130.95 45.1849 131.132 45.1592 131.2 45.152C131.286 45.1428 131.352 45.1479 131.387 45.1517L131.167 47.1396C131.227 47.1461 131.312 47.1514 131.413 47.1406C131.495 47.1318 131.686 47.1029 131.883 46.9692C132.116 46.8106 132.389 46.4604 132.313 45.978C132.251 45.5912 131.998 45.3788 131.874 45.2962C131.307 44.918 130.644 45.199 130.384 45.6726L132.137 46.636ZM131.387 45.1517C131.388 45.1518 131.392 45.1523 131.399 45.1532C131.405 45.1541 131.417 45.1559 131.434 45.1589C131.446 45.1612 131.481 45.1679 131.526 45.1812C131.547 45.1873 131.594 45.2017 131.651 45.2275C131.68 45.2404 131.729 45.264 131.786 45.301C131.832 45.331 131.947 45.4095 132.05 45.5509C132.105 45.6269 132.171 45.741 132.21 45.892C132.25 46.0508 132.254 46.2293 132.204 46.4085C132.107 46.7552 131.865 46.9294 131.765 46.9906C131.653 47.0596 131.553 47.0902 131.508 47.1028C131.454 47.1177 131.409 47.1252 131.381 47.1291C131.285 47.1427 131.21 47.1384 131.189 47.1373C131.126 47.1337 131.063 47.124 131 47.1072C130.966 47.0983 130.92 47.0842 130.867 47.0616C130.817 47.0403 130.739 47.0018 130.653 46.9358C130.57 46.871 130.443 46.7514 130.357 46.5599C130.262 46.3493 130.244 46.1153 130.301 45.898C130.353 45.7013 130.452 45.5667 130.518 45.4927C130.586 45.4167 130.651 45.3674 130.69 45.3402C130.767 45.2874 130.83 45.261 130.847 45.2543L131.61 47.1029C131.654 47.0846 131.737 47.0482 131.826 46.9867C131.872 46.9552 131.942 46.9019 132.012 46.8222C132.082 46.7445 132.183 46.6066 132.235 46.4067C132.262 46.3038 132.275 46.1896 132.265 46.0689C132.255 45.948 132.224 45.836 132.179 45.7365C132.092 45.5425 131.963 45.4207 131.877 45.354C131.789 45.286 131.707 45.2458 131.654 45.223C131.598 45.199 131.549 45.1837 131.511 45.1738C131.44 45.155 131.37 45.1443 131.301 45.1404C131.282 45.1394 131.258 45.1385 131.23 45.1389C131.205 45.1392 131.159 45.1407 131.102 45.1487C131.074 45.1527 131.029 45.1602 130.975 45.1751C130.929 45.1878 130.829 45.2185 130.717 45.2876C130.617 45.3489 130.375 45.5232 130.278 45.87C130.228 46.0492 130.232 46.2278 130.272 46.3866C130.311 46.5377 130.377 46.6519 130.433 46.728C130.488 46.8042 130.544 46.859 130.586 46.8949C130.628 46.9317 130.667 46.9591 130.697 46.9783C130.754 47.0154 130.803 47.0392 130.832 47.0523C130.891 47.0784 130.939 47.0932 130.961 47.0997C131.009 47.1138 131.048 47.1215 131.066 47.1248C131.106 47.1323 131.142 47.1368 131.167 47.1396L131.387 45.1517ZM130.847 45.2543C130.861 45.2482 130.867 45.247 130.855 45.2506C130.85 45.2523 130.842 45.2545 130.83 45.2577C130.825 45.2593 130.818 45.261 130.811 45.263C130.804 45.2649 130.796 45.2672 130.787 45.2695L131.321 47.1971C131.35 47.1889 131.484 47.155 131.61 47.1029L130.847 45.2543ZM130.787 45.2695C130.396 45.3778 130.041 45.4216 129.517 45.5244L129.903 47.4869C130.272 47.4144 130.835 47.3315 131.321 47.1971L130.787 45.2695ZM129.517 45.5244C129.053 45.6155 128.589 45.7066 128.125 45.7977C127.662 45.8887 127.198 45.9798 126.734 46.0709L127.119 48.0335C127.583 47.9424 128.047 47.8513 128.511 47.7602C128.975 47.6691 129.439 47.578 129.903 47.4869L129.517 45.5244ZM126.734 46.0709C124.909 46.4292 123.084 46.7874 121.259 47.1458L121.645 49.1083C123.47 48.7499 125.294 48.3918 127.119 48.0335L126.734 46.0709ZM121.259 47.1458C118.085 47.7693 114.249 48.6701 112.065 51.9594L113.731 53.0659C115.399 50.5545 118.391 49.7475 121.645 49.1083L121.259 47.1458ZM112.065 51.9594C111.575 52.6961 111.221 53.5426 111.043 54.4116L113.002 54.8129C113.128 54.1985 113.382 53.591 113.731 53.0659L112.065 51.9594ZM111.043 54.4116C110.833 55.4345 111.331 56.6581 112.564 56.9969L113.094 55.0684C113.071 55.0619 113.059 55.0539 113.052 55.0483C113.044 55.0418 113.033 55.031 113.023 55.0121C113.001 54.9715 112.984 54.8999 113.002 54.8129L111.043 54.4116ZM112.564 56.9969C113.126 57.1514 113.714 57.0504 114.181 56.7986C114.654 56.5438 115.095 56.081 115.229 55.4268L113.27 55.0255C113.278 54.9851 113.295 55.004 113.232 55.0382C113.203 55.0536 113.171 55.0641 113.14 55.0682C113.126 55.0701 113.114 55.0703 113.106 55.0698C113.098 55.0694 113.094 55.0683 113.094 55.0684L112.564 56.9969ZM115.229 55.4268C115.46 54.301 116.185 53.496 117.25 52.8785C118.335 52.2494 119.694 51.8656 121.008 51.587L120.593 49.6305C119.227 49.9202 117.615 50.3555 116.247 51.1482C114.86 51.9525 113.65 53.1721 113.27 55.0255L115.229 55.4268ZM121.008 51.587C122.776 51.2123 124.543 50.8867 126.341 50.5337L125.956 48.5711C124.189 48.9181 122.38 49.2518 120.593 49.6305L121.008 51.587ZM126.341 50.5337C128.085 50.1912 129.979 49.8908 131.783 49.4625L131.321 47.5166C129.562 47.9341 127.805 48.208 125.956 48.5711L126.341 50.5337ZM131.783 49.4625C132.654 49.2555 133.938 48.6481 134.289 47.3065L132.355 46.7993C132.288 47.0546 131.946 47.368 131.321 47.5166L131.783 49.4625ZM134.289 47.3065C134.649 45.9334 133.951 44.6375 132.785 44.0382L131.87 45.817C132.289 46.0321 132.453 46.424 132.355 46.7993L134.289 47.3065ZM132.785 44.0382C132.274 43.7759 131.744 43.6487 131.274 43.569C131.038 43.529 130.804 43.499 130.589 43.4725C130.368 43.4452 130.173 43.4221 129.981 43.3935L129.687 45.3718C129.91 45.405 130.139 45.432 130.344 45.4574C130.556 45.4836 130.751 45.509 130.94 45.5409C131.319 45.6051 131.621 45.6887 131.87 45.817L132.785 44.0382ZM129.981 43.3935C129.523 43.3254 129.065 43.2573 128.608 43.1893C128.15 43.1212 127.692 43.0531 127.234 42.985L126.94 44.9632C127.398 45.0313 127.856 45.0994 128.313 45.1675C128.771 45.2356 129.229 45.3037 129.686 45.3718L129.981 43.3935ZM127.234 42.985C125.372 42.7079 123.51 42.4309 121.647 42.1538L121.353 44.1321C123.215 44.4091 125.078 44.6862 126.94 44.9632L127.234 42.985ZM121.647 42.1538C121.19 42.0857 120.732 42.0177 120.274 41.9496C119.816 41.8815 119.359 41.8134 118.901 41.7453L118.607 43.7235C119.064 43.7916 119.522 43.8597 119.98 43.9278C120.438 43.9959 120.895 44.064 121.353 44.1321L121.647 42.1538ZM118.901 41.7453C117.984 41.6089 117.224 41.5375 116.479 41.3257L115.932 43.2494C116.842 43.5082 117.826 43.6074 118.607 43.7235L118.901 41.7453ZM116.479 41.3257C116.25 41.2605 116.067 41.1849 115.934 41.1005C115.806 41.0197 115.755 40.9509 115.732 40.9012L113.918 41.7429C114.361 42.6986 115.322 43.076 115.932 43.2494L116.479 41.3257ZM115.732 40.9012C115.717 40.867 115.738 40.9041 115.746 40.9777C115.75 41.0141 115.749 41.047 115.747 41.073C115.744 41.0972 115.74 41.1086 115.742 41.1028L113.817 40.5606C113.764 40.7471 113.733 40.958 113.758 41.1921C113.782 41.4195 113.854 41.6051 113.918 41.7429L115.732 40.9012ZM115.742 41.1028C115.737 41.1212 115.738 41.1055 115.772 41.061C115.804 41.0184 115.853 40.9686 115.914 40.9207L114.673 39.3519C114.355 39.603 113.971 40.0131 113.817 40.5606L115.742 41.1028ZM115.914 40.9207C116.266 40.6417 116.755 40.5106 117.488 40.2754L116.877 38.3711C116.342 38.5426 115.387 38.7877 114.673 39.3519L115.914 40.9207ZM117.488 40.2754C118.297 40.0157 119.116 39.7839 119.942 39.5806L119.464 37.6386C118.593 37.8529 117.73 38.0972 116.877 38.3711L117.488 40.2754ZM119.942 39.5806C121.583 39.1766 123.247 38.882 124.921 38.7189L124.727 36.7283C122.949 36.9015 121.19 37.2136 119.464 37.6386L119.942 39.5806ZM124.921 38.7189C125.796 38.6336 126.675 38.5794 127.554 38.5566L127.503 36.5572C126.576 36.5813 125.65 36.6384 124.727 36.7283L124.921 38.7189ZM127.554 38.5566C127.956 38.5461 128.362 38.5533 128.794 38.5605C129.219 38.5677 129.67 38.5748 130.124 38.5608L130.062 36.5617C129.663 36.5741 129.258 36.568 128.828 36.5608C128.405 36.5537 127.955 36.5455 127.503 36.5572L127.554 38.5566ZM130.124 38.5608C131.157 38.5288 132.424 38.2506 133.312 37.2476L131.815 35.9216C131.454 36.3291 130.849 36.5374 130.062 36.5617L130.124 38.5608ZM133.312 37.2476C134.211 36.2327 134.452 34.8 133.805 33.5405L132.026 34.4548C132.273 34.9354 132.202 35.4848 131.815 35.9216L133.312 37.2476ZM133.805 33.5405C133.165 32.2958 132.009 31.7988 130.969 31.5811C129.986 31.3752 128.817 31.375 128.128 31.3218L127.974 33.3158C128.92 33.3888 129.741 33.3672 130.559 33.5386C131.322 33.6983 131.781 33.9776 132.026 34.4548L133.805 33.5405ZM128.128 31.3218C127.192 31.2495 126.256 31.1773 125.321 31.1051C124.385 31.0328 123.449 30.9606 122.513 30.8884L122.359 32.8824C123.295 32.9547 124.231 33.0269 125.167 33.0991C126.102 33.1714 127.038 33.2436 127.974 33.3158L128.128 31.3218ZM122.513 30.8884C120.678 30.7467 118.992 30.7262 117.305 30.4644L116.999 32.4407C118.782 32.7175 120.695 32.7539 122.359 32.8824L122.513 30.8884ZM117.305 30.4644C116.678 30.367 116.169 30.2104 115.904 30.0017L114.664 31.5709C115.369 32.1279 116.341 32.3386 116.999 32.4407L117.305 30.4644ZM115.904 30.0017C115.762 29.8894 115.673 29.7806 115.625 29.697C115.579 29.6157 115.585 29.5827 115.584 29.5904L113.59 29.4377C113.519 30.3722 114.095 31.1208 114.664 31.5709L115.904 30.0017ZM115.584 29.5904C115.581 29.6358 115.57 29.6483 115.581 29.6247C115.592 29.6021 115.616 29.562 115.66 29.5093C115.751 29.4006 115.882 29.2913 116.015 29.2152L115.019 27.4808C114.693 27.668 114.375 27.9273 114.124 28.2285C113.886 28.5146 113.629 28.9331 113.59 29.4377L115.584 29.5904ZM116.015 29.2152C116.489 28.9428 117.065 28.8317 117.842 28.6699L117.433 26.712C116.773 26.8498 115.831 27.0144 115.019 27.4808L116.015 29.2152ZM117.842 28.6699C121.539 27.8992 125.236 27.1387 128.937 26.3725L128.531 24.414C124.834 25.1795 121.132 25.941 117.433 26.712L117.842 28.6699ZM128.937 26.3725C129.392 26.2782 129.847 26.184 130.302 26.0898C130.757 25.9955 131.212 25.9013 131.667 25.8071L131.262 23.8486C130.807 23.9428 130.352 24.0371 129.896 24.1313C129.441 24.2255 128.986 24.3198 128.531 24.414L128.937 26.3725ZM131.667 25.8071C132.318 25.6724 132.78 25.233 133.035 24.7615C133.288 24.2949 133.39 23.7069 133.235 23.1424L131.307 23.6724C131.307 23.6723 131.308 23.6762 131.308 23.6843C131.309 23.6926 131.308 23.704 131.307 23.7182C131.302 23.7481 131.292 23.7804 131.277 23.8089C131.242 23.8726 131.222 23.8568 131.262 23.8486L131.667 25.8071ZM133.235 23.1424C132.895 21.9048 131.675 21.409 130.648 21.6217L131.053 23.5801C131.144 23.5614 131.214 23.5791 131.251 23.5993C131.269 23.6086 131.279 23.6181 131.285 23.6258C131.291 23.6328 131.299 23.6459 131.307 23.6724L133.235 23.1424Z" fill="#A8CF4E" mask="url(#path-22-outside-1_1_2630)"/>
</svg>
