<svg width="389" height="206" viewBox="0 0 389 206" fill="none" xmlns="http://www.w3.org/2000/svg">
<path d="M11.675 190.418H2.275V172.568H11.675V174.543H4.5V180.118H11.25V182.068H4.5V188.443H11.675V190.418ZM17.2359 190.418H15.0609V171.418H17.2359V190.418ZM26.0889 176.768C27.1722 176.768 28.1055 177.018 28.8889 177.518C29.6722 178.018 30.2722 178.726 30.6889 179.643C31.1222 180.543 31.3389 181.601 31.3389 182.818V184.143H22.7389C22.7722 185.66 23.1305 186.818 23.8139 187.618C24.4972 188.401 25.4555 188.793 26.6889 188.793C27.4889 188.793 28.1972 188.718 28.8139 188.568C29.4472 188.401 30.0972 188.168 30.7639 187.868V189.793C30.1139 190.093 29.4722 190.31 28.8389 190.443C28.2222 190.593 27.4722 190.668 26.5889 190.668C25.3889 190.668 24.3305 190.41 23.4139 189.893C22.4972 189.376 21.7805 188.61 21.2639 187.593C20.7472 186.56 20.4889 185.301 20.4889 183.818C20.4889 182.351 20.7222 181.093 21.1889 180.043C21.6555 178.993 22.3055 178.185 23.1389 177.618C23.9889 177.051 24.9722 176.768 26.0889 176.768ZM26.0889 178.568C25.1222 178.568 24.3555 178.91 23.7889 179.593C23.2222 180.26 22.8889 181.193 22.7889 182.393H29.0889C29.0889 181.626 28.9805 180.96 28.7639 180.393C28.5472 179.826 28.2139 179.385 27.7639 179.068C27.3305 178.735 26.7722 178.568 26.0889 178.568ZM36.6445 181.343C36.6445 181.61 36.6279 181.96 36.5945 182.393C36.5779 182.826 36.5612 183.201 36.5445 183.518H36.6445C36.7445 183.385 36.8862 183.193 37.0695 182.943C37.2529 182.693 37.4445 182.443 37.6445 182.193C37.8445 181.926 38.0195 181.71 38.1695 181.543L42.1445 177.018H44.6695L39.5695 182.743L45.0195 190.418H42.4195L38.0945 184.168L36.6445 185.493V190.418H34.4945V171.418H36.6445V181.343ZM51.5148 188.868C51.8315 188.868 52.1565 188.843 52.4898 188.793C52.8232 188.726 53.0982 188.66 53.3148 188.593V190.268C53.0815 190.385 52.7482 190.476 52.3148 190.543C51.8982 190.626 51.4982 190.668 51.1148 190.668C50.4482 190.668 49.8315 190.551 49.2648 190.318C48.6982 190.068 48.2398 189.643 47.8898 189.043C47.5565 188.443 47.3898 187.601 47.3898 186.518V178.718H45.6148V177.668L47.4398 176.793L48.2648 173.943H49.5648V177.018H53.2148V178.718H49.5648V186.468C49.5648 187.285 49.7482 187.893 50.1148 188.293C50.4815 188.676 50.9482 188.868 51.5148 188.868ZM61.783 176.768C62.0163 176.768 62.2663 176.785 62.533 176.818C62.7997 176.835 63.033 176.868 63.233 176.918L62.983 178.943C62.783 178.893 62.558 178.851 62.308 178.818C62.0747 178.785 61.8497 178.768 61.633 178.768C61.1497 178.768 60.6913 178.876 60.258 179.093C59.8247 179.31 59.433 179.618 59.083 180.018C58.7497 180.401 58.483 180.868 58.283 181.418C58.083 181.968 57.983 182.585 57.983 183.268V190.418H55.808V177.018H57.583L57.833 179.468H57.933C58.1997 178.968 58.5163 178.518 58.883 178.118C59.2663 177.701 59.6997 177.376 60.183 177.143C60.6663 176.893 61.1997 176.768 61.783 176.768ZM76.1348 183.693C76.1348 184.81 75.9931 185.801 75.7098 186.668C75.4431 187.518 75.0514 188.243 74.5348 188.843C74.0181 189.443 73.3931 189.901 72.6598 190.218C71.9264 190.518 71.1098 190.668 70.2098 190.668C69.3764 190.668 68.6014 190.518 67.8848 190.218C67.1848 189.901 66.5681 189.443 66.0348 188.843C65.5181 188.243 65.1181 187.518 64.8348 186.668C64.5514 185.801 64.4098 184.81 64.4098 183.693C64.4098 182.21 64.6431 180.96 65.1098 179.943C65.5931 178.91 66.2764 178.126 67.1598 177.593C68.0431 177.043 69.0848 176.768 70.2848 176.768C71.4348 176.768 72.4431 177.043 73.3098 177.593C74.1931 178.126 74.8848 178.91 75.3848 179.943C75.8848 180.96 76.1348 182.21 76.1348 183.693ZM66.6598 183.693C66.6598 184.743 66.7848 185.66 67.0348 186.443C67.2848 187.21 67.6764 187.801 68.2098 188.218C68.7431 188.635 69.4264 188.843 70.2598 188.843C71.0931 188.843 71.7764 188.635 72.3098 188.218C72.8431 187.801 73.2348 187.21 73.4848 186.443C73.7514 185.66 73.8848 184.743 73.8848 183.693C73.8848 182.626 73.7514 181.718 73.4848 180.968C73.2348 180.218 72.8431 179.643 72.3098 179.243C71.7764 178.826 71.0848 178.618 70.2348 178.618C68.9848 178.618 68.0764 179.068 67.5098 179.968C66.9431 180.868 66.6598 182.11 66.6598 183.693ZM81.5676 177.018V190.418H79.3926V177.018H81.5676ZM80.4926 171.993C80.8259 171.993 81.1176 172.11 81.3676 172.343C81.6176 172.56 81.7426 172.91 81.7426 173.393C81.7426 173.86 81.6176 174.21 81.3676 174.443C81.1176 174.676 80.8259 174.793 80.4926 174.793C80.1426 174.793 79.8426 174.676 79.5926 174.443C79.3426 174.21 79.2176 173.86 79.2176 173.393C79.2176 172.91 79.3426 172.56 79.5926 172.343C79.8426 172.11 80.1426 171.993 80.4926 171.993ZM91.6699 176.768C93.1699 176.768 94.3033 177.16 95.0699 177.943C95.8533 178.71 96.2449 179.96 96.2449 181.693V190.418H94.0699V181.843C94.0699 180.76 93.8449 179.951 93.3949 179.418C92.9449 178.885 92.2533 178.618 91.3199 178.618C89.9533 178.618 89.0033 179.035 88.4699 179.868C87.9533 180.701 87.6949 181.901 87.6949 183.468V190.418H85.5199V177.018H87.2699L87.5949 178.843H87.7199C87.9866 178.376 88.3283 177.993 88.7449 177.693C89.1616 177.376 89.6199 177.143 90.1199 176.993C90.6199 176.843 91.1366 176.768 91.6699 176.768ZM108.395 186.718C108.395 187.585 108.186 188.31 107.77 188.893C107.37 189.476 106.795 189.918 106.045 190.218C105.295 190.518 104.395 190.668 103.345 190.668C102.461 190.668 101.695 190.593 101.045 190.443C100.411 190.293 99.8529 190.085 99.3695 189.818V187.818C99.8862 188.085 100.503 188.335 101.22 188.568C101.936 188.785 102.661 188.893 103.395 188.893C104.411 188.893 105.145 188.718 105.595 188.368C106.061 188.001 106.295 187.518 106.295 186.918C106.295 186.585 106.203 186.285 106.02 186.018C105.853 185.751 105.545 185.485 105.095 185.218C104.661 184.951 104.028 184.651 103.195 184.318C102.395 183.985 101.703 183.651 101.12 183.318C100.553 182.985 100.111 182.585 99.7945 182.118C99.4945 181.651 99.3445 181.051 99.3445 180.318C99.3445 179.185 99.7779 178.31 100.645 177.693C101.528 177.076 102.678 176.768 104.095 176.768C104.861 176.768 105.578 176.851 106.245 177.018C106.911 177.168 107.545 177.385 108.145 177.668L107.42 179.418C107.07 179.251 106.703 179.11 106.32 178.993C105.936 178.86 105.545 178.76 105.145 178.693C104.761 178.61 104.37 178.568 103.97 178.568C103.153 178.568 102.528 178.718 102.095 179.018C101.661 179.301 101.445 179.693 101.445 180.193C101.445 180.56 101.545 180.876 101.745 181.143C101.945 181.41 102.27 181.668 102.72 181.918C103.186 182.151 103.82 182.426 104.62 182.743C105.42 183.06 106.103 183.385 106.67 183.718C107.236 184.051 107.661 184.46 107.945 184.943C108.245 185.41 108.395 186.001 108.395 186.718ZM115.748 188.868C116.065 188.868 116.39 188.843 116.723 188.793C117.057 188.726 117.332 188.66 117.548 188.593V190.268C117.315 190.385 116.982 190.476 116.548 190.543C116.132 190.626 115.732 190.668 115.348 190.668C114.682 190.668 114.065 190.551 113.498 190.318C112.932 190.068 112.473 189.643 112.123 189.043C111.79 188.443 111.623 187.601 111.623 186.518V178.718H109.848V177.668L111.673 176.793L112.498 173.943H113.798V177.018H117.448V178.718H113.798V186.468C113.798 187.285 113.982 187.893 114.348 188.293C114.715 188.676 115.182 188.868 115.748 188.868ZM124.866 176.793C126.4 176.793 127.541 177.151 128.291 177.868C129.058 178.585 129.441 179.726 129.441 181.293V190.418H127.866L127.441 188.518H127.341C126.975 189.001 126.6 189.41 126.216 189.743C125.85 190.06 125.416 190.293 124.916 190.443C124.433 190.593 123.833 190.668 123.116 190.668C122.366 190.668 121.691 190.526 121.091 190.243C120.491 189.96 120.016 189.526 119.666 188.943C119.316 188.343 119.141 187.593 119.141 186.693C119.141 185.36 119.633 184.335 120.616 183.618C121.6 182.885 123.116 182.485 125.166 182.418L127.291 182.343V181.543C127.291 180.426 127.066 179.651 126.616 179.218C126.183 178.785 125.558 178.568 124.741 178.568C124.091 178.568 123.466 178.676 122.866 178.893C122.283 179.093 121.725 179.326 121.191 179.593L120.516 177.943C121.083 177.626 121.741 177.36 122.491 177.143C123.241 176.91 124.033 176.793 124.866 176.793ZM125.466 183.943C123.933 184.01 122.866 184.276 122.266 184.743C121.683 185.21 121.391 185.868 121.391 186.718C121.391 187.468 121.6 188.018 122.016 188.368C122.433 188.718 122.975 188.893 123.641 188.893C124.675 188.893 125.541 188.585 126.241 187.968C126.941 187.335 127.291 186.368 127.291 185.068V183.868L125.466 183.943ZM135.498 190.418H133.323V171.418H135.498V190.418ZM141.626 190.418H139.451V171.418H141.626V190.418ZM150.404 176.793C151.937 176.793 153.079 177.151 153.829 177.868C154.595 178.585 154.979 179.726 154.979 181.293V190.418H153.404L152.979 188.518H152.879C152.512 189.001 152.137 189.41 151.754 189.743C151.387 190.06 150.954 190.293 150.454 190.443C149.97 190.593 149.37 190.668 148.654 190.668C147.904 190.668 147.229 190.526 146.629 190.243C146.029 189.96 145.554 189.526 145.204 188.943C144.854 188.343 144.679 187.593 144.679 186.693C144.679 185.36 145.17 184.335 146.154 183.618C147.137 182.885 148.654 182.485 150.704 182.418L152.829 182.343V181.543C152.829 180.426 152.604 179.651 152.154 179.218C151.72 178.785 151.095 178.568 150.279 178.568C149.629 178.568 149.004 178.676 148.404 178.893C147.82 179.093 147.262 179.326 146.729 179.593L146.054 177.943C146.62 177.626 147.279 177.36 148.029 177.143C148.779 176.91 149.57 176.793 150.404 176.793ZM151.004 183.943C149.47 184.01 148.404 184.276 147.804 184.743C147.22 185.21 146.929 185.868 146.929 186.718C146.929 187.468 147.137 188.018 147.554 188.368C147.97 188.718 148.512 188.893 149.179 188.893C150.212 188.893 151.079 188.585 151.779 187.968C152.479 187.335 152.829 186.368 152.829 185.068V183.868L151.004 183.943ZM163.185 188.868C163.501 188.868 163.826 188.843 164.16 188.793C164.493 188.726 164.768 188.66 164.985 188.593V190.268C164.751 190.385 164.418 190.476 163.985 190.543C163.568 190.626 163.168 190.668 162.785 190.668C162.118 190.668 161.501 190.551 160.935 190.318C160.368 190.068 159.91 189.643 159.56 189.043C159.226 188.443 159.06 187.601 159.06 186.518V178.718H157.285V177.668L159.11 176.793L159.935 173.943H161.235V177.018H164.885V178.718H161.235V186.468C161.235 187.285 161.418 187.893 161.785 188.293C162.151 188.676 162.618 188.868 163.185 188.868ZM169.678 177.018V190.418H167.503V177.018H169.678ZM168.603 171.993C168.936 171.993 169.228 172.11 169.478 172.343C169.728 172.56 169.853 172.91 169.853 173.393C169.853 173.86 169.728 174.21 169.478 174.443C169.228 174.676 168.936 174.793 168.603 174.793C168.253 174.793 167.953 174.676 167.703 174.443C167.453 174.21 167.328 173.86 167.328 173.393C167.328 172.91 167.453 172.56 167.703 172.343C167.953 172.11 168.253 171.993 168.603 171.993ZM184.655 183.693C184.655 184.81 184.514 185.801 184.23 186.668C183.964 187.518 183.572 188.243 183.055 188.843C182.539 189.443 181.914 189.901 181.18 190.218C180.447 190.518 179.63 190.668 178.73 190.668C177.897 190.668 177.122 190.518 176.405 190.218C175.705 189.901 175.089 189.443 174.555 188.843C174.039 188.243 173.639 187.518 173.355 186.668C173.072 185.801 172.93 184.81 172.93 183.693C172.93 182.21 173.164 180.96 173.63 179.943C174.114 178.91 174.797 178.126 175.68 177.593C176.564 177.043 177.605 176.768 178.805 176.768C179.955 176.768 180.964 177.043 181.83 177.593C182.714 178.126 183.405 178.91 183.905 179.943C184.405 180.96 184.655 182.21 184.655 183.693ZM175.18 183.693C175.18 184.743 175.305 185.66 175.555 186.443C175.805 187.21 176.197 187.801 176.73 188.218C177.264 188.635 177.947 188.843 178.78 188.843C179.614 188.843 180.297 188.635 180.83 188.218C181.364 187.801 181.755 187.21 182.005 186.443C182.272 185.66 182.405 184.743 182.405 183.693C182.405 182.626 182.272 181.718 182.005 180.968C181.755 180.218 181.364 179.643 180.83 179.243C180.297 178.826 179.605 178.618 178.755 178.618C177.505 178.618 176.597 179.068 176.03 179.968C175.464 180.868 175.18 182.11 175.18 183.693ZM194.038 176.768C195.538 176.768 196.671 177.16 197.438 177.943C198.221 178.71 198.613 179.96 198.613 181.693V190.418H196.438V181.843C196.438 180.76 196.213 179.951 195.763 179.418C195.313 178.885 194.621 178.618 193.688 178.618C192.321 178.618 191.371 179.035 190.838 179.868C190.321 180.701 190.063 181.901 190.063 183.468V190.418H187.888V177.018H189.638L189.963 178.843H190.088C190.355 178.376 190.696 177.993 191.113 177.693C191.53 177.376 191.988 177.143 192.488 176.993C192.988 176.843 193.505 176.768 194.038 176.768ZM207.388 176.768C208.471 176.768 209.404 177.018 210.188 177.518C210.971 178.018 211.571 178.726 211.988 179.643C212.421 180.543 212.638 181.601 212.638 182.818V184.143H204.038C204.071 185.66 204.429 186.818 205.113 187.618C205.796 188.401 206.754 188.793 207.988 188.793C208.788 188.793 209.496 188.718 210.113 188.568C210.746 188.401 211.396 188.168 212.063 187.868V189.793C211.413 190.093 210.771 190.31 210.138 190.443C209.521 190.593 208.771 190.668 207.888 190.668C206.688 190.668 205.629 190.41 204.713 189.893C203.796 189.376 203.079 188.61 202.563 187.593C202.046 186.56 201.788 185.301 201.788 183.818C201.788 182.351 202.021 181.093 202.488 180.043C202.954 178.993 203.604 178.185 204.438 177.618C205.288 177.051 206.271 176.768 207.388 176.768ZM207.388 178.568C206.421 178.568 205.654 178.91 205.088 179.593C204.521 180.26 204.188 181.193 204.088 182.393H210.388C210.388 181.626 210.279 180.96 210.063 180.393C209.846 179.826 209.513 179.385 209.063 179.068C208.629 178.735 208.071 178.568 207.388 178.568ZM221.943 176.768C223.443 176.768 224.577 177.16 225.343 177.943C226.127 178.71 226.518 179.96 226.518 181.693V190.418H224.343V181.843C224.343 180.76 224.118 179.951 223.668 179.418C223.218 178.885 222.527 178.618 221.593 178.618C220.227 178.618 219.277 179.035 218.743 179.868C218.227 180.701 217.968 181.901 217.968 183.468V190.418H215.793V177.018H217.543L217.868 178.843H217.993C218.26 178.376 218.602 177.993 219.018 177.693C219.435 177.376 219.893 177.143 220.393 176.993C220.893 176.843 221.41 176.768 221.943 176.768ZM250.421 176.768C251.855 176.768 252.921 177.16 253.621 177.943C254.321 178.71 254.671 179.96 254.671 181.693V190.418H252.521V181.793C252.521 180.743 252.313 179.951 251.896 179.418C251.496 178.885 250.863 178.618 249.996 178.618C248.796 178.618 247.938 178.993 247.421 179.743C246.921 180.493 246.671 181.585 246.671 183.018V190.418H244.496V181.793C244.496 181.093 244.405 180.51 244.221 180.043C244.038 179.56 243.763 179.201 243.396 178.968C243.03 178.735 242.555 178.618 241.971 178.618C241.138 178.618 240.48 178.81 239.996 179.193C239.513 179.56 239.171 180.101 238.971 180.818C238.771 181.535 238.671 182.418 238.671 183.468V190.418H236.496V177.018H238.246L238.571 178.843H238.696C238.963 178.376 239.288 177.993 239.671 177.693C240.055 177.376 240.48 177.143 240.946 176.993C241.413 176.843 241.896 176.768 242.396 176.768C243.363 176.768 244.171 176.951 244.821 177.318C245.471 177.685 245.946 178.251 246.246 179.018H246.396C246.813 178.251 247.38 177.685 248.096 177.318C248.83 176.951 249.605 176.768 250.421 176.768ZM260.742 177.018V190.418H258.567V177.018H260.742ZM259.667 171.993C260.001 171.993 260.292 172.11 260.542 172.343C260.792 172.56 260.917 172.91 260.917 173.393C260.917 173.86 260.792 174.21 260.542 174.443C260.292 174.676 260.001 174.793 259.667 174.793C259.317 174.793 259.017 174.676 258.767 174.443C258.517 174.21 258.392 173.86 258.392 173.393C258.392 172.91 258.517 172.56 258.767 172.343C259.017 172.11 259.317 171.993 259.667 171.993ZM269.02 188.868C269.336 188.868 269.661 188.843 269.995 188.793C270.328 188.726 270.603 188.66 270.82 188.593V190.268C270.586 190.385 270.253 190.476 269.82 190.543C269.403 190.626 269.003 190.668 268.62 190.668C267.953 190.668 267.336 190.551 266.77 190.318C266.203 190.068 265.745 189.643 265.395 189.043C265.061 188.443 264.895 187.601 264.895 186.518V178.718H263.12V177.668L264.945 176.793L265.77 173.943H267.07V177.018H270.72V178.718H267.07V186.468C267.07 187.285 267.253 187.893 267.62 188.293C267.986 188.676 268.453 188.868 269.02 188.868ZM289.116 190.418H279.716V172.568H289.116V174.543H281.941V180.118H288.691V182.068H281.941V188.443H289.116V190.418ZM295.477 183.568L291.127 177.018H293.602L296.802 182.068L299.952 177.018H302.427L298.077 183.568L302.652 190.418H300.177L296.802 185.068L293.377 190.418H290.927L295.477 183.568ZM311.102 176.768C312.652 176.768 313.893 177.343 314.827 178.493C315.777 179.643 316.252 181.376 316.252 183.693C316.252 185.21 316.035 186.493 315.602 187.543C315.168 188.576 314.56 189.36 313.777 189.893C313.01 190.41 312.11 190.668 311.077 190.668C310.427 190.668 309.852 190.576 309.352 190.393C308.868 190.21 308.452 189.976 308.102 189.693C307.752 189.393 307.452 189.068 307.202 188.718H307.052C307.085 189.001 307.118 189.36 307.152 189.793C307.185 190.226 307.202 190.601 307.202 190.918V196.418H305.027V177.018H306.802L307.102 178.843H307.202C307.452 178.46 307.752 178.11 308.102 177.793C308.452 177.476 308.868 177.226 309.352 177.043C309.852 176.86 310.435 176.768 311.102 176.768ZM310.677 178.618C309.843 178.618 309.168 178.793 308.652 179.143C308.152 179.476 307.785 179.985 307.552 180.668C307.318 181.351 307.202 182.218 307.202 183.268V183.693C307.202 184.793 307.302 185.726 307.502 186.493C307.718 187.26 308.085 187.843 308.602 188.243C309.118 188.643 309.827 188.843 310.727 188.843C311.477 188.843 312.093 188.618 312.577 188.168C313.06 187.718 313.418 187.11 313.652 186.343C313.885 185.56 314.002 184.668 314.002 183.668C314.002 182.135 313.727 180.91 313.177 179.993C312.643 179.076 311.81 178.618 310.677 178.618ZM324.404 176.768C325.488 176.768 326.421 177.018 327.204 177.518C327.988 178.018 328.588 178.726 329.004 179.643C329.438 180.543 329.654 181.601 329.654 182.818V184.143H321.054C321.088 185.66 321.446 186.818 322.129 187.618C322.813 188.401 323.771 188.793 325.004 188.793C325.804 188.793 326.513 188.718 327.129 188.568C327.763 188.401 328.413 188.168 329.079 187.868V189.793C328.429 190.093 327.788 190.31 327.154 190.443C326.538 190.593 325.788 190.668 324.904 190.668C323.704 190.668 322.646 190.41 321.729 189.893C320.813 189.376 320.096 188.61 319.579 187.593C319.063 186.56 318.804 185.301 318.804 183.818C318.804 182.351 319.038 181.093 319.504 180.043C319.971 178.993 320.621 178.185 321.454 177.618C322.304 177.051 323.288 176.768 324.404 176.768ZM324.404 178.568C323.438 178.568 322.671 178.91 322.104 179.593C321.538 180.26 321.204 181.193 321.104 182.393H327.404C327.404 181.626 327.296 180.96 327.079 180.393C326.863 179.826 326.529 179.385 326.079 179.068C325.646 178.735 325.088 178.568 324.404 178.568ZM338.785 176.768C339.018 176.768 339.268 176.785 339.535 176.818C339.802 176.835 340.035 176.868 340.235 176.918L339.985 178.943C339.785 178.893 339.56 178.851 339.31 178.818C339.077 178.785 338.852 178.768 338.635 178.768C338.152 178.768 337.693 178.876 337.26 179.093C336.827 179.31 336.435 179.618 336.085 180.018C335.752 180.401 335.485 180.868 335.285 181.418C335.085 181.968 334.985 182.585 334.985 183.268V190.418H332.81V177.018H334.585L334.835 179.468H334.935C335.202 178.968 335.518 178.518 335.885 178.118C336.268 177.701 336.702 177.376 337.185 177.143C337.668 176.893 338.202 176.768 338.785 176.768ZM346.901 188.868C347.217 188.868 347.542 188.843 347.876 188.793C348.209 188.726 348.484 188.66 348.701 188.593V190.268C348.467 190.385 348.134 190.476 347.701 190.543C347.284 190.626 346.884 190.668 346.501 190.668C345.834 190.668 345.217 190.551 344.651 190.318C344.084 190.068 343.626 189.643 343.276 189.043C342.942 188.443 342.776 187.601 342.776 186.518V178.718H341.001V177.668L342.826 176.793L343.651 173.943H344.951V177.018H348.601V178.718H344.951V186.468C344.951 187.285 345.134 187.893 345.501 188.293C345.867 188.676 346.334 188.868 346.901 188.868ZM353.394 177.018V190.418H351.219V177.018H353.394ZM352.319 171.993C352.652 171.993 352.944 172.11 353.194 172.343C353.444 172.56 353.569 172.91 353.569 173.393C353.569 173.86 353.444 174.21 353.194 174.443C352.944 174.676 352.652 174.793 352.319 174.793C351.969 174.793 351.669 174.676 351.419 174.443C351.169 174.21 351.044 173.86 351.044 173.393C351.044 172.91 351.169 172.56 351.419 172.343C351.669 172.11 351.969 171.993 352.319 171.993ZM365.621 186.718C365.621 187.585 365.413 188.31 364.996 188.893C364.596 189.476 364.021 189.918 363.271 190.218C362.521 190.518 361.621 190.668 360.571 190.668C359.688 190.668 358.921 190.593 358.271 190.443C357.638 190.293 357.079 190.085 356.596 189.818V187.818C357.113 188.085 357.729 188.335 358.446 188.568C359.163 188.785 359.888 188.893 360.621 188.893C361.638 188.893 362.371 188.718 362.821 188.368C363.288 188.001 363.521 187.518 363.521 186.918C363.521 186.585 363.429 186.285 363.246 186.018C363.079 185.751 362.771 185.485 362.321 185.218C361.888 184.951 361.254 184.651 360.421 184.318C359.621 183.985 358.929 183.651 358.346 183.318C357.779 182.985 357.338 182.585 357.021 182.118C356.721 181.651 356.571 181.051 356.571 180.318C356.571 179.185 357.004 178.31 357.871 177.693C358.754 177.076 359.904 176.768 361.321 176.768C362.088 176.768 362.804 176.851 363.471 177.018C364.138 177.168 364.771 177.385 365.371 177.668L364.646 179.418C364.296 179.251 363.929 179.11 363.546 178.993C363.163 178.86 362.771 178.76 362.371 178.693C361.988 178.61 361.596 178.568 361.196 178.568C360.379 178.568 359.754 178.718 359.321 179.018C358.888 179.301 358.671 179.693 358.671 180.193C358.671 180.56 358.771 180.876 358.971 181.143C359.171 181.41 359.496 181.668 359.946 181.918C360.413 182.151 361.046 182.426 361.846 182.743C362.646 183.06 363.329 183.385 363.896 183.718C364.463 184.051 364.888 184.46 365.171 184.943C365.471 185.41 365.621 186.001 365.621 186.718ZM373.55 176.768C374.633 176.768 375.566 177.018 376.35 177.518C377.133 178.018 377.733 178.726 378.15 179.643C378.583 180.543 378.8 181.601 378.8 182.818V184.143H370.2C370.233 185.66 370.591 186.818 371.275 187.618C371.958 188.401 372.916 188.793 374.15 188.793C374.95 188.793 375.658 188.718 376.275 188.568C376.908 188.401 377.558 188.168 378.225 187.868V189.793C377.575 190.093 376.933 190.31 376.3 190.443C375.683 190.593 374.933 190.668 374.05 190.668C372.85 190.668 371.791 190.41 370.875 189.893C369.958 189.376 369.241 188.61 368.725 187.593C368.208 186.56 367.95 185.301 367.95 183.818C367.95 182.351 368.183 181.093 368.65 180.043C369.116 178.993 369.766 178.185 370.6 177.618C371.45 177.051 372.433 176.768 373.55 176.768ZM373.55 178.568C372.583 178.568 371.816 178.91 371.25 179.593C370.683 180.26 370.35 181.193 370.25 182.393H376.55C376.55 181.626 376.441 180.96 376.225 180.393C376.008 179.826 375.675 179.385 375.225 179.068C374.791 178.735 374.233 178.568 373.55 178.568ZM381.655 189.068C381.655 188.451 381.797 188.018 382.08 187.768C382.364 187.518 382.714 187.393 383.13 187.393C383.547 187.393 383.905 187.518 384.205 187.768C384.505 188.018 384.655 188.451 384.655 189.068C384.655 189.668 384.505 190.101 384.205 190.368C383.905 190.635 383.547 190.768 383.13 190.768C382.714 190.768 382.364 190.635 382.08 190.368C381.797 190.101 381.655 189.668 381.655 189.068Z" fill="#5D5D5D"/>
<path fill-rule="evenodd" clip-rule="evenodd" d="M351.602 75.9086C341.697 78.0282 335.184 83.2109 332.941 90.7603C331.339 96.1509 331.336 99.0741 332.93 104.436C335.286 112.364 341.772 117.352 352.746 119.676C368.096 122.927 374.251 126.327 374.251 131.557C374.251 137.869 369.86 141.177 360.433 141.966C352.546 142.627 347.268 140.754 342.116 135.468C337.675 130.913 337.93 130.886 331.37 136.617L328.206 139.381L331.903 143.489C333.936 145.75 337.387 148.566 339.571 149.747C352.352 156.665 377.787 153.934 384.678 144.904C388.746 139.576 390.054 131.763 388.075 124.623C385.885 116.721 381.387 113.667 366.185 109.76C352.577 106.263 348.935 104.436 347.371 100.325C344.671 93.2293 350.274 86.6112 359.005 86.5817C364.943 86.5621 369.051 88.108 373.365 91.9829L377.226 95.452L381.881 91.7628C384.44 89.7332 386.535 87.6857 386.535 87.2127C386.535 85.1872 379.359 79.3662 374.757 77.6591C369.313 75.6394 357.154 74.7203 351.602 75.9086ZM0 114.393V152.038H7.37036H14.7407V138.126V124.213H26.1656C32.4492 124.213 39.4666 123.812 41.7605 123.32C46.9713 122.203 52.1863 118.311 54.8683 113.536C56.7223 110.237 56.9156 109.002 56.9156 100.481C56.9156 91.96 56.7223 90.7251 54.8683 87.4255C52.1863 82.6511 46.9713 78.759 41.7605 77.6419C39.4314 77.1427 29.2898 76.7482 18.7952 76.7482H0V114.393ZM125.296 82.4768V88.2054H136.761H148.226V120.122V152.038H155.597H162.967V120.122V88.2054H174.841H186.716V82.4768V76.7482H156.006H125.296V82.4768ZM258.782 114.393V152.038H266.134H273.486L273.709 136.694L273.932 121.349L279.854 121.109C287.231 120.81 292.033 122.055 294.757 124.973C296.982 127.356 298.085 130.134 302.174 143.65L304.712 152.038H312.512C319.546 152.038 320.273 151.897 319.912 150.606C314.149 129.949 309.951 121.002 304.865 118.538C302.035 117.166 301.391 116.03 303.446 116.03C305.787 116.03 311.085 112.789 313.132 110.104C319.148 102.211 317.329 87.6734 309.555 81.5365C304.534 77.5715 299.083 76.7482 277.854 76.7482H258.782V114.393ZM14.7407 100.89V113.575L22.7253 113.555C32.8685 113.531 36.4972 112.67 39.6182 109.551C41.8227 107.348 42.156 106.394 42.423 101.515C42.6842 96.7475 42.4574 95.5846 40.7876 93.1278C37.8435 88.7946 36.0059 88.2307 24.7726 88.2176L14.7407 88.2054V100.89ZM273.703 99.0487L273.932 109.892L281.215 110.13C291.121 110.454 296.651 109.229 299.257 106.133C303.502 101.092 302.603 93.6139 297.326 90.0598C294.819 88.3715 293.629 88.2054 284.023 88.2054H273.475L273.703 99.0487Z" fill="#A8CF4E"/>
<path d="M66.2505 91.2186C67.895 85.5596 72.9584 80.2893 78.6172 78.3473C82.4547 77.0306 85.6371 76.7974 100.114 76.7753L117.107 76.7483V82.4768V88.2054H102.325C85.9909 88.2054 83.7527 88.7299 81.4974 93.0886C80.6891 94.6516 80.2551 97.7893 80.2551 102.077V108.665H96.2242H112.193V114.393V120.122H96.2242H80.2551V126.709C80.2551 130.997 80.6891 134.134 81.4974 135.698C83.7634 140.077 85.9565 140.581 102.735 140.581H117.926V146.309V152.038H101.059C80.2739 152.038 76.7722 151.278 71.1928 145.554C65.6085 139.825 65.1049 137.245 65.1049 114.393C65.1049 100.34 65.4136 94.1001 66.2505 91.2186Z" fill="#A8CF4E"/>
<path fill-rule="evenodd" clip-rule="evenodd" d="M189.135 34.3385V0H179.135V34.3385C179.135 45.8383 184.997 53.9785 191.898 59.2757C195.058 61.7016 198.486 63.5799 201.795 64.9876C193.079 80.3989 192.565 83.3063 194.434 90.659C196.534 98.914 199.36 101.481 218.542 112.556L234.108 121.543L237.16 116.256L240.213 110.97L226.193 102.876C210.709 93.9358 208.954 92.302 209.196 87.0534C209.283 85.1802 210.554 82.0533 212.838 78.0966L216.349 72.0169L231.086 80.5255L245.823 89.0342L248.876 83.7475L251.928 78.4608L237.191 69.9521L222.453 61.4435L225.963 55.3638C228.248 51.407 230.32 48.7427 231.899 47.7309C236.303 44.9101 238.648 45.6185 253.722 54.3218L267.364 62.1977L270.416 56.911L273.468 51.6243L257.772 42.5951C244.399 34.9019 241.338 33.4215 237.095 32.592C230.838 31.3691 223.357 33.535 218.824 37.8813C216.665 39.9518 213.367 44.9811 206.821 56.239C203.886 55.0918 200.77 53.4803 197.987 51.3434C192.879 47.4223 189.135 41.9702 189.135 34.3385Z" fill="#5D5D5D"/>
</svg>
