<svg width="155" height="118" viewBox="0 0 155 118" fill="none" xmlns="http://www.w3.org/2000/svg">
<path d="M27.8904 79.3854L25.9432 76.1402L44.1175 60.5621C57.5536 54.0948 73.7497 55.9609 90.8517 60.5621V65.1054L73.9755 83.2801L54.5027 87.1744L27.8904 79.3854Z" fill="#3F3D56"/>
<path d="M98.8896 69.7044C102.117 66.1145 102.565 62.7008 98.8896 59.5488H92.771V62.7512L90.845 60.5626L75.2669 76.1407L72.6703 78.7369L69.425 91.7188L75.2669 105.998H105.125V76.7897L98.8896 69.7044Z" fill="#CCCCCC"/>
<path d="M25.9394 76.1416H75.2697V105.999H25.9394C19.9714 99.5425 23.0717 87.7739 25.9394 76.1416Z" fill="#F2F2F2"/>
<path d="M68.4572 85.5503H58.0719V94.6375H68.4572V85.5503Z" fill="#3F3D56"/>
<path d="M53.8518 85.23H44.7646V106.001H53.8518V85.23Z" fill="#CCCCCC"/>
<path d="M34.3771 88.4752V85.23H30.4828V88.4752H34.0523H34.3771Z" fill="#3F3D56"/>
<path d="M34.0523 91.0688H30.4828V94.3146H34.3771V91.0688H34.0523Z" fill="#3F3D56"/>
<path d="M40.8707 85.23H36.9762V88.4754H40.8707V85.23Z" fill="#3F3D56"/>
<path d="M40.8707 91.0688H36.9762V94.3143H40.8707V91.0688Z" fill="#3F3D56"/>
<path d="M89.2263 88.796V85.5503H85.3315V88.796H88.9015H89.2263Z" fill="#3F3D56"/>
<path d="M88.9015 91.3892H85.3315V94.6344H89.2263V91.3892H88.9015Z" fill="#3F3D56"/>
<path d="M95.7149 85.5503H91.8204V88.7957H95.7149V85.5503Z" fill="#3F3D56"/>
<path d="M95.7149 91.3892H91.8204V94.6346H95.7149V91.3892Z" fill="#3F3D56"/>
<path d="M21.7045 68.4814H20.7632V105.664H21.7045V68.4814Z" fill="#3F3D56"/>
<path d="M30.3924 73.228C31.2409 86.2022 21.3048 96.8122 21.3048 96.8122C21.3048 96.8122 12.0602 86.3146 12.0003 73.3128C11.9404 60.311 21.0878 49.7285 21.0878 49.7285C20.196 53.2925 29.7058 62.7303 30.3924 73.228Z" fill="#A8CF4E"/>
<path d="M49.9768 62.1805L90.8653 60.1802L108.018 74.4973L104.985 77.2352L77.8237 76.6238L49.9768 62.1805Z" fill="#3F3D56"/>
<path d="M133.432 52.7682C132.57 52.7682 131.721 52.557 130.96 52.1531C130.199 51.7491 129.549 51.1647 129.065 50.4511C128.582 49.7375 128.282 48.9162 128.189 48.0594C128.097 47.2026 128.217 46.3363 128.537 45.5363L134.624 30.3286H93V63.8166C93 64.509 93.1364 65.1947 93.4014 65.8344C93.6663 66.4741 94.0547 67.0553 94.5443 67.5449C95.0339 68.0345 95.6152 68.4228 96.2549 68.6878C96.8946 68.9527 97.5801 69.0892 98.2726 69.0891H104.048C105.447 69.0891 106.788 69.6447 107.777 70.6335C108.765 71.6223 109.321 72.9633 109.321 74.3617V95.7172C109.321 96.905 109.722 98.058 110.459 98.9893C111.196 99.9207 112.226 100.576 113.382 100.849C114.538 101.122 115.752 100.996 116.828 100.493C117.904 99.9894 118.778 99.1376 119.309 98.0752L138.148 60.3987C138.55 59.5949 138.739 58.7016 138.699 57.8038C138.659 56.906 138.389 56.0334 137.917 55.2689C137.444 54.5044 136.784 53.8734 135.999 53.4358C135.214 52.9981 134.331 52.7682 133.432 52.7682Z" fill="#A8CF4E"/>
</svg>
