<svg width="155" height="118" viewBox="0 0 155 118" fill="none" xmlns="http://www.w3.org/2000/svg">
<path d="M67.6439 58.6157H23.7512V116.779H67.6439V58.6157Z" fill="#F2F2F2"/>
<path d="M85.8064 116.779H66.9952V58.6159L72.4007 41.1021L85.8064 58.6159V116.779Z" fill="#F2F2F2"/>
<path d="M51.2113 97.103H39.7516V116.779H51.2113V97.103Z" fill="#5D5D5D"/>
<path d="M51.0318 68.0215H40.5796V85.9678H51.0318V68.0215Z" fill="#5D5D5D"/>
<path d="M67.1034 84.2378H23.2107V89.8595H67.1034V84.2378Z" fill="#CCCCCC"/>
<path d="M23.7513 58.6152H0V116.779H23.7513V58.6152Z" fill="#F2F2F2"/>
<path d="M7.75062 97.1016H0V116.779H7.75062V97.1016Z" fill="#5D5D5D"/>
<path d="M6.92289 68.0215H0V85.9683H6.92289V68.0215Z" fill="#5D5D5D"/>
<path d="M24.2917 84.2373H0V89.8604H24.2917V84.2373Z" fill="#CCCCCC"/>
<path d="M90.5381 61.7174C90.2405 62.4288 89.5769 62.87 88.8073 62.87H88.8039L85.8076 62.8666L78.358 62.8564H78.0536L76.1997 62.8529L67.6453 62.8393H66.9954L26.3303 62.7811C26.2892 62.8051 25.3623 62.829 23.7513 62.8529C19.575 62.9179 10.8119 62.9795 1.03297 63.0308C0.690928 63.0342 0.345464 63.0342 0 63.0376V41C0.34204 41.0034 0.687504 41.0034 1.03297 41.0034C16.4898 41.065 33.4755 41.1539 33.6636 41.2736H71.3222C71.654 41.2736 71.9824 41.3626 72.2663 41.5336C72.4134 41.6122 72.5467 41.7183 72.6665 41.838L74.0209 43.2198L74.7221 43.9347L90.1481 59.672C90.6886 60.2226 90.8391 61.0059 90.5381 61.7174Z" fill="#5D5D5D"/>
<path d="M27.0006 62.9077H22.8961V116.95H27.0006V62.9077Z" fill="#F2F2F2"/>
<path d="M30.8139 91.9482C30.8139 85.6526 25.7068 70.7134 19.4069 70.7134C13.1071 70.7134 8 85.6526 8 91.9482C8 94.9735 9.20181 97.875 11.341 100.014C13.4803 102.153 16.3817 103.355 19.407 103.355C22.4323 103.355 25.3337 102.153 27.4729 100.014C29.6121 97.875 30.8139 94.9735 30.8139 91.9482Z" fill="#A8CF4E"/>
<path d="M19.7634 117.453C19.6689 117.453 19.5782 117.416 19.5114 117.349C19.4445 117.282 19.407 117.192 19.407 117.097V85.3213C19.407 85.2268 19.4445 85.1361 19.5114 85.0693C19.5782 85.0024 19.6689 84.9648 19.7634 84.9648C19.858 84.9648 19.9487 85.0024 20.0155 85.0693C20.0824 85.1361 20.1199 85.2268 20.1199 85.3213V117.097C20.1199 117.192 20.0824 117.282 20.0155 117.349C19.9487 117.416 19.858 117.453 19.7634 117.453Z" fill="#CCCCCC"/>
<path d="M19.7634 90.5306C19.6929 90.5306 19.624 90.5097 19.5654 90.4705C19.5068 90.4313 19.4611 90.3756 19.4341 90.3105C19.4071 90.2454 19.4001 90.1737 19.4138 90.1046C19.4276 90.0355 19.4615 89.9719 19.5113 89.9221L24.1731 85.2602C24.2399 85.1933 24.3306 85.1558 24.4251 85.1558C24.5197 85.1558 24.6103 85.1933 24.6772 85.2602C24.744 85.327 24.7816 85.4177 24.7816 85.5122C24.7816 85.6067 24.744 85.6974 24.6772 85.7642L20.0154 90.4262C19.9824 90.4593 19.9431 90.4856 19.8998 90.5035C19.8566 90.5215 19.8102 90.5306 19.7634 90.5306Z" fill="#CCCCCC"/>
<path d="M148 81.6787C148 72.8481 140.837 51.8936 132 51.8936C123.163 51.8936 116 72.8481 116 81.6787C116 85.9221 117.686 89.9918 120.686 92.9923C123.687 95.9929 127.757 97.6786 132 97.6786C136.243 97.6786 140.313 95.9929 143.314 92.9923C146.314 89.9918 148 85.9221 148 81.6787Z" fill="#A8CF4E"/>
<path d="M132.5 117.454C132.367 117.454 132.24 117.401 132.146 117.307C132.053 117.213 132 117.086 132 116.954V72.3833C132 72.2507 132.053 72.1235 132.146 72.0298C132.24 71.936 132.367 71.8833 132.5 71.8833C132.633 71.8833 132.76 71.936 132.854 72.0298C132.947 72.1235 133 72.2507 133 72.3833V116.954C133 117.086 132.947 117.213 132.854 117.307C132.76 117.401 132.633 117.454 132.5 117.454Z" fill="#CCCCCC"/>
<path d="M132.5 79.6904C132.401 79.6903 132.304 79.661 132.222 79.6061C132.14 79.5511 132.076 79.473 132.038 79.3817C132 79.2903 131.99 79.1898 132.01 79.0929C132.029 78.9959 132.076 78.9068 132.146 78.8369L138.685 72.2978C138.779 72.2041 138.906 72.1514 139.039 72.1514C139.171 72.1514 139.298 72.2041 139.392 72.2978C139.486 72.3916 139.539 72.5187 139.539 72.6513C139.539 72.7839 139.486 72.9111 139.392 73.0049L132.853 79.5439C132.807 79.5904 132.752 79.6273 132.691 79.6524C132.631 79.6776 132.566 79.6904 132.5 79.6904Z" fill="#CCCCCC"/>
<path d="M116.432 23.4395C115.57 23.4395 114.721 23.2284 113.96 22.8245C113.199 22.4205 112.549 21.8361 112.065 21.1225C111.582 20.4089 111.282 19.5876 111.189 18.7308C111.097 17.874 111.217 17.0077 111.537 16.2076L117.624 1H76V34.488C76 35.1804 76.1364 35.8661 76.4014 36.5058C76.6663 37.1455 77.0547 37.7267 77.5443 38.2163C78.0339 38.7059 78.6152 39.0942 79.2549 39.3592C79.8946 39.6241 80.5801 39.7605 81.2726 39.7605H87.0484C88.4468 39.7605 89.7879 40.3161 90.7767 41.3049C91.7655 42.2937 92.321 43.6347 92.321 45.0331V66.3886C92.321 67.5764 92.722 68.7294 93.4591 69.6607C94.1962 70.5921 95.2262 71.2472 96.3821 71.5201C97.5381 71.793 98.7524 71.6676 99.8282 71.1642C100.904 70.6608 101.778 69.8089 102.309 68.7466L121.148 31.0701C121.55 30.2662 121.739 29.373 121.699 28.4752C121.659 27.5774 121.389 26.7048 120.917 25.9403C120.444 25.1757 119.784 24.5448 118.999 24.1071C118.214 23.6695 117.331 23.4396 116.432 23.4395Z" fill="#A8CF4E"/>
</svg>
