<svg width="155" height="118" viewBox="0 0 155 118" fill="none" xmlns="http://www.w3.org/2000/svg">
<path d="M116.979 26.6997H51.6328C45.8742 26.6997 41.2059 31.368 41.2059 37.1266V87.8601C41.2059 93.6187 45.8742 98.2869 51.6328 98.2869H116.979C122.738 98.2869 127.406 93.6187 127.406 87.8601V37.1266C127.406 31.368 122.738 26.6997 116.979 26.6997Z" fill="url(#paint0_linear_1_2580)"/>
<path d="M116.052 27.751H52.6841C46.9255 27.751 42.2572 32.4192 42.2572 38.1778V86.8076C42.2572 92.5662 46.9255 97.2345 52.6841 97.2345H116.052C121.81 97.2345 126.478 92.5662 126.478 86.8076V38.1778C126.478 32.4192 121.81 27.751 116.052 27.751Z" fill="#CCCCCC"/>
<path d="M88.2497 56.5819C88.5456 56.5825 88.8293 56.7004 89.0385 56.9096C89.2478 57.1189 89.3656 57.4025 89.3662 57.6984V67.2956C89.3656 67.5915 89.2478 67.8751 89.0385 68.0844C88.8293 68.2936 88.5456 68.4114 88.2497 68.4121H79.5669C79.271 68.4114 78.9874 68.2936 78.7781 68.0844C78.5689 67.8751 78.4511 67.5915 78.4504 67.2956V57.6984C78.4511 57.4025 78.5689 57.1189 78.7781 56.9096C78.9874 56.7004 79.271 56.5825 79.5669 56.5819H88.2521M88.2521 56.1118H79.5669C79.1462 56.1118 78.7426 56.279 78.445 56.5765C78.1475 56.8741 77.9803 57.2776 77.9803 57.6984V67.2956C77.9803 67.7164 78.1475 68.1199 78.445 68.4175C78.7426 68.715 79.1462 68.8822 79.5669 68.8822H88.2521C88.6729 68.8822 89.0764 68.715 89.374 68.4175C89.6715 68.1199 89.8387 67.7164 89.8387 67.2956V57.6984C89.8387 57.2776 89.6715 56.8741 89.374 56.5765C89.0764 56.279 88.6729 56.1118 88.2521 56.1118Z" fill="#E6E6E6"/>
<path d="M62.0253 71.9148H44.5996C44.3355 71.9148 44.0823 71.8099 43.8955 71.6232C43.7088 71.4365 43.6039 71.1832 43.6039 70.9191C43.6039 70.655 43.7088 70.4017 43.8955 70.215C44.0823 70.0282 44.3355 69.9233 44.5996 69.9233H62.0253C62.2894 69.9233 62.5427 70.0282 62.7294 70.215C62.9161 70.4017 63.021 70.655 63.021 70.9191C63.021 71.1832 62.9161 71.4365 62.7294 71.6232C62.5427 71.8099 62.2894 71.9148 62.0253 71.9148Z" fill="#CCCCCC"/>
<path d="M62.0253 83.8641H44.5996C44.3355 83.8641 44.0823 83.7592 43.8955 83.5724C43.7088 83.3857 43.6039 83.1324 43.6039 82.8683C43.6039 82.6042 43.7088 82.3509 43.8955 82.1642C44.0823 81.9775 44.3355 81.8726 44.5996 81.8726H62.0253C62.2894 81.8726 62.5427 81.9775 62.7294 82.1642C62.9161 82.3509 63.021 82.6042 63.021 82.8683C63.021 83.1324 62.9161 83.3857 62.7294 83.5724C62.5427 83.7592 62.2894 83.8641 62.0253 83.8641Z" fill="#CCCCCC"/>
<path d="M62.0253 77.8895H44.5996C44.3355 77.8895 44.0823 77.7845 43.8955 77.5978C43.7088 77.4111 43.6039 77.1578 43.6039 76.8937C43.6039 76.6296 43.7088 76.3763 43.8955 76.1896C44.0823 76.0029 44.3355 75.8979 44.5996 75.8979H62.0253C62.2894 75.8979 62.5427 76.0029 62.7294 76.1896C62.9161 76.3763 63.021 76.6296 63.021 76.8937C63.021 77.1578 62.9161 77.4111 62.7294 77.5978C62.5427 77.7845 62.2894 77.8895 62.0253 77.8895Z" fill="#CCCCCC"/>
<path d="M72.1677 36.5726H71.692V23.542C71.692 21.5418 70.8974 19.6234 69.483 18.209C68.0686 16.7946 66.1502 16 64.15 16H36.542C34.5418 16 32.6234 16.7946 31.209 18.209C29.7946 19.6234 29 21.5418 29 23.542V95.03C29 97.0302 29.7946 98.9486 31.209 100.363C32.6234 101.777 34.5418 102.572 36.542 102.572H64.15C66.1502 102.572 68.0685 101.777 69.4829 100.363C70.8973 98.9485 71.6919 97.0302 71.6919 95.03V45.848H72.1675L72.1677 36.5726Z" fill="#F2F2F2"/>
<path d="M39.335 72.2911C40.0911 72.2911 40.7041 71.6781 40.7041 70.9219C40.7041 70.1657 40.0911 69.5527 39.335 69.5527C38.5788 69.5527 37.9658 70.1657 37.9658 70.9219C37.9658 71.6781 38.5788 72.2911 39.335 72.2911Z" fill="#5D5D5D"/>
<path d="M56.6216 71.931H44.5285C44.2612 71.931 44.0049 71.8249 43.8159 71.6359C43.6269 71.4469 43.5208 71.1906 43.5208 70.9233C43.5208 70.656 43.6269 70.3997 43.8159 70.2107C44.0049 70.0217 44.2612 69.9155 44.5285 69.9155H56.6216C56.8889 69.9155 57.1452 70.0217 57.3342 70.2107C57.5232 70.3997 57.6294 70.656 57.6294 70.9233C57.6294 71.1906 57.5232 71.4469 57.3342 71.6359C57.1452 71.8249 56.8889 71.931 56.6216 71.931Z" fill="#A8CF4E"/>
<path d="M39.335 78.2657C40.0911 78.2657 40.7041 77.6527 40.7041 76.8965C40.7041 76.1403 40.0911 75.5273 39.335 75.5273C38.5788 75.5273 37.9658 76.1403 37.9658 76.8965C37.9658 77.6527 38.5788 78.2657 39.335 78.2657Z" fill="#5D5D5D"/>
<path d="M52.6386 77.9056H44.5285C44.2612 77.9056 44.0049 77.7995 43.8159 77.6105C43.6269 77.4215 43.5208 77.1652 43.5208 76.8979C43.5208 76.6306 43.6269 76.3743 43.8159 76.1853C44.0049 75.9963 44.2612 75.8901 44.5285 75.8901H52.6386C52.9059 75.8901 53.1622 75.9963 53.3512 76.1853C53.5402 76.3743 53.6464 76.6306 53.6464 76.8979C53.6464 77.1652 53.5402 77.4215 53.3512 77.6105C53.1622 77.7995 52.9059 77.9056 52.6386 77.9056Z" fill="#A8CF4E"/>
<path d="M39.335 84.2403C40.0911 84.2403 40.7041 83.6273 40.7041 82.8711C40.7041 82.1149 40.0911 81.502 39.335 81.502C38.5788 81.502 37.9658 82.1149 37.9658 82.8711C37.9658 83.6273 38.5788 84.2403 39.335 84.2403Z" fill="#5D5D5D"/>
<path d="M59.8578 83.8803H44.5285C44.2612 83.8803 44.0049 83.7741 43.8159 83.5851C43.6269 83.3961 43.5208 83.1398 43.5208 82.8725C43.5208 82.6052 43.6269 82.3489 43.8159 82.1599C44.0049 81.9709 44.2612 81.8647 44.5285 81.8647H59.8578C60.1251 81.8647 60.3814 81.9709 60.5704 82.1599C60.7594 82.3489 60.8656 82.6052 60.8656 82.8725C60.8656 83.1398 60.7594 83.3961 60.5704 83.5851C60.3814 83.7741 60.1251 83.8803 59.8578 83.8803Z" fill="#A8CF4E"/>
<path fill-rule="evenodd" clip-rule="evenodd" d="M63.7846 42.5891L51.2927 31.1265C51.2041 31.0451 51.0879 31 50.9673 31C50.8467 31 50.7305 31.0452 50.6419 31.1265L44.9302 36.3694V34.0432C44.9302 34.0432 44.8797 33.7954 44.7897 33.706C44.6997 33.6166 44.4505 33.5663 44.4505 33.5663H43.4912C43.3639 33.5663 43.2419 33.6166 43.152 33.706C43.152 33.706 43.0115 33.9167 43.0115 34.0432V38.1306L38.1543 42.5891C38.0834 42.6542 38.0339 42.739 38.0122 42.8325C37.9906 42.926 37.9978 43.0238 38.0329 43.1131C38.0681 43.2025 38.1295 43.2792 38.2092 43.3333C38.2889 43.3874 38.3832 43.4163 38.4797 43.4163H40.8844C41.0116 43.4163 41.1336 43.4666 41.2235 43.556C41.3135 43.6454 41.364 43.7667 41.364 43.8931V55.5232C41.364 55.6496 41.4146 55.7709 41.5045 55.8603C41.5945 55.9498 41.7165 56 41.8437 56H60.0908C60.218 56 60.34 55.9498 60.43 55.8603C60.5199 55.7709 60.5705 55.6496 60.5705 55.5232V43.8931C60.5705 43.7667 60.621 43.6454 60.711 43.556C60.8009 43.4665 60.9229 43.4163 61.0501 43.4163H63.4593C63.5558 43.4163 63.65 43.3874 63.7297 43.3333C63.8094 43.2792 63.8709 43.2024 63.906 43.1131C63.9412 43.0238 63.9484 42.9259 63.9267 42.8325C63.9051 42.739 63.8555 42.6542 63.7846 42.5891ZM50.7663 42.4054C49.8659 42.3686 48.9673 42.5124 48.1233 42.8285C47.2794 43.1445 46.5074 43.6264 45.8526 44.2456C45.7553 44.3378 45.6266 44.3898 45.4924 44.3909C45.3583 44.392 45.2287 44.3422 45.1298 44.2516L44.5292 43.7004C44.4756 43.6513 44.4326 43.5916 44.4029 43.5251C44.3732 43.4587 44.3575 43.3869 44.3568 43.3141C44.356 43.2413 44.3702 43.1692 44.3984 43.1021C44.4267 43.035 44.4684 42.9745 44.521 42.9242C46.126 41.3887 48.2604 40.5299 50.4815 40.5257C52.7027 40.5216 54.8402 41.3724 56.4509 42.9019C56.5037 42.952 56.5456 43.0124 56.5742 43.0794C56.6027 43.1463 56.6172 43.2184 56.6167 43.2912C56.6163 43.364 56.6009 43.4359 56.5716 43.5025C56.5422 43.5691 56.4995 43.629 56.4461 43.6785L55.8486 44.2306C55.7507 44.3215 55.622 44.372 55.4883 44.3719C55.3547 44.3718 55.226 44.3212 55.1282 44.2302C53.9419 43.1157 52.3928 42.4676 50.7663 42.4054ZM55.0271 45.2156C53.8484 44.1356 52.3244 43.5093 50.7269 43.4483C49.8401 43.4123 48.9548 43.5515 48.1218 43.858C47.2888 44.1645 46.5245 44.6323 45.8725 45.2346C45.819 45.2845 45.7764 45.345 45.7474 45.4123C45.7183 45.4795 45.7036 45.552 45.704 45.6252C45.7044 45.6985 45.72 45.7708 45.7498 45.8377C45.7796 45.9046 45.8229 45.9646 45.877 46.0139L46.3247 46.4244C46.4226 46.5137 46.5504 46.5633 46.6829 46.5633C46.8155 46.5633 46.9432 46.5138 47.0412 46.4245C47.977 45.5805 49.192 45.1125 50.4522 45.1106C51.7123 45.1088 52.9287 45.5731 53.8671 46.4142C53.9653 46.5024 54.093 46.5507 54.225 46.5498C54.357 46.5488 54.4839 46.4985 54.5809 46.4089L55.0272 45.9964C55.0811 45.9466 55.1242 45.8863 55.1536 45.8191C55.1831 45.7519 55.1983 45.6793 55.1983 45.606C55.1983 45.5326 55.1831 45.46 55.1536 45.3928C55.1241 45.3257 55.0811 45.2653 55.0271 45.2156ZM50.5634 47.5078C49.6266 47.4699 48.7098 47.7853 47.9945 48.3914C47.8956 48.4772 47.7688 48.5238 47.638 48.5224C47.5071 48.5211 47.3813 48.4719 47.2843 48.3841L47.0679 48.1854C47.0125 48.1344 46.9686 48.0723 46.9389 48.003C46.9093 47.9338 46.8947 47.8591 46.8961 47.7839C46.8975 47.7086 46.9148 47.6345 46.9469 47.5664C46.9791 47.4983 47.0253 47.4378 47.0825 47.3889C48.0088 46.5901 49.1912 46.1504 50.4143 46.1499C51.6375 46.1495 52.8202 46.5883 53.7471 47.3864C53.8026 47.4355 53.8471 47.4958 53.8778 47.5632C53.9086 47.6307 53.9247 47.7039 53.9253 47.778C53.9259 47.8521 53.9108 47.9256 53.8812 47.9935C53.8515 48.0614 53.8079 48.1224 53.7531 48.1723L53.5369 48.3725C53.4401 48.4605 53.3145 48.5101 53.1836 48.5119C53.0528 48.5137 52.9259 48.4675 52.8268 48.3821C52.1906 47.8469 51.3941 47.5392 50.5634 47.5078ZM50.4083 52.8802C51.3206 52.8802 52.0601 52.1406 52.0601 51.2283C52.0601 50.316 51.3206 49.5764 50.4083 49.5764C49.496 49.5764 48.7564 50.316 48.7564 51.2283C48.7564 52.1406 49.496 52.8802 50.4083 52.8802Z" fill="#A8CF4E"/>
<defs>
<linearGradient id="paint0_linear_1_2580" x1="84.3049" y1="98.2893" x2="84.3049" y2="26.6997" gradientUnits="userSpaceOnUse">
<stop stop-color="#808080" stop-opacity="0.25"/>
<stop offset="0.54" stop-color="#808080" stop-opacity="0.12"/>
<stop offset="1" stop-color="#808080" stop-opacity="0.1"/>
</linearGradient>
</defs>
</svg>
