<svg width="32" height="32" viewBox="0 0 32 32" fill="none" xmlns="http://www.w3.org/2000/svg">
<g clip-path="url(#clip0_216_2)">
<path fill-rule="evenodd" clip-rule="evenodd" d="M6.66211 6.59419V6.5654V6.53664V6.50791V6.47921V6.45054V6.42189V6.39328V6.36469V6.33613V6.30761V6.27911V6.25064V6.2222V6.19379V6.16541V6.13706V6.10874V6.08045V6.05219V6.02396V5.99576V5.9676V5.93946V5.91135V5.88328V5.85523V5.82722V5.79924V5.77129V5.74337V5.71548V5.68762V5.6598V5.63201V5.60425V5.57652V5.54882V5.52116V5.49353V5.46593V5.43836V5.41083V5.38333V5.35586V5.32843V5.30103V5.27366V5.24633V5.21903V5.19176V5.16453V5.13733V5.11016V5.08303V5.05594V5.02887V5.00185V4.97485V4.94789V4.92097V4.89408V4.86723V4.84041V4.81362V4.78687V4.76016V4.73348V4.70684V4.68023V4.65366V4.62713V4.60063V4.57417V4.54774V4.52135V4.495V4.46868V4.4424V4.41616V4.38995V4.36378V4.33765V4.31155V4.2855V4.25948V4.23349V4.20755V4.18164V4.15577V4.12994V4.10415V4.07839V4.05268V4.027V4.00136V3.97576V3.9502V3.92468V3.89919V3.87375V3.84834V3.82298V3.79765V3.77236V3.74711V3.72191V3.69674V3.67161V3.64652V3.62148V3.59647V3.5715V3.54658V3.52169V3.49684V3.47204V3.44728V3.42256V3.39787V3.37324V3.34864V3.32408V3.29957V3.27509V3.25066V3.22627V3.20192V3.17762V3.15336V3.12914V3.10496V3.08082V3.05673V3.03268V3.00867V2.98471V2.96079V2.93691V2.91308V2.88929V2.86554V2.84184V2.81818V2.79456V2.77099V2.74746V2.72398V2.70054V2.67715V2.6538V2.63049V2.60723V2.58401V2.56084V2.53772V2.51464V2.4916V2.46862V2.44567V2.42277V2.39992V2.37711V2.35435V2.33164V2.30897V2.28635V2.26377V2.24125V2.21876V2.19633V2.17394V2.1516V2.1293V2.10706V2.08486V2.0627V2.0406V2.01854V1.99653V1.97457V1.95266V1.93079V1.90897V1.8872V1.86548V1.84381V1.82219V1.80061V1.77909V1.75761V1.73618V1.7148V1.69347V1.67219V1.65096V1.62978V1.60865V1.58756V1.56653V1.54555V1.52462V1.50374V1.48291V1.46212V1.44139V1.42072V1.40009V1.37951V1.35898V1.33851V1.31808V1.29771V1.27739V1.25712V1.2369V1.21673V1.19662V1.17656V1.15654V1.13659V1.11668V1.09683V1.07703V1.05728V1.03758V1.01794V0.998349V0.978812V0.959328V0.939898V0.920521V0.901198V0.881928V0.862713V0.84355V0.824442V0.805388V0.786389V0.767443V0.748552V0.729715V0.710933V0.692206V0.673533V0.654916V0.636353V0.617846V0.599394V0.580997V0.562656V0.54437V0.526141V0.507967V0.489848V0.471786V0.45378V0.435831V0.417937V0.4001V0.38232V0.364597V0.34693V0.32932V0.311767V0.294271V0.276833V0.259452V0.242128V0.224862V0.207653V0.190503V0.17341V0.156375V0.139398V0.12248V0.10562V0.0888181V0.0720749V0.0553904V0.0387647V0.0221977V0.00568986V-0.010759V-0.0271485V-0.0434788V-0.0597497V-0.075961V-0.0921127V-0.108205V-0.124237V-0.140209V-0.156121V-0.171973V-0.187764V-0.203496V-0.219166V-0.234776V-0.250326V-0.265814V-0.281242V-0.296608V-0.311913V-0.327157V-0.34234V-0.357461V-0.372521V-0.387519V-0.402455V-0.417329V-0.432141V-0.446891V-0.461578V-0.476204V-0.490767V-0.505267V-0.519704V-0.534079V-0.548391V-0.56264V-0.576825V-0.590948V-0.605007V-0.619002V-0.632934V-0.646803V-0.660607V-0.674348V-0.688025V-0.701637V-0.715186V-0.72867V-0.742089V-0.755444V-0.768735V-0.78196V-0.795121V-0.808217V-0.821247V-0.834213V-0.847113V-0.859948V-0.872717V-0.88542V-0.898058V-0.91063V-0.923136V-0.935576V-0.94795V-0.960257V-0.972498V-0.984672V-0.99678V-1.00882V-1.0208V-1.0327V-1.04454V-1.05632V-1.06802V-1.07966V-1.09123V-1.10273V-1.11417V-1.12554V-1.13684V-1.14807V-1.15923V-1.17033V-1.18136V-1.19231V-1.2032V-1.21403V-1.22478V-1.23546V-1.24608V-1.25662V-1.2671V-1.2775V-1.28784V-1.29811V-1.30831V-1.31844V-1.32849V-1.33848V-1.3484V-1.35825V-1.36803V-1.37773V-1.38737V-1.39694V-1.40643V-1.41586V-1.42521V-1.43449V-1.4437V-1.45284V-1.46191V-1.47091V-1.47983V-1.48869V-1.49747V-1.50618V-1.51482V-1.52338V-1.53187V-1.54029V-1.54864V-1.55692V-1.56512V-1.57325V-1.58131V-1.58929V-1.5972V-1.60504V-1.6128V-1.62049V-1.62811V-1.63565V-1.64312V-1.65052V-1.65784V-1.66509V-1.67226V-1.67936V-1.68638V-1.69333V-1.70021V-1.70701V-1.71373V-1.72038V-1.72696V-1.73346V-1.73988V-1.74623V-1.7525V-1.7587V-1.76482V-1.77087V-1.77684V-1.78273V-1.78855V-1.79429V-1.79995V-1.80554V-1.81105V-1.81649V-1.82185V-1.82713V-1.83233V-1.83746V-1.84251V-1.84748V-1.85237V-1.85719V-1.86193V-1.86659V-1.87117V-1.87568V-1.8801V-1.88445V-1.88872V-1.89291V-1.89703V-1.90106V-1.90502V-1.90889V-1.91269V-1.91641V-1.92005V-1.92361V-1.92708V-1.93049V-1.93381V-1.93705V-1.94021V-1.94329V-1.94629V-1.94921V-1.95205V-1.95481V-1.95749V-1.96008V-1.9626V-1.96504V-1.96739V-1.96967V-1.97186V-1.97397V-1.976V-1.97795V-1.97982V-1.9816V-1.98331V-1.98493V-1.98647V-1.98792V-1.9893V-1.99059V-1.9918V-1.99293V-1.99397V-1.99493V-1.99581V-1.9966V-1.99731V-1.99794V-1.99849V-1.99895V-1.99933V-1.99962V-1.99983V-1.99996L5.16211 -2L3.66211 -1.99996V-1.99983V-1.99962V-1.99933V-1.99895V-1.99849V-1.99794V-1.99731V-1.9966V-1.99581V-1.99493V-1.99397V-1.99293V-1.9918V-1.99059V-1.9893V-1.98792V-1.98647V-1.98493V-1.98331V-1.9816V-1.97982V-1.97795V-1.976V-1.97397V-1.97186V-1.96967V-1.96739V-1.96504V-1.9626V-1.96008V-1.95749V-1.95481V-1.95205V-1.94921V-1.94629V-1.94329V-1.94021V-1.93705V-1.93381V-1.93049V-1.92708V-1.92361V-1.92005V-1.91641V-1.91269V-1.90889V-1.90502V-1.90106V-1.89703V-1.89291V-1.88872V-1.88445V-1.8801V-1.87568V-1.87117V-1.86659V-1.86193V-1.85719V-1.85237V-1.84748V-1.84251V-1.83746V-1.83233V-1.82713V-1.82185V-1.81649V-1.81105V-1.80554V-1.79995V-1.79429V-1.78855V-1.78273V-1.77684V-1.77087V-1.76482V-1.7587V-1.7525V-1.74623V-1.73988V-1.73346V-1.72696V-1.72038V-1.71373V-1.70701V-1.70021V-1.69333V-1.68638V-1.67936V-1.67226V-1.66509V-1.65784V-1.65052V-1.64312V-1.63565V-1.62811V-1.62049V-1.6128V-1.60504V-1.5972V-1.58929V-1.58131V-1.57325V-1.56512V-1.55692V-1.54864V-1.54029V-1.53187V-1.52338V-1.51482V-1.50618V-1.49747V-1.48869V-1.47983V-1.47091V-1.46191V-1.45284V-1.4437V-1.43449V-1.42521V-1.41586V-1.40643V-1.39694V-1.38737V-1.37773V-1.36803V-1.35825V-1.3484V-1.33848V-1.32849V-1.31844V-1.30831V-1.29811V-1.28784V-1.2775V-1.2671V-1.25662V-1.24608V-1.23546V-1.22478V-1.21403V-1.2032V-1.19231V-1.18136V-1.17033V-1.15923V-1.14807V-1.13684V-1.12554V-1.11417V-1.10273V-1.09123V-1.07966V-1.06802V-1.05632V-1.04454V-1.0327V-1.0208V-1.00882V-0.99678V-0.984672V-0.972498V-0.960257V-0.94795V-0.935576V-0.923136V-0.91063V-0.898058V-0.88542V-0.872717V-0.859948V-0.847113V-0.834213V-0.821247V-0.808217V-0.795121V-0.78196V-0.768735V-0.755444V-0.742089V-0.72867V-0.715186V-0.701637V-0.688025V-0.674348V-0.660607V-0.646803V-0.632934V-0.619002V-0.605007V-0.590948V-0.576825V-0.56264V-0.548391V-0.534079V-0.519704V-0.505267V-0.490767V-0.476204V-0.461578V-0.446891V-0.432141V-0.417329V-0.402455V-0.387519V-0.372521V-0.357461V-0.34234V-0.327157V-0.311913V-0.296608V-0.281242V-0.265814V-0.250326V-0.234776V-0.219166V-0.203496V-0.187764V-0.171973V-0.156121V-0.140209V-0.124237V-0.108205V-0.0921127V-0.075961V-0.0597497V-0.0434788V-0.0271485V-0.010759V0.00568986V0.0221977V0.0387647V0.0553904V0.0720749V0.0888181V0.10562V0.12248V0.139398V0.156375V0.17341V0.190503V0.207653V0.224862V0.242128V0.259452V0.276833V0.294271V0.311767V0.32932V0.34693V0.364597V0.38232V0.4001V0.417937V0.435831V0.45378V0.471786V0.489848V0.507967V0.526141V0.54437V0.562656V0.580997V0.599394V0.617846V0.636353V0.654916V0.673533V0.692206V0.710933V0.729715V0.748552V0.767443V0.786389V0.805388V0.824442V0.84355V0.862713V0.881928V0.901198V0.920521V0.939898V0.959328V0.978812V0.998349V1.01794V1.03758V1.05728V1.07703V1.09683V1.11668V1.13659V1.15654V1.17656V1.19662V1.21673V1.2369V1.25712V1.27739V1.29771V1.31808V1.33851V1.35898V1.37951V1.40009V1.42072V1.44139V1.46212V1.48291V1.50374V1.52462V1.54555V1.56653V1.58756V1.60865V1.62978V1.65096V1.67219V1.69347V1.7148V1.73618V1.75761V1.77909V1.80061V1.82219V1.84381V1.86548V1.8872V1.90897V1.93079V1.95266V1.97457V1.99653V2.01854V2.0406V2.0627V2.08486V2.10706V2.1293V2.1516V2.17394V2.19633V2.21876V2.24125V2.26377V2.28635V2.30897V2.33164V2.35435V2.37711V2.39992V2.42277V2.44567V2.46862V2.4916V2.51464V2.53772V2.56084V2.58401V2.60723V2.63049V2.6538V2.67715V2.70054V2.72398V2.74746V2.77099V2.79456V2.81818V2.84184V2.86554V2.88929V2.91308V2.93691V2.96079V2.98471V3.00867V3.03268V3.05673V3.08082V3.10496V3.12914V3.15336V3.17762V3.20192V3.22627V3.25066V3.27509V3.29957V3.32408V3.34864V3.37324V3.39787V3.42256V3.44728V3.47204V3.49684V3.52169V3.54658V3.5715V3.59647V3.62148V3.64652V3.67161V3.69674V3.72191V3.74711V3.77236V3.79765V3.82298V3.84834V3.87375V3.89919V3.92468V3.9502V3.97576V4.00136V4.027V4.05268V4.07839V4.10415V4.12994V4.15577V4.18164V4.20755V4.23349V4.25948V4.2855V4.31155V4.33765V4.36378V4.38995V4.41616V4.4424V4.46868V4.495V4.52135V4.54774V4.57417V4.60063V4.62713V4.65366V4.68023V4.70684V4.73348V4.76016V4.78687V4.81362V4.84041V4.86723V4.89408V4.92097V4.94789V4.97485V5.00185V5.02887V5.05594V5.08303V5.11016V5.13733V5.16453V5.19176V5.21903V5.24633V5.27366V5.30103V5.32843V5.35586V5.38333V5.41083V5.43836V5.46593V5.49353V5.52116V5.54882V5.57652V5.60425V5.63201V5.6598V5.68762V5.71548V5.74337V5.77129V5.79924V5.82722V5.85523V5.88328V5.91135V5.93946V5.9676V5.99576V6.02396V6.05219V6.08045V6.10874V6.13706V6.16541V6.19379V6.2222V6.25064V6.27911V6.30761V6.33613V6.36469V6.39328V6.42189V6.45054V6.47921V6.50791V6.53664V6.5654V6.59419C3.66211 9.10049 5.01075 11.2122 6.54988 12.6872C7.50917 13.6065 8.63097 14.365 9.73026 14.8694C7.34771 19.0713 7.20311 19.838 7.70416 21.8087C8.26096 23.9981 9.01062 24.679 14.0981 27.6163L18.2265 29.9998L19.036 28.5976L19.8455 27.1955L16.1273 25.0487C12.0206 22.6777 11.555 22.2444 11.6192 20.8524C11.6423 20.3555 11.9794 19.5262 12.5853 18.4768L13.5162 16.8644L17.4249 19.121L21.3336 21.3777L22.1431 19.9756L22.9527 18.5734L19.044 16.3167L15.1353 14.0601L16.0663 12.4476C16.6721 11.3982 17.2218 10.6915 17.6405 10.4232C18.8085 9.67506 19.4304 9.86294 23.4285 12.1712L27.0465 14.2601L27.856 12.858L28.6656 11.4558L24.5025 9.06108C20.9559 7.02067 20.144 6.62805 19.0187 6.40804C17.3592 6.0837 15.3751 6.65813 14.1729 7.81087C13.6283 8.33319 12.8103 9.56544 11.2376 12.2538C10.4403 11.9282 9.48094 11.341 8.6256 10.5212C7.42936 9.37484 6.66211 7.9937 6.66211 6.59419Z" fill="#FFF1B7"/>
</g>
<defs>
<clipPath id="clip0_216_2">
<rect width="32" height="32" fill="white"/>
</clipPath>
</defs>
</svg>
