<svg width="32" height="32" viewBox="0 0 32 32" fill="none" xmlns="http://www.w3.org/2000/svg">
<path d="M28 23.0909C27.9996 22.6571 27.827 22.2411 27.52 21.9346C27.4328 21.8473 27.3358 21.7705 27.2309 21.7055L22.6109 18.1164C22.3043 17.8094 21.8884 17.6368 21.4546 17.6364C21.0992 17.6395 20.7546 17.7582 20.4727 17.9746L19.1746 19.2727C19.0652 19.3946 18.9298 19.4902 18.7784 19.5526C18.627 19.6149 18.4635 19.6424 18.3 19.633C18.1366 19.6235 17.9773 19.5774 17.8341 19.4981C17.6909 19.4187 17.5674 19.3082 17.4727 19.1746V19.2073C15.6865 17.9175 14.1161 16.3527 12.82 14.5709H12.8582C12.7094 14.4808 12.5844 14.3563 12.4935 14.208C12.4026 14.0597 12.3485 13.8918 12.3357 13.7183C12.3229 13.5448 12.3517 13.3708 12.4199 13.2107C12.488 13.0507 12.5934 12.9092 12.7273 12.7982L14.0091 11.5273C14.2335 11.2487 14.3583 10.9031 14.3637 10.5454C14.3633 10.1116 14.1906 9.69566 13.8837 9.38908L10.2946 4.76909C10.2308 4.66483 10.1558 4.56789 10.0709 4.48C9.91849 4.32736 9.73735 4.20637 9.53796 4.12399C9.33857 4.04161 9.12486 3.99948 8.90912 4C6.72731 4 4.00004 6.56363 4.00004 9.72726C3.99688 10.5759 4.18323 11.4144 4.54549 12.1818C7.87899 18.77 13.23 24.1211 19.8182 27.4545C20.5822 27.8152 21.4169 28.0015 22.2618 28C25.4364 28 28 25.2727 28 23.0909ZM22.2727 26.9091C21.5877 26.9094 20.9112 26.7565 20.2927 26.4618C20.2349 26.4345 20.1746 26.4126 20.1127 26.3964C13.879 23.1995 8.80601 18.1265 5.60913 11.8927C5.59118 11.8289 5.56744 11.7668 5.53822 11.7073C5.24349 11.0888 5.09068 10.4123 5.09095 9.72726C5.09095 7.08181 7.40912 5.09091 8.90912 5.09091C8.98091 5.09049 9.05207 5.10425 9.11853 5.1314C9.18498 5.15854 9.24543 5.19854 9.29639 5.24909C9.32515 5.27911 9.35074 5.31201 9.37276 5.34727L9.43276 5.43454L13.0273 10.0545L13.1146 10.1582C13.1651 10.2091 13.2051 10.2696 13.2323 10.336C13.2594 10.4025 13.2732 10.4737 13.2727 10.5454C13.2737 10.6418 13.2472 10.7364 13.1964 10.8182L11.98 12.0236C11.7702 12.2202 11.6012 12.4563 11.4829 12.7184C11.3646 12.9804 11.2992 13.2633 11.2906 13.5507C11.282 13.8381 11.3303 14.1244 11.4327 14.3931C11.5351 14.6618 11.6896 14.9076 11.8873 15.1164L11.9309 15.1818C13.2984 17.0573 14.9555 18.7033 16.84 20.0582L16.8837 20.0909C17.2907 20.4858 17.8356 20.7066 18.4027 20.7066C18.9699 20.7066 19.5147 20.4858 19.9218 20.0909L19.9818 20.0309L21.2036 18.7982C21.2797 18.7531 21.3662 18.7287 21.4546 18.7273C21.5263 18.7269 21.5975 18.7406 21.664 18.7678C21.7304 18.7949 21.7909 18.8349 21.8418 18.8855L21.9455 18.9782L26.5491 22.5455L26.6418 22.6109C26.6771 22.6308 26.71 22.6546 26.74 22.6818C26.7952 22.7344 26.8388 22.798 26.8679 22.8684C26.897 22.9389 26.9111 23.0147 26.9091 23.0909C26.9073 23.1273 26.9073 23.1637 26.9091 23.2C26.8218 24.6946 24.8582 26.9091 22.2727 26.9091Z" fill="#FBEBC0"/>
</svg>
