<svg width="65" height="65" viewBox="0 0 65 65" fill="none" xmlns="http://www.w3.org/2000/svg">
<g clip-path="url(#clip0_53_157)">
<circle cx="33" cy="33" r="29" fill="#C0D2FB"/>
<path fill-rule="evenodd" clip-rule="evenodd" d="M36.1349 32.323C40.1974 32.323 42.6753 29.6422 42.6753 25.4995V17.9858C42.6753 13.8431 40.4414 11 36.0134 11H33.0066C30.691 11 29.6761 12.2587 29.6761 14.2086V28.0608H29.0019C28.4709 28.0608 27.9617 28.2717 27.5863 28.6471C27.2109 29.0224 27 29.5316 27 30.0624C27 30.6641 27.239 31.2411 27.6645 31.6666C28.0899 32.092 28.6671 32.331 29.2688 32.331H29.6771V43.5203C29.6751 43.8455 29.7375 44.1679 29.8607 44.4688C29.9171 44.6066 29.5664 45.7872 29.1915 47.0488C28.7478 48.5422 28.2705 50.149 28.3948 50.2739C28.4898 50.3694 28.9353 51.3141 29.4459 52.3973C30.1684 53.9296 31.0214 55.7388 31.1974 55.8118C31.4978 55.9364 31.8198 56.0004 32.1451 56C32.4664 55.9972 32.7839 55.9306 33.0792 55.8042C33.2529 55.7299 34.109 53.9056 34.8301 52.3689C35.3349 51.2932 35.7735 50.3585 35.8657 50.2636C35.9872 50.1384 35.5047 48.5259 35.0572 47.0307C34.6808 45.7729 34.3293 44.5982 34.383 44.4617C34.5007 44.1628 34.5579 43.8435 34.5513 43.5224V32.323H36.1349ZM34.8741 14.968H36.0929C37.4332 14.968 38.1641 15.9428 38.1641 18.502V23.8225C38.1641 26.5031 37.474 27.7618 35.9306 27.7618H34.8741V14.968Z" fill="black"/>
</g>
<defs>
<clipPath id="clip0_53_157">
<rect width="65" height="65" fill="white"/>
</clipPath>
</defs>
</svg>
