<svg width="62" height="62" viewBox="0 0 62 62" fill="none" xmlns="http://www.w3.org/2000/svg">
<g clip-path="url(#clip0_29_122)">
<mask id="mask0_29_122" style="mask-type:luminance" maskUnits="userSpaceOnUse" x="0" y="0" width="62" height="62">
<path d="M62 0H0V61.9972H62V0Z" fill="white"/>
</mask>
<g mask="url(#mask0_29_122)">
<path d="M33.0826 16.8772H31.3916V34.6274H32.8574C34.9988 34.6274 35.9562 32.8811 35.9562 29.162V21.7803C35.9562 18.2297 34.9422 16.8772 33.0826 16.8772Z" fill="#FBEBC0"/>
<path d="M60.6721 27.8651H59.843C59.5236 27.8648 59.2149 27.75 58.9728 27.5417C58.7307 27.3333 58.5713 27.0452 58.5234 26.7294L58.5027 26.5913C58.4534 26.2773 58.5177 25.9561 58.6841 25.6853C58.8505 25.4146 59.1081 25.2121 59.4105 25.1143L60.205 24.8573C60.3724 24.8031 60.5274 24.7164 60.6612 24.6023C60.7951 24.4882 60.9051 24.3488 60.985 24.1921C61.065 24.0355 61.1133 23.8646 61.1271 23.6893C61.141 23.5139 61.1202 23.3376 61.0659 23.1703L59.9425 19.7037C59.8883 19.5364 59.8016 19.3814 59.6875 19.2476C59.5733 19.1138 59.434 19.0038 59.2773 18.9238C59.1206 18.8439 58.9497 18.7956 58.7743 18.7817C58.599 18.7679 58.4226 18.7887 58.2553 18.843L57.4594 19.1013C57.1563 19.1996 56.8281 19.1864 56.534 19.064C56.2398 18.9416 55.9991 18.7182 55.8551 18.434L55.7943 18.3152C55.6489 18.0316 55.6098 17.7053 55.6841 17.3954C55.7584 17.0855 55.9411 16.8124 56.1992 16.6254L56.8763 16.1336C57.0187 16.0303 57.1394 15.9 57.2314 15.75C57.3234 15.6001 57.385 15.4335 57.4126 15.2598C57.4401 15.086 57.4332 14.9085 57.3922 14.7375C57.3511 14.5664 57.2768 14.4051 57.1734 14.2628L55.0288 11.3171C54.9255 11.1747 54.7952 11.0541 54.6452 10.9621C54.4953 10.8701 54.3287 10.8085 54.1549 10.7809C53.9812 10.7534 53.8037 10.7603 53.6326 10.8013C53.4615 10.8423 53.3002 10.9167 53.1579 11.0201L52.4794 11.512C52.2217 11.699 51.9056 11.7879 51.5882 11.7625C51.2707 11.7372 50.9728 11.5993 50.748 11.3738L50.654 11.2798C50.4281 11.055 50.29 10.7568 50.2647 10.4391C50.2393 10.1214 50.3284 9.80506 50.5159 9.54726L51.0092 8.87025C51.1128 8.7279 51.1873 8.5665 51.2285 8.3953C51.2696 8.2241 51.2766 8.04647 51.249 7.87257C51.2214 7.69867 51.1598 7.53192 51.0677 7.38187C50.9755 7.23182 50.8547 7.10141 50.7121 6.99812L47.7647 4.85519C47.6225 4.75171 47.4612 4.67728 47.2902 4.63613C47.1192 4.59499 46.9417 4.58795 46.7679 4.61541C46.5942 4.64286 46.4276 4.70429 46.2776 4.79616C46.1276 4.88804 45.9971 5.00857 45.8937 5.15086L45.4018 5.82787C45.2144 6.08584 44.9408 6.2682 44.6306 6.34195C44.3204 6.4157 43.994 6.37596 43.7105 6.22993L43.593 6.16913C43.3081 6.02488 43.0843 5.78337 42.9622 5.48835C42.84 5.19333 42.8275 4.86431 42.927 4.5609L43.1854 3.76507C43.24 3.59779 43.261 3.42139 43.2473 3.24597C43.2336 3.07056 43.1855 2.89956 43.1057 2.74275C43.0259 2.58594 42.9159 2.44641 42.7821 2.33212C42.6483 2.21783 42.4933 2.13104 42.3259 2.0767L38.8604 0.956182C38.6931 0.901641 38.5167 0.880609 38.3412 0.894288C38.1658 0.907968 37.9948 0.956091 37.8379 1.03591C37.6811 1.11572 37.5416 1.22566 37.4273 1.35944C37.313 1.49322 37.2262 1.64822 37.1718 1.81557L36.9134 2.60863C36.8153 2.91075 36.6127 3.16798 36.342 3.33411C36.0712 3.50024 35.7501 3.56438 35.4363 3.51499L35.2981 3.49427C34.9821 3.44634 34.6937 3.28673 34.4853 3.04438C34.2769 2.80204 34.1623 2.49302 34.1623 2.17341V1.34443C34.1634 0.989587 34.0235 0.648825 33.7735 0.397011C33.5235 0.145196 33.1837 0.0029279 32.8288 0.00146484H29.185C28.8299 0.00146484 28.4893 0.142518 28.2382 0.393595C27.9871 0.644671 27.846 0.985204 27.846 1.34028V2.16927C27.8457 2.489 27.7308 2.79803 27.5222 3.04035C27.3135 3.28266 27.025 3.44223 26.7088 3.49012H26.6853C26.3706 3.53927 26.0487 3.4744 25.7776 3.3072C25.5066 3.14001 25.3041 2.88149 25.2068 2.57824L24.9526 1.79761C24.8995 1.62945 24.8137 1.47344 24.7001 1.33853C24.5866 1.20362 24.4475 1.09247 24.2908 1.01146C24.1342 0.93045 23.9631 0.88118 23.7873 0.866478C23.6116 0.851776 23.4347 0.871931 23.2668 0.925786L19.7971 2.03939C19.6294 2.09304 19.4739 2.17923 19.3396 2.29302C19.2053 2.40681 19.0947 2.54597 19.0143 2.70254C18.9338 2.8591 18.885 3.03 18.8706 3.20545C18.8563 3.3809 18.8767 3.55745 18.9307 3.725L19.1863 4.52083C19.2838 4.82432 19.2695 5.15266 19.1461 5.44657C19.0227 5.74048 18.7983 5.98058 18.5134 6.12354L18.3945 6.18295C18.11 6.32696 17.7832 6.36433 17.4735 6.2883C17.1638 6.21227 16.8915 6.02786 16.706 5.76846L16.2168 5.09007C16.1139 4.94743 15.984 4.82646 15.8343 4.73405C15.6847 4.64165 15.5183 4.57962 15.3447 4.55153C15.1711 4.52343 14.9937 4.5298 14.8225 4.57029C14.6514 4.61078 14.4899 4.68458 14.3472 4.78749L11.3916 6.9249C11.2489 7.02775 11.1279 7.1577 11.0355 7.30732C10.9431 7.45694 10.8811 7.6233 10.853 7.7969C10.8249 7.97049 10.8312 8.14792 10.8717 8.31905C10.9122 8.49018 10.986 8.65166 11.089 8.79426L11.5795 9.47265C11.7665 9.73012 11.8553 10.0459 11.8299 10.3631C11.8046 10.6803 11.6668 10.9779 11.4413 11.2025L11.3474 11.2964C11.1224 11.5227 10.8239 11.661 10.5058 11.6863C10.1878 11.7117 9.87113 11.6224 9.61319 11.4346L8.93749 10.94C8.79554 10.836 8.63448 10.761 8.46352 10.7193C8.29256 10.6776 8.11507 10.67 7.94117 10.697C7.76728 10.7239 7.60041 10.7849 7.45009 10.8764C7.29978 10.9678 7.16897 11.088 7.06515 11.2301L4.90816 14.1689C4.80417 14.3108 4.72919 14.4718 4.68749 14.6428C4.64579 14.8137 4.6382 14.9912 4.66515 15.1651C4.6921 15.3389 4.75307 15.5058 4.84455 15.6561C4.93604 15.8064 5.05626 15.9372 5.19834 16.041L5.87404 16.5356C6.13168 16.7237 6.31346 16.9977 6.38646 17.3082C6.45946 17.6187 6.41885 17.945 6.272 18.2281L6.2112 18.3456C6.06609 18.6288 5.82462 18.851 5.53027 18.9721C5.23591 19.0932 4.90799 19.1052 4.60555 19.006L3.81101 18.7449C3.64389 18.69 3.4676 18.6687 3.29221 18.682C3.11682 18.6953 2.94577 18.743 2.78883 18.8224C2.63189 18.9018 2.49214 19.0114 2.37757 19.1448C2.26299 19.2783 2.17583 19.433 2.12107 19.6001L0.982466 23.0625C0.927618 23.2296 0.906236 23.4059 0.919541 23.5813C0.932845 23.7566 0.980577 23.9277 1.06001 24.0846C1.13944 24.2415 1.24901 24.3812 1.38247 24.4958C1.51593 24.6104 1.67065 24.6975 1.8378 24.7523L2.62543 25.0093C2.92707 25.1082 3.1836 25.3113 3.34897 25.5822C3.51433 25.8532 3.57772 26.1742 3.52774 26.4876L3.50702 26.6258C3.45841 26.9418 3.29812 27.2298 3.05523 27.4377C2.81235 27.6456 2.50296 27.7595 2.18325 27.7587H1.35417C1.17822 27.7582 1.00389 27.7923 0.841136 27.8592C0.678387 27.9261 0.530414 28.0243 0.405676 28.1484C0.280939 28.2725 0.181883 28.42 0.114172 28.5823C0.0464613 28.7447 0.0114231 28.9189 0.0110608 29.0948L6.42641e-06 32.7327C-0.000538691 32.9086 0.0336008 33.0829 0.100473 33.2456C0.167346 33.4084 0.265639 33.5563 0.389735 33.6811C0.513831 33.8058 0.661295 33.9048 0.823698 33.9725C0.9861 34.0402 1.16026 34.0753 1.33621 34.0756H2.16529C2.48442 34.0767 2.79264 34.1919 3.03418 34.4005C3.27572 34.6091 3.43462 34.8972 3.48214 35.2127L3.50287 35.3509C3.55203 35.6652 3.4873 35.9867 3.32035 36.2575C3.15339 36.5283 2.89518 36.7306 2.59226 36.8279L1.79773 37.0835C1.63018 37.1373 1.47487 37.2236 1.3407 37.3374C1.20653 37.4513 1.09611 37.5904 1.01578 37.747C0.935438 37.9035 0.886752 38.0744 0.872501 38.2498C0.85825 38.4251 0.878713 38.6016 0.932722 38.7691L2.04922 42.2384C2.10301 42.4059 2.18931 42.5612 2.30318 42.6954C2.41704 42.8295 2.55624 42.9399 2.71281 43.0203C2.86938 43.1006 3.04024 43.1493 3.21564 43.1635C3.39104 43.1778 3.56753 43.1573 3.73501 43.1033L4.53093 42.8463C4.83429 42.7487 5.16255 42.7628 5.45646 42.8859C5.75038 43.009 5.99062 43.2331 6.13382 43.5178L6.19324 43.6366C6.33764 43.9213 6.37523 44.2483 6.29917 44.5583C6.22312 44.8683 6.03846 45.1408 5.7787 45.3264L5.10023 45.8169C4.95749 45.9198 4.83646 46.0499 4.74405 46.1997C4.65164 46.3495 4.58968 46.516 4.5617 46.6898C4.53372 46.8635 4.54028 47.0411 4.581 47.2123C4.62172 47.3835 4.6958 47.545 4.799 47.6876L6.93388 50.6416C7.03686 50.7843 7.16698 50.9053 7.31678 50.9977C7.46658 51.0901 7.63313 51.1521 7.8069 51.18C7.98068 51.208 8.15826 51.2015 8.3295 51.1607C8.50073 51.12 8.66226 51.046 8.80484 50.9428L9.4833 50.4523C9.74091 50.2656 10.0567 50.177 10.3738 50.2023C10.6909 50.2276 10.9886 50.3653 11.2133 50.5904L11.3073 50.6844C11.5336 50.9093 11.6719 51.2078 11.6972 51.5258C11.7226 51.8438 11.6333 52.1605 11.4455 52.4184L10.9522 53.0954C10.7427 53.3821 10.6558 53.7403 10.7105 54.0911C10.7651 54.442 10.957 54.7567 11.2437 54.9661L14.187 57.1146C14.4737 57.324 14.8319 57.4109 15.1828 57.3563C15.5337 57.3016 15.8485 57.1098 16.0579 56.8231L16.5512 56.1474C16.7391 55.8896 17.0131 55.7076 17.3236 55.6343C17.6341 55.5611 17.9606 55.6014 18.2439 55.7481L18.3614 55.8089C18.6452 55.9536 18.8679 56.1948 18.9896 56.4892C19.1112 56.7835 19.1236 57.1117 19.0246 57.4144L18.7649 58.2102C18.71 58.3774 18.6887 58.5538 18.7021 58.7292C18.7155 58.9047 18.7634 59.0757 18.8429 59.2327C18.9225 59.3896 19.0322 59.5293 19.1658 59.6438C19.2994 59.7583 19.4543 59.8454 19.6216 59.9L23.0857 61.0329C23.253 61.0877 23.4293 61.1091 23.6048 61.0957C23.7802 61.0823 23.9513 61.0344 24.1083 60.9549C24.2652 60.8753 24.405 60.7656 24.5195 60.632C24.634 60.4984 24.7211 60.3436 24.7757 60.1763L25.0355 59.3832C25.1341 59.0816 25.3369 58.825 25.6076 58.6594C25.8783 58.4939 26.1992 58.4301 26.5126 58.4796L26.6508 58.5004C26.967 58.5487 27.2555 58.7088 27.4636 58.9517C27.6718 59.1946 27.7859 59.5041 27.7852 59.824V60.653C27.7849 60.8288 27.8192 61.003 27.8861 61.1655C27.9531 61.3281 28.0514 61.4759 28.1755 61.6005C28.2995 61.7251 28.4469 61.824 28.6093 61.8916C28.7716 61.9592 28.9456 61.9942 29.1214 61.9946L32.7666 62.0015C32.9426 62.0018 33.1169 61.9675 33.2796 61.9005C33.4422 61.8334 33.5901 61.735 33.7147 61.6108C33.8393 61.4866 33.9382 61.339 34.0058 61.1766C34.0733 61.0141 34.1082 60.84 34.1084 60.664V59.835C34.1091 59.5157 34.2242 59.2072 34.4328 58.9654C34.6414 58.7236 34.9298 58.5645 35.2456 58.517L35.3838 58.4962C35.6979 58.447 36.0193 58.5115 36.2901 58.6782C36.561 58.8449 36.7634 59.1027 36.8609 59.4054L37.1179 60.1998C37.2271 60.5376 37.4661 60.8183 37.7823 60.98C38.0984 61.1416 38.4658 61.1711 38.8037 61.0619L42.272 59.9414C42.6099 59.8322 42.8906 59.5933 43.0523 59.2772C43.214 58.9611 43.2435 58.5937 43.1343 58.2558L42.8773 57.46C42.7792 57.1566 42.7928 56.8282 42.9157 56.5341C43.0386 56.2399 43.2627 55.9994 43.5474 55.8559L43.6663 55.7965C43.9501 55.6513 44.2765 55.6124 44.5864 55.6869C44.8964 55.7614 45.1695 55.9444 45.3562 56.2027L45.8468 56.8797C45.9498 57.0223 46.08 57.1432 46.2299 57.2355C46.3797 57.3277 46.5463 57.3896 46.7201 57.4174C46.8938 57.4453 47.0714 57.4386 47.2426 57.3978C47.4138 57.3569 47.5752 57.2828 47.7177 57.1795L50.6692 55.0421C50.8118 54.9389 50.9326 54.8087 51.0247 54.6588C51.1168 54.5089 51.1785 54.3423 51.2063 54.1686C51.234 53.9949 51.2272 53.8173 51.1862 53.6462C51.1453 53.4751 51.0711 53.3138 50.9677 53.1714L50.4758 52.493C50.2884 52.2354 50.1994 51.9193 50.2247 51.6018C50.2501 51.2843 50.3881 50.9864 50.614 50.7618L50.7079 50.6678C50.9328 50.4419 51.231 50.3038 51.5488 50.2785C51.8665 50.2532 52.1829 50.3422 52.4407 50.5297L53.1178 51.0229C53.26 51.1265 53.4211 51.201 53.5921 51.2422C53.7631 51.2835 53.9405 51.2906 54.1142 51.2633C54.288 51.236 54.4546 51.1747 54.6047 51.083C54.7547 50.9912 54.8852 50.8708 54.9887 50.7286L57.1347 47.7829C57.2382 47.6408 57.3128 47.4796 57.354 47.3087C57.3953 47.1377 57.4025 46.9603 57.3751 46.7866C57.3478 46.6129 57.2865 46.4462 57.1947 46.2962C57.103 46.1462 56.9826 46.0157 56.8404 45.9122L56.1633 45.4189C55.9055 45.2314 55.7234 44.9577 55.6499 44.6475C55.5764 44.3373 55.6164 44.0111 55.7626 43.7278L55.8234 43.6104C55.9678 43.3264 56.209 43.1033 56.5034 42.9814C56.7978 42.8596 57.1261 42.8469 57.429 42.9458L58.2249 43.2055C58.3921 43.2601 58.5685 43.2812 58.7438 43.2676C58.9192 43.254 59.0902 43.206 59.247 43.1264C59.4038 43.0467 59.5434 42.9369 59.6577 42.8033C59.7721 42.6696 59.859 42.5148 59.9135 42.3475L61.0438 38.8824C61.0984 38.7152 61.1195 38.5389 61.1059 38.3635C61.0923 38.1882 61.0443 38.0172 60.9646 37.8604C60.8849 37.7036 60.7751 37.5641 60.6415 37.4497C60.5078 37.3354 60.3529 37.2485 60.1857 37.194L59.3925 36.9356C59.0907 36.8373 58.8337 36.6346 58.6678 36.3639C58.5019 36.0932 58.438 35.7722 58.4875 35.4587L58.5082 35.3205C58.5562 35.0043 58.716 34.7157 58.9587 34.5073C59.2013 34.2989 59.5107 34.1845 59.8306 34.1848H60.6597C60.8355 34.185 61.0096 34.1505 61.1722 34.0834C61.3347 34.0163 61.4824 33.9178 61.6069 33.7936C61.7313 33.6694 61.8301 33.5219 61.8976 33.3596C61.965 33.1972 61.9998 33.0232 62 32.8473V29.2026C62.0002 29.0267 61.9657 28.8526 61.8986 28.6901C61.8315 28.5276 61.733 28.3799 61.6088 28.2555C61.4846 28.131 61.3371 28.0323 61.1747 27.9648C61.0123 27.8974 60.8383 27.8625 60.6624 27.8624M42.6686 31.0788C42.6686 36.8265 39.2307 40.5459 33.5943 40.5459H31.3973V47.7595C31.4064 48.205 31.3271 48.648 31.1638 49.0627C31.0005 49.4774 30.7565 49.8556 30.446 50.1753C30.1355 50.495 29.7646 50.75 29.3548 50.9254C28.9451 51.1007 28.5046 51.1931 28.0588 51.197C27.6076 51.1975 27.1608 51.1088 26.744 50.9359C26.3272 50.763 25.9488 50.5094 25.6305 50.1896C25.3122 49.8698 25.0604 49.4902 24.8895 49.0726C24.7186 48.6551 24.632 48.2078 24.6347 47.7567V40.5569H24.0682C23.2334 40.5569 22.4327 40.2253 21.8424 39.6351C21.2521 39.0448 20.9205 38.2443 20.9205 37.4095C20.9205 36.673 21.2131 35.9666 21.7339 35.4458C22.2548 34.925 22.9613 34.6324 23.6979 34.6324H24.6334V15.4137C24.6334 12.7085 26.0414 10.9621 29.2541 10.9621H33.4258C39.5692 10.9621 42.6686 14.9067 42.6686 20.6543V31.0788Z" fill="#FBEBC0"/>
</g>
</g>
<defs>
<clipPath id="clip0_29_122">
<rect width="62" height="62" fill="white"/>
</clipPath>
</defs>
</svg>
