<svg width="80" height="80" viewBox="0 0 80 80" fill="none" xmlns="http://www.w3.org/2000/svg">
<path fill-rule="evenodd" clip-rule="evenodd" d="M20 21.0168V0H10V21.0168C10 28.8056 13.9989 34.3091 18.57 37.8182C20.5826 39.3632 22.7518 40.5662 24.8541 41.4767C20.4398 49.4429 20.2315 51.271 21.3032 55.4863C22.5881 60.5387 24.3181 62.1101 36.0584 68.8884L45.5854 74.3888L47.4535 71.153L49.3217 67.9173L40.7411 62.9633C31.2641 57.4918 30.1898 56.4918 30.3379 53.2794C30.3911 52.1329 31.1691 50.2191 32.5673 47.7974L34.7157 44.0764L43.7356 49.2841L52.7556 54.4918L54.6238 51.256L56.4919 48.0203L47.4719 42.8126L38.4519 37.6049L40.6003 33.8838C41.9985 31.4621 43.2669 29.8314 44.2331 29.2121C46.9284 27.4857 48.3637 27.9193 57.59 33.2461L65.9393 38.0665L67.8074 34.8308L69.6755 31.5951L60.0685 26.0688C51.8841 21.3602 50.0105 20.4542 47.4136 19.9465C43.5839 19.198 39.0052 20.5236 36.2309 23.1838C35.0234 24.3419 33.2333 27.0126 29.8756 32.7234C28.1511 32.0755 26.2934 31.1404 24.6593 29.886C21.8808 27.753 20 24.9374 20 21.0168Z" fill="#5D5D5D"/>
</svg>
