<svg width="32" height="32" viewBox="0 0 32 32" fill="none" xmlns="http://www.w3.org/2000/svg">
<path fill-rule="evenodd" clip-rule="evenodd" d="M6 9.875C6 9.64294 6.09219 9.42038 6.25628 9.25628C6.42038 9.09219 6.64294 9 6.875 9H26.125C26.3571 9 26.5796 9.09219 26.7437 9.25628C26.9078 9.42038 27 9.64294 27 9.875C27 10.1071 26.9078 10.3296 26.7437 10.4937C26.5796 10.6578 26.3571 10.75 26.125 10.75H6.875C6.64294 10.75 6.42038 10.6578 6.25628 10.4937C6.09219 10.3296 6 10.1071 6 9.875ZM6 16C6 15.7679 6.09219 15.5454 6.25628 15.3813C6.42038 15.2172 6.64294 15.125 6.875 15.125H26.125C26.3571 15.125 26.5796 15.2172 26.7437 15.3813C26.9078 15.5454 27 15.7679 27 16C27 16.2321 26.9078 16.4546 26.7437 16.6187C26.5796 16.7828 26.3571 16.875 26.125 16.875H6.875C6.64294 16.875 6.42038 16.7828 6.25628 16.6187C6.09219 16.4546 6 16.2321 6 16ZM6 22.125C6 21.8929 6.09219 21.6704 6.25628 21.5063C6.42038 21.3422 6.64294 21.25 6.875 21.25H26.125C26.3571 21.25 26.5796 21.3422 26.7437 21.5063C26.9078 21.6704 27 21.8929 27 22.125C27 22.3571 26.9078 22.5796 26.7437 22.7437C26.5796 22.9078 26.3571 23 26.125 23H6.875C6.64294 23 6.42038 22.9078 6.25628 22.7437C6.09219 22.5796 6 22.3571 6 22.125Z" fill="#FBEBC0"/>
</svg>
