<svg width="418" height="178" viewBox="0 0 418 178" fill="none" xmlns="http://www.w3.org/2000/svg">
<path fill-rule="evenodd" clip-rule="evenodd" d="M366.602 87.9086C356.697 90.0282 350.184 95.2109 347.941 102.76C346.339 108.151 346.336 111.074 347.93 116.436C350.286 124.364 356.772 129.352 367.746 131.676C383.096 134.927 389.251 138.327 389.251 143.557C389.251 149.869 384.86 153.177 375.433 153.966C367.546 154.627 362.268 152.754 357.116 147.468C352.675 142.913 352.93 142.886 346.37 148.617L343.206 151.381L346.903 155.489C348.936 157.75 352.387 160.566 354.571 161.747C367.352 168.665 392.787 165.934 399.678 156.904C403.746 151.576 405.054 143.763 403.075 136.623C400.885 128.721 396.387 125.667 381.185 121.76C367.577 118.263 363.935 116.436 362.371 112.325C359.671 105.229 365.274 98.6112 374.005 98.5817C379.943 98.5621 384.051 100.108 388.365 103.983L392.226 107.452L396.881 103.763C399.44 101.733 401.535 99.6857 401.535 99.2127C401.535 97.1872 394.359 91.3662 389.757 89.6591C384.313 87.6394 372.154 86.7203 366.602 87.9086ZM15 126.393V164.038H22.3704H29.7407V150.126V136.213H41.1656C47.4492 136.213 54.4666 135.812 56.7605 135.32C61.9713 134.203 67.1863 130.311 69.8683 125.536C71.7223 122.237 71.9156 121.002 71.9156 112.481C71.9156 103.96 71.7223 102.725 69.8683 99.4255C67.1863 94.6511 61.9713 90.759 56.7605 89.6419C54.4314 89.1427 44.2898 88.7482 33.7952 88.7482H15V126.393ZM140.296 94.4768V100.205H151.761H163.226V132.122V164.038H170.597H177.967V132.122V100.205H189.841H201.716V94.4768V88.7482H171.006H140.296V94.4768ZM273.782 126.393V164.038H281.134H288.486L288.709 148.694L288.932 133.349L294.854 133.109C302.231 132.81 307.033 134.055 309.757 136.973C311.982 139.356 313.085 142.134 317.174 155.65L319.712 164.038H327.512C334.546 164.038 335.273 163.897 334.912 162.606C329.149 141.949 324.951 133.002 319.865 130.538C317.035 129.166 316.391 128.03 318.446 128.03C320.787 128.03 326.085 124.789 328.132 122.104C334.148 114.211 332.329 99.6734 324.555 93.5365C319.534 89.5715 314.083 88.7482 292.854 88.7482H273.782V126.393ZM29.7407 112.89V125.575L37.7253 125.555C47.8685 125.531 51.4972 124.67 54.6182 121.551C56.8227 119.348 57.156 118.394 57.423 113.515C57.6842 108.747 57.4574 107.585 55.7876 105.128C52.8435 100.795 51.0059 100.231 39.7726 100.218L29.7407 100.205V112.89ZM288.703 111.049L288.932 121.892L296.215 122.13C306.121 122.454 311.651 121.229 314.257 118.133C318.502 113.092 317.603 105.614 312.326 102.06C309.819 100.371 308.629 100.205 299.023 100.205H288.475L288.703 111.049Z" fill="#FCF6A5"/>
<path d="M81.2505 103.219C82.895 97.5596 87.9584 92.2893 93.6172 90.3473C97.4547 89.0306 100.637 88.7974 115.114 88.7753L132.107 88.7483V94.4768V100.205H117.325C100.991 100.205 98.7527 100.73 96.4974 105.089C95.6891 106.652 95.2551 109.789 95.2551 114.077V120.665H111.224H127.193V126.393V132.122H111.224H95.2551V138.709C95.2551 142.997 95.6891 146.134 96.4974 147.698C98.7634 152.077 100.956 152.581 117.735 152.581H132.926V158.309V164.038H116.059C95.2739 164.038 91.7722 163.278 86.1928 157.554C80.6085 151.825 80.1049 149.245 80.1049 126.393C80.1049 112.34 80.4136 106.1 81.2505 103.219Z" fill="#FCF6A5"/>
<path fill-rule="evenodd" clip-rule="evenodd" d="M204.635 46.3385V12H193.635V46.3385C193.635 58.0317 199.603 66.3063 206.593 71.6723C209.773 74.1134 213.219 76.0054 216.548 77.4257C208.07 92.4549 207.583 95.3765 209.435 102.659C211.534 110.914 214.361 113.481 233.543 124.556L249.108 133.543L252.161 128.256L255.213 122.97L241.194 114.876C225.709 105.936 223.954 104.302 224.196 99.0534C224.283 97.1802 225.554 94.0533 227.839 90.0966L231.349 84.0169L246.086 92.5255L260.824 101.034L263.876 95.7475L266.928 90.4608L252.191 81.9521L237.453 73.4435L240.963 67.3638C243.248 63.407 245.32 60.7427 246.899 59.7309C251.303 56.9101 253.648 57.6185 268.722 66.3218L282.364 74.1977L285.416 68.911L288.468 63.6243L272.772 54.5951C259.4 46.9019 256.338 45.4215 252.095 44.592C245.838 43.3691 238.357 45.535 233.825 49.8813C231.694 51.9248 228.453 56.8504 222.075 67.8016C219.159 66.668 216.057 65.0698 213.292 62.9468C208.273 59.0945 204.635 53.7768 204.635 46.3385Z" fill="#A8CF4E"/>
</svg>
