<svg width="45" height="83" viewBox="0 0 45 83" fill="none" xmlns="http://www.w3.org/2000/svg">
<path d="M9 70V13H22.1516C26.7968 13 30.2516 14.1108 32.5161 16.3323C34.8387 18.4954 36 21.4769 36 25.2769V40.1846C36 43.9846 34.8677 46.9954 32.6032 49.2169C30.3387 51.38 26.8548 52.4615 22.1516 52.4615H15.0968V70H9ZM29.9032 25.2769C29.9032 23.1138 29.2355 21.4185 27.9 20.1908C26.6226 18.9046 24.7065 18.2615 22.1516 18.2615H15.0968V47.2H22.1516C24.7645 47.2 26.7097 46.5862 27.9871 45.3585C29.2645 44.0723 29.9032 42.3477 29.9032 40.1846V25.2769Z" fill="#F3F4A7"/>
</svg>
