<svg width="334" height="67" viewBox="0 0 334 67" fill="none" xmlns="http://www.w3.org/2000/svg">
<path d="M0.64 67V0.759995H32.032C41.824 0.759995 46.72 5.656 46.72 15.448V27.928C46.72 37.72 41.824 42.616 32.032 42.616H8.704V67H0.64ZM8.704 35.32H32.128C36.48 35.32 38.656 33.144 38.656 28.792V14.584C38.656 10.232 36.48 8.056 32.128 8.056H8.704V35.32ZM61.1088 67V0.759995H104.309V8.056H69.1728V28.6H101.429V35.896H69.1728V59.704H104.309V67H61.1088ZM111.398 8.056V0.759995H163.622V8.056H141.542V67H133.478V8.056H111.398ZM174.546 67V0.759995H217.746V8.056H182.61V28.6H214.866V35.896H182.61V59.704H217.746V67H174.546ZM231.171 67V0.759995H262.563C272.355 0.759995 277.251 5.656 277.251 15.448V26.008C277.251 34.328 273.699 39.064 266.595 40.216L279.171 65.08L278.115 67H271.299L257.955 40.696H239.235V67H231.171ZM239.235 33.4H262.659C267.011 33.4 269.187 31.224 269.187 26.872V14.584C269.187 10.232 267.011 8.056 262.659 8.056H239.235V33.4ZM289.698 63.64V59.704H319.266C323.618 59.704 325.794 57.528 325.794 53.176V45.4C325.794 41.752 324.162 39.608 320.898 38.968L300.258 34.744C293.218 33.336 289.698 28.632 289.698 20.632V15.448C289.698 5.656 294.594 0.759995 304.386 0.759995H327.618L331.938 4.12V8.056H304.29C299.938 8.056 297.762 10.232 297.762 14.584V21.112C297.762 24.76 299.394 26.904 302.658 27.544L323.298 31.672C330.338 33.08 333.858 37.816 333.858 45.88V52.312C333.858 62.104 328.962 67 319.17 67H294.018L289.698 63.64Z" fill="#262E3C"/>
</svg>
