<svg width="29" height="41" viewBox="0 0 29 41" fill="none" xmlns="http://www.w3.org/2000/svg">
<path d="M10.7462 39.9998V20.2983H15.3991C17.0425 20.2983 18.2648 20.6823 19.0659 21.4501C19.8876 22.1978 20.2985 23.2283 20.2985 24.5417V29.6944C20.2985 31.0079 19.8979 32.0485 19.0967 32.8164C18.2956 33.564 17.063 33.9378 15.3991 33.9378H12.9032V39.9998H10.7462ZM18.1415 24.5417C18.1415 23.7941 17.9053 23.2081 17.4328 22.7838C16.9808 22.3392 16.3029 22.1169 15.3991 22.1169H12.9032V32.1192H15.3991C16.3235 32.1192 17.0117 31.9071 17.4636 31.4827C17.9155 31.0382 18.1415 30.4421 18.1415 29.6944V24.5417Z" fill="#FCF6A5"/>
<path fill-rule="evenodd" clip-rule="evenodd" d="M14.5492 1.39519e-10C15.2126 -1.00216e-05 15.7504 0.53988 15.7504 1.20588L15.7505 9.47456C15.7505 10.1406 15.2128 10.6805 14.5494 10.6805C13.886 10.6805 13.3482 10.1406 13.3482 9.4746L13.348 1.20591C13.348 0.539916 13.8858 1.00218e-05 14.5492 1.39519e-10ZM24.2998 5.81124C24.799 6.24981 24.8496 7.01165 24.4128 7.51286L19.6081 13.0255C19.1712 13.5267 18.4124 13.5775 17.9131 13.139C17.4138 12.7004 17.3633 11.9386 17.8001 11.4374L22.6048 5.92468C23.0417 5.42347 23.8005 5.37268 24.2998 5.81124ZM4.12695 5.86608C4.59604 5.39514 5.35659 5.39514 5.82568 5.86608L11.3168 11.3787C11.7859 11.8497 11.7859 12.6132 11.3168 13.0841C10.8477 13.5551 10.0872 13.5551 9.61806 13.0841L4.12695 7.57147C3.65786 7.10054 3.65786 6.33701 4.12695 5.86608ZM1.20118 14.9016L8.92305 14.9016C9.58644 14.9016 10.1242 15.4415 10.1242 16.1075C10.1242 16.7735 9.58644 17.3134 8.92305 17.3134L1.20118 17.3134C0.537787 17.3134 8.18239e-08 16.7735 0 16.1075C-8.18239e-08 15.4415 0.537786 14.9016 1.20118 14.9016ZM19.7337 14.9016L27.4555 14.9016C28.1189 14.9016 28.6567 15.4415 28.6567 16.1075C28.6567 16.7735 28.1189 17.3134 27.4555 17.3134L19.7337 17.3134C19.0703 17.3134 18.5325 16.7735 18.5325 16.1075C18.5325 15.4415 19.0703 14.9016 19.7337 14.9016Z" fill="#FCF6A5"/>
</svg>
