<svg width="389" height="154" viewBox="0 0 389 154" fill="none" xmlns="http://www.w3.org/2000/svg">
<path fill-rule="evenodd" clip-rule="evenodd" d="M351.602 75.9086C341.697 78.0282 335.184 83.2109 332.941 90.7603C331.339 96.1509 331.336 99.0741 332.93 104.436C335.286 112.364 341.772 117.352 352.746 119.676C368.096 122.927 374.251 126.327 374.251 131.557C374.251 137.869 369.86 141.177 360.433 141.966C352.546 142.627 347.268 140.754 342.116 135.468C337.675 130.913 337.93 130.886 331.37 136.617L328.206 139.381L331.903 143.489C333.936 145.75 337.387 148.566 339.571 149.747C352.352 156.665 377.787 153.934 384.678 144.904C388.746 139.576 390.054 131.763 388.075 124.623C385.885 116.721 381.387 113.667 366.185 109.76C352.577 106.263 348.935 104.436 347.371 100.325C344.671 93.2293 350.274 86.6112 359.005 86.5817C364.943 86.5621 369.051 88.108 373.365 91.9829L377.226 95.452L381.881 91.7628C384.44 89.7332 386.535 87.6857 386.535 87.2127C386.535 85.1872 379.359 79.3662 374.757 77.6591C369.313 75.6394 357.154 74.7203 351.602 75.9086ZM0 114.393V152.038H7.37036H14.7407V138.126V124.213H26.1656C32.4492 124.213 39.4666 123.812 41.7605 123.32C46.9713 122.203 52.1863 118.311 54.8683 113.536C56.7223 110.237 56.9156 109.002 56.9156 100.481C56.9156 91.96 56.7223 90.7251 54.8683 87.4255C52.1863 82.6511 46.9713 78.759 41.7605 77.6419C39.4314 77.1427 29.2898 76.7482 18.7952 76.7482H0V114.393ZM125.296 82.4768V88.2054H136.761H148.226V120.122V152.038H155.597H162.967V120.122V88.2054H174.841H186.716V82.4768V76.7482H156.006H125.296V82.4768ZM258.782 114.393V152.038H266.134H273.486L273.709 136.694L273.932 121.349L279.854 121.109C287.231 120.81 292.033 122.055 294.757 124.973C296.982 127.356 298.085 130.134 302.174 143.65L304.712 152.038H312.512C319.546 152.038 320.273 151.897 319.912 150.606C314.149 129.949 309.951 121.002 304.865 118.538C302.035 117.166 301.391 116.03 303.446 116.03C305.787 116.03 311.085 112.789 313.132 110.104C319.148 102.211 317.329 87.6734 309.555 81.5365C304.534 77.5715 299.083 76.7482 277.854 76.7482H258.782V114.393ZM14.7407 100.89V113.575L22.7253 113.555C32.8685 113.531 36.4972 112.67 39.6182 109.551C41.8227 107.348 42.156 106.394 42.423 101.515C42.6842 96.7475 42.4574 95.5846 40.7876 93.1278C37.8435 88.7946 36.0059 88.2307 24.7726 88.2176L14.7407 88.2054V100.89ZM273.703 99.0487L273.932 109.892L281.215 110.13C291.121 110.454 296.651 109.229 299.257 106.133C303.502 101.092 302.603 93.6139 297.326 90.0598C294.819 88.3715 293.629 88.2054 284.023 88.2054H273.475L273.703 99.0487Z" fill="#A8CF4E"/>
<path d="M66.2505 91.2186C67.895 85.5596 72.9584 80.2893 78.6172 78.3473C82.4547 77.0306 85.6371 76.7974 100.114 76.7753L117.107 76.7483V82.4768V88.2054H102.325C85.9909 88.2054 83.7527 88.7299 81.4974 93.0886C80.6891 94.6516 80.2551 97.7893 80.2551 102.077V108.665H96.2242H112.193V114.393V120.122H96.2242H80.2551V126.709C80.2551 130.997 80.6891 134.134 81.4974 135.698C83.7634 140.077 85.9565 140.581 102.735 140.581H117.926V146.309V152.038H101.059C80.2739 152.038 76.7722 151.278 71.1928 145.554C65.6085 139.825 65.1049 137.245 65.1049 114.393C65.1049 100.34 65.4136 94.1001 66.2505 91.2186Z" fill="#A8CF4E"/>
<path fill-rule="evenodd" clip-rule="evenodd" d="M189.135 34.3385V0H179.135V34.3385C179.135 45.8383 184.997 53.9785 191.898 59.2757C195.058 61.7016 198.486 63.5799 201.795 64.9876C193.079 80.3989 192.565 83.3063 194.434 90.659C196.534 98.914 199.36 101.481 218.542 112.556L234.108 121.543L237.16 116.256L240.213 110.97L226.193 102.876C210.709 93.9358 208.954 92.302 209.196 87.0534C209.283 85.1802 210.554 82.0533 212.838 78.0966L216.349 72.0169L231.086 80.5255L245.823 89.0342L248.876 83.7475L251.928 78.4608L237.191 69.9521L222.453 61.4435L225.963 55.3638C228.248 51.407 230.32 48.7427 231.899 47.7309C236.303 44.9101 238.648 45.6185 253.722 54.3218L267.364 62.1977L270.416 56.911L273.468 51.6243L257.772 42.5951C244.399 34.9019 241.338 33.4215 237.095 32.592C230.838 31.3691 223.357 33.535 218.824 37.8813C216.665 39.9518 213.367 44.9811 206.821 56.239C203.886 55.0918 200.77 53.4803 197.987 51.3434C192.879 47.4223 189.135 41.9702 189.135 34.3385Z" fill="#5D5D5D"/>
</svg>
