<svg width="355" height="168" viewBox="0 0 355 168" fill="none" xmlns="http://www.w3.org/2000/svg">
<path d="M13 152.5V69.2999H32.328C39.1547 69.2999 44.232 70.9212 47.56 74.1639C50.9733 77.3212 52.68 81.6732 52.68 87.2199V108.98C52.68 114.527 51.016 118.921 47.688 122.164C44.36 125.321 39.24 126.9 32.328 126.9H21.96V152.5H13ZM43.72 87.2199C43.72 84.0625 42.7387 81.5879 40.776 79.7959C38.8987 77.9185 36.0827 76.9799 32.328 76.9799H21.96V119.22H32.328C36.168 119.22 39.0267 118.324 40.904 116.532C42.7813 114.655 43.72 112.137 43.72 108.98V87.2199Z" fill="#A8CF4E"/>
<path d="M104.485 129.46H113.445V136.5C113.445 142.047 111.738 146.441 108.325 149.684C104.912 152.841 99.621 154.42 92.453 154.42C85.285 154.42 79.9517 152.841 76.453 149.684C72.9543 146.441 71.205 142.047 71.205 136.5V85.2999C71.205 79.7532 72.9117 75.4012 76.325 72.2439C79.7383 69.0012 85.029 67.3799 92.197 67.3799C99.365 67.3799 104.698 69.0012 108.197 72.2439C111.696 75.4012 113.445 79.7532 113.445 85.2999V113.46H80.165V136.5C80.165 139.657 81.1463 142.175 83.109 144.052C85.157 145.844 88.2717 146.74 92.453 146.74C96.549 146.74 99.5783 145.844 101.541 144.052C103.504 142.175 104.485 139.657 104.485 136.5V129.46ZM80.165 105.78H104.485V85.2999C104.485 82.0572 103.461 79.5399 101.413 77.7479C99.4503 75.9559 96.3783 75.0599 92.197 75.0599C88.101 75.0599 85.0717 75.9559 83.109 77.7479C81.1463 79.5399 80.165 82.0572 80.165 85.2999V105.78Z" fill="#A8CF4E"/>
<path d="M164.005 69.2999V76.9799H144.805V138.292C144.805 140.596 145.402 142.601 146.597 144.308C147.792 145.929 149.584 146.74 151.973 146.74C154.277 146.74 155.984 145.929 157.093 144.308C158.288 142.601 158.885 140.596 158.885 138.292V123.06H167.845V137.78C167.845 143.327 166.352 147.508 163.365 150.324C160.464 153.055 156.666 154.42 151.973 154.42C147.28 154.42 143.397 153.055 140.325 150.324C137.338 147.508 135.845 143.327 135.845 137.78V69.2999H164.005Z" fill="#A8CF4E"/>
<path d="M217.11 129.46H226.07V136.5C226.07 142.047 224.363 146.441 220.95 149.684C217.537 152.841 212.246 154.42 205.078 154.42C197.91 154.42 192.577 152.841 189.078 149.684C185.579 146.441 183.83 142.047 183.83 136.5V85.2999C183.83 79.7532 185.537 75.4012 188.95 72.2439C192.363 69.0012 197.654 67.3799 204.822 67.3799C211.99 67.3799 217.323 69.0012 220.822 72.2439C224.321 75.4012 226.07 79.7532 226.07 85.2999V113.46H192.79V136.5C192.79 139.657 193.771 142.175 195.734 144.052C197.782 145.844 200.897 146.74 205.078 146.74C209.174 146.74 212.203 145.844 214.166 144.052C216.129 142.175 217.11 139.657 217.11 136.5V129.46ZM192.79 105.78H217.11V85.2999C217.11 82.0572 216.086 79.5399 214.038 77.7479C212.075 75.9559 209.003 75.0599 204.822 75.0599C200.726 75.0599 197.697 75.9559 195.734 77.7479C193.771 79.5399 192.79 82.0572 192.79 85.2999V105.78Z" fill="#A8CF4E"/>
<path d="M249.75 152.5V69.2999H253.59L257.302 78.7719C258.497 75.5292 260.118 72.8412 262.166 70.7079C264.214 68.4892 266.945 67.3799 270.358 67.3799C275.307 67.3799 279.062 68.7879 281.622 71.6039C284.267 74.3345 285.59 78.4732 285.59 84.0199V92.3399H277.014V83.5079C277.014 81.0332 276.459 79.0279 275.35 77.4919C274.241 75.8705 272.449 75.0599 269.974 75.0599C268.353 75.0599 266.646 75.6999 264.854 76.9799C263.147 78.2599 261.697 80.3079 260.502 83.1239C259.307 85.8545 258.71 89.4812 258.71 94.0039V152.5H249.75Z" fill="#A8CF4E"/>
<path d="M335.176 119.092C337.736 121.823 339.443 124.468 340.296 127.028C341.235 129.588 341.704 132.745 341.704 136.5C341.704 142.047 339.997 146.441 336.584 149.684C333.171 152.841 327.667 154.42 320.072 154.42C312.563 154.42 307.059 152.841 303.56 149.684C300.147 146.441 298.44 142.047 298.44 136.5V125.62H307.4V137.012C307.4 139.913 308.424 142.26 310.472 144.052C312.605 145.844 315.805 146.74 320.072 146.74C324.339 146.74 327.496 145.844 329.544 144.052C331.677 142.26 332.744 139.913 332.744 137.012C332.744 134.367 332.445 132.148 331.848 130.356C331.336 128.564 330.013 126.644 327.88 124.596L305.352 102.58C302.707 99.8492 300.872 97.2039 299.848 94.6439C298.909 92.0839 298.44 88.9692 298.44 85.2999C298.44 79.7532 300.189 75.4012 303.688 72.2439C307.187 69.0012 312.563 67.3799 319.816 67.3799C326.984 67.3799 332.189 69.0012 335.432 72.2439C338.76 75.4012 340.424 79.7532 340.424 85.2999V96.1799H331.464V84.7879C331.464 81.8012 330.483 79.4545 328.52 77.7479C326.557 75.9559 323.528 75.0599 319.432 75.0599C315.336 75.0599 312.307 75.9559 310.344 77.7479C308.381 79.4545 307.4 81.8012 307.4 84.7879C307.4 87.4332 307.656 89.6519 308.168 91.4439C308.765 93.2359 310.131 95.1132 312.264 97.0759L335.176 119.092Z" fill="#A8CF4E"/>
<path fill-rule="evenodd" clip-rule="evenodd" d="M150.093 5C152.026 4.99997 153.593 6.56695 153.594 8.49995L153.594 32.499C153.594 34.432 152.027 35.999 150.094 35.9991C148.161 35.9991 146.594 34.4321 146.594 32.4991L146.594 8.50005C146.593 6.56706 148.16 5.00003 150.093 5ZM178.505 21.8666C179.959 23.1395 180.107 25.3506 178.834 26.8054L164.834 42.8054C163.561 44.2601 161.35 44.4075 159.895 43.1346C158.44 41.8617 158.293 39.6506 159.566 38.1958L173.566 22.1958C174.839 20.7411 177.05 20.5937 178.505 21.8666ZM119.725 22.0257C121.092 20.6589 123.308 20.6589 124.675 22.0257L140.675 38.0257C142.042 39.3926 142.042 41.6086 140.675 42.9755C139.308 44.3423 137.092 44.3423 135.725 42.9755L119.725 26.9755C118.358 25.6086 118.358 23.3926 119.725 22.0257ZM111.2 48.2506L133.7 48.2506C135.633 48.2506 137.2 49.8176 137.2 51.7506C137.2 53.6836 135.633 55.2506 133.7 55.2506L111.2 55.2506C109.267 55.2506 107.7 53.6836 107.7 51.7506C107.7 49.8176 109.267 48.2506 111.2 48.2506ZM165.2 48.2506L187.7 48.2506C189.633 48.2506 191.2 49.8176 191.2 51.7506C191.2 53.6836 189.633 55.2506 187.7 55.2506L165.2 55.2506C163.267 55.2506 161.7 53.6836 161.7 51.7506C161.7 49.8176 163.267 48.2506 165.2 48.2506Z" fill="#A8CF4E"/>
</svg>
