<svg width="155" height="118" viewBox="0 0 155 118" fill="none" xmlns="http://www.w3.org/2000/svg">
<g clip-path="url(#clip0_13_707)">
<path d="M67.6439 58.6157H23.7512V116.779H67.6439V58.6157Z" fill="#F2F2F2"/>
<path d="M85.8064 116.779H66.9952V58.6159L72.4007 41.1021L85.8064 58.6159V116.779Z" fill="#F2F2F2"/>
<path d="M51.2113 97.103H39.7516V116.779H51.2113V97.103Z" fill="#5D5D5D"/>
<path d="M51.0318 68.0215H40.5796V85.9678H51.0318V68.0215Z" fill="#5D5D5D"/>
<path d="M67.1034 84.2378H23.2107V89.8595H67.1034V84.2378Z" fill="#CCCCCC"/>
<path d="M23.7513 58.6152H0V116.779H23.7513V58.6152Z" fill="#F2F2F2"/>
<path d="M7.75062 97.1016H0V116.779H7.75062V97.1016Z" fill="#5D5D5D"/>
<path d="M6.92289 68.0215H0V85.9683H6.92289V68.0215Z" fill="#5D5D5D"/>
<path d="M24.2917 84.2373H0V89.8604H24.2917V84.2373Z" fill="#CCCCCC"/>
<path d="M90.5381 61.7174C90.2405 62.4288 89.5769 62.87 88.8073 62.87H88.8039L85.8076 62.8666L78.358 62.8564H78.0536L76.1997 62.8529L67.6453 62.8393H66.9954L26.3303 62.7811C26.2892 62.8051 25.3623 62.829 23.7513 62.8529C19.575 62.9179 10.8119 62.9795 1.03297 63.0308C0.690928 63.0342 0.345464 63.0342 0 63.0376V41C0.34204 41.0034 0.687504 41.0034 1.03297 41.0034C16.4898 41.065 33.4755 41.1539 33.6636 41.2736H71.3222C71.654 41.2736 71.9824 41.3626 72.2663 41.5336C72.4134 41.6122 72.5467 41.7183 72.6665 41.838L74.0209 43.2198L74.7221 43.9347L90.1481 59.672C90.6886 60.2226 90.8391 61.0059 90.5381 61.7174Z" fill="#5D5D5D"/>
<path d="M27.0006 62.9077H22.8961V116.95H27.0006V62.9077Z" fill="#F2F2F2"/>
<path d="M14.8139 91.9482C14.8139 85.6526 9.70683 70.7134 3.40695 70.7134C-2.89293 70.7134 -8 85.6526 -8 91.9482C-8 94.9735 -6.79819 97.875 -4.65897 100.014C-2.51975 102.153 0.381656 103.355 3.40697 103.355C6.43228 103.355 9.33369 102.153 11.4729 100.014C13.6121 97.875 14.8139 94.9735 14.8139 91.9482Z" fill="#A8CF4E"/>
<path d="M3.76345 117.453C3.66891 117.453 3.57824 117.416 3.51139 117.349C3.44454 117.282 3.40699 117.192 3.40698 117.097V85.3213C3.40698 85.2268 3.44454 85.1361 3.51139 85.0693C3.57824 85.0024 3.66891 84.9648 3.76345 84.9648C3.85799 84.9648 3.94865 85.0024 4.0155 85.0693C4.08236 85.1361 4.11992 85.2268 4.11992 85.3213V117.097C4.11992 117.192 4.08236 117.282 4.0155 117.349C3.94865 117.416 3.85799 117.453 3.76345 117.453Z" fill="#CCCCCC"/>
<path d="M3.76338 90.5306C3.69289 90.5306 3.62397 90.5097 3.56537 90.4705C3.50676 90.4313 3.46108 90.3756 3.43411 90.3105C3.40713 90.2454 3.40008 90.1737 3.41383 90.1046C3.42758 90.0355 3.46151 89.9719 3.51134 89.9221L8.17309 85.2602C8.23993 85.1933 8.33059 85.1558 8.42512 85.1558C8.51966 85.1558 8.61031 85.1933 8.67716 85.2602C8.744 85.327 8.78157 85.4177 8.78157 85.5122C8.78157 85.6067 8.744 85.6974 8.67716 85.7642L4.01543 90.4262C3.98238 90.4593 3.94307 90.4856 3.89982 90.5035C3.85656 90.5215 3.8102 90.5306 3.76338 90.5306Z" fill="#CCCCCC"/>
<path d="M34.9999 81.6787C34.9999 72.8481 27.8365 51.8936 19 51.8936C10.1634 51.8936 3 72.8481 3 81.6787C3 85.9221 4.68572 89.9918 7.6863 92.9923C10.6869 95.9929 14.7565 97.6786 19 97.6786C23.2435 97.6786 27.3131 95.9929 30.3137 92.9923C33.3143 89.9918 34.9999 85.9221 34.9999 81.6787Z" fill="#A8CF4E"/>
<path d="M19.5 117.454C19.3674 117.454 19.2402 117.401 19.1465 117.307C19.0527 117.213 19 117.086 19 116.954V72.3833C19 72.2507 19.0527 72.1235 19.1465 72.0298C19.2402 71.936 19.3674 71.8833 19.5 71.8833C19.6326 71.8833 19.7598 71.936 19.8535 72.0298C19.9473 72.1235 20 72.2507 20 72.3833V116.954C20 117.086 19.9473 117.213 19.8535 117.307C19.7598 117.401 19.6326 117.454 19.5 117.454Z" fill="#CCCCCC"/>
<path d="M19.4999 79.6904C19.401 79.6903 19.3044 79.661 19.2222 79.6061C19.14 79.5511 19.0759 79.473 19.038 79.3817C19.0002 79.2903 18.9903 79.1898 19.0096 79.0929C19.0289 78.9959 19.0765 78.9068 19.1464 78.8369L25.6852 72.2978C25.7789 72.2041 25.9061 72.1514 26.0387 72.1514C26.1713 72.1514 26.2985 72.2041 26.3922 72.2978C26.486 72.3916 26.5387 72.5187 26.5387 72.6513C26.5387 72.7839 26.486 72.9111 26.3922 73.0049L19.8534 79.5439C19.8071 79.5904 19.7519 79.6273 19.6913 79.6524C19.6306 79.6776 19.5656 79.6904 19.4999 79.6904Z" fill="#CCCCCC"/>
<path d="M116.432 23.4395C115.57 23.4395 114.721 23.2284 113.96 22.8245C113.199 22.4205 112.549 21.8361 112.065 21.1225C111.582 20.4089 111.282 19.5876 111.189 18.7308C111.097 17.874 111.217 17.0077 111.537 16.2076L117.624 1H76V34.488C76 35.1804 76.1364 35.8661 76.4014 36.5058C76.6663 37.1455 77.0547 37.7267 77.5443 38.2163C78.0339 38.7059 78.6152 39.0942 79.2549 39.3592C79.8946 39.6241 80.5801 39.7605 81.2726 39.7605H87.0484C88.4468 39.7605 89.7879 40.3161 90.7767 41.3049C91.7655 42.2937 92.321 43.6347 92.321 45.0331V66.3886C92.321 67.5764 92.722 68.7294 93.4591 69.6607C94.1962 70.5921 95.2262 71.2472 96.3821 71.5201C97.5381 71.793 98.7524 71.6676 99.8282 71.1642C100.904 70.6608 101.778 69.8089 102.309 68.7466L121.148 31.0701C121.55 30.2662 121.739 29.373 121.699 28.4752C121.659 27.5774 121.389 26.7048 120.917 25.9403C120.444 25.1757 119.784 24.5448 118.999 24.1071C118.214 23.6695 117.331 23.4396 116.432 23.4395Z" fill="#A8CF4E"/>
</g>
<defs>
<clipPath id="clip0_13_707">
<rect width="155" height="118" fill="white"/>
</clipPath>
</defs>
</svg>
